<svg width="513" height="342" viewBox="0 0 513 342" fill="none" xmlns="http://www.w3.org/2000/svg">
<circle cx="245.5" cy="24.5" r="24.5" fill="#FCCE2E"/>
<circle cx="348.5" cy="104.5" r="24.5" fill="#FCCE2E"/>
<circle cx="205.5" cy="206.5" r="24.5" fill="#FCCE2E"/>
<circle cx="275.5" cy="317.5" r="24.5" fill="#FCCE2E"/>
<circle cx="73.5" cy="206.5" r="24.5" fill="#FCCE2E"/>
<circle cx="24.5" cy="317.5" r="24.5" fill="#FCCE2E"/>
<circle cx="422.5" cy="206.5" r="24.5" fill="#FCCE2E"/>
<circle cx="488.5" cy="317.5" r="24.5" fill="#FCCE2E"/>
<circle cx="349.5" cy="317.5" r="24.5" fill="#FCCE2E"/>
<circle cx="280.5" cy="210.5" r="24.5" fill="#FCCE2E"/>
<circle cx="142.5" cy="104.5" r="24.5" fill="#FCCE2E"/>
<path d="M217.923 46.1828C218.576 45.6732 218.692 44.7307 218.183 44.0775C217.673 43.4242 216.731 43.3077 216.077 43.8172L217.923 46.1828ZM165.511 83.816C165.41 84.6382 165.994 85.3871 166.816 85.4887L180.214 87.1446C181.036 87.2462 181.785 86.6621 181.887 85.8399C181.988 85.0178 181.404 84.2689 180.582 84.1673L168.673 82.6953L170.145 70.7859C170.246 69.9638 169.662 69.2149 168.84 69.1133C168.018 69.0117 167.269 69.5958 167.167 70.418L165.511 83.816ZM216.077 43.8172L166.077 82.8172L167.923 85.1828L217.923 46.1828L216.077 43.8172Z" fill="#FCCE2E"/>
<path d="M119.268 129.802C119.711 129.102 119.502 128.175 118.802 127.732C118.102 127.289 117.175 127.498 116.732 128.198L119.268 129.802ZM85.5366 178.329C85.7184 179.137 86.521 179.645 87.3293 179.463L100.5 176.5C101.308 176.318 101.816 175.516 101.634 174.707C101.452 173.899 100.65 173.391 99.8415 173.573L88.1341 176.207L85.5 164.5C85.3182 163.692 84.5155 163.184 83.7073 163.366C82.8991 163.548 82.3913 164.35 82.5732 165.159L85.5366 178.329ZM116.732 128.198L85.7324 177.198L88.2676 178.802L119.268 129.802L116.732 128.198Z" fill="#FCCE2E"/>
<path d="M59.2676 236.802C59.7105 236.102 59.502 235.175 58.802 234.732C58.1019 234.289 57.1753 234.498 56.7324 235.198L59.2676 236.802ZM25.5366 285.329C25.7184 286.137 26.521 286.645 27.3293 286.463L40.5 283.5C41.3082 283.318 41.816 282.516 41.6341 281.707C41.4523 280.899 40.6497 280.391 39.8415 280.573L28.1341 283.207L25.5 271.5C25.3182 270.692 24.5155 270.184 23.7073 270.366C22.8991 270.548 22.3913 271.35 22.5732 272.159L25.5366 285.329ZM56.7324 235.198L25.7324 284.198L28.2676 285.802L59.2676 236.802L56.7324 235.198Z" fill="#FCCE2E"/>
<path d="M322.244 129.838C322.707 129.151 322.525 128.219 321.838 127.756C321.151 127.293 320.219 127.475 319.756 128.162L322.244 129.838ZM286.528 178.287C286.686 179.1 287.474 179.631 288.287 179.472L301.537 176.887C302.35 176.728 302.881 175.94 302.722 175.127C302.564 174.314 301.776 173.784 300.963 173.942L289.185 176.24L286.887 164.463C286.728 163.65 285.94 163.119 285.127 163.278C284.314 163.436 283.784 164.224 283.942 165.037L286.528 178.287ZM319.756 128.162L286.756 177.162L289.244 178.838L322.244 129.838L319.756 128.162Z" fill="#FCCE2E"/>
<path d="M394.244 231.838C394.707 231.151 394.525 230.219 393.838 229.756C393.151 229.293 392.219 229.475 391.756 230.162L394.244 231.838ZM358.528 280.287C358.686 281.1 359.474 281.631 360.287 281.472L373.537 278.887C374.35 278.728 374.881 277.94 374.722 277.127C374.564 276.314 373.776 275.784 372.963 275.942L361.185 278.24L358.887 266.463C358.728 265.65 357.94 265.119 357.127 265.278C356.314 265.436 355.784 266.224 355.942 267.037L358.528 280.287ZM391.756 230.162L358.756 279.162L361.244 280.838L394.244 231.838L391.756 230.162Z" fill="#FCCE2E"/>
<path d="M162.268 128.198C161.825 127.498 160.898 127.289 160.198 127.732C159.498 128.175 159.289 129.102 159.732 129.802L162.268 128.198ZM191.671 179.463C192.479 179.645 193.282 179.137 193.463 178.329L196.427 165.159C196.609 164.35 196.101 163.548 195.293 163.366C194.484 163.184 193.682 163.692 193.5 164.5L190.866 176.207L179.159 173.573C178.35 173.391 177.548 173.899 177.366 174.707C177.184 175.516 177.692 176.318 178.5 176.5L191.671 179.463ZM159.732 129.802L190.732 178.802L193.268 177.198L162.268 128.198L159.732 129.802Z" fill="#FCCE2E"/>
<path d="M227.229 234.14C226.754 233.461 225.818 233.296 225.14 233.771C224.461 234.246 224.296 235.182 224.771 235.86L227.229 234.14ZM260.739 286.477C261.555 286.621 262.333 286.076 262.477 285.261L264.823 271.966C264.967 271.15 264.423 270.372 263.607 270.228C262.791 270.084 262.013 270.629 261.869 271.445L259.784 283.262L247.966 281.177C247.15 281.033 246.372 281.577 246.228 282.393C246.084 283.209 246.629 283.987 247.445 284.131L260.739 286.477ZM224.771 235.86L259.771 285.86L262.229 284.14L227.229 234.14L224.771 235.86Z" fill="#FCCE2E"/>
<path d="M274.077 43.1828C273.424 42.6732 273.308 41.7307 273.817 41.0775C274.327 40.4242 275.269 40.3077 275.923 40.8172L274.077 43.1828ZM326.489 80.816C326.59 81.6382 326.006 82.3871 325.184 82.4887L311.786 84.1446C310.964 84.2462 310.215 83.6621 310.113 82.8399C310.012 82.0178 310.596 81.2689 311.418 81.1673L323.327 79.6953L321.855 67.7859C321.754 66.9638 322.338 66.2149 323.16 66.1133C323.982 66.0117 324.731 66.5958 324.833 67.418L326.489 80.816ZM275.923 40.8172L325.923 79.8172L324.077 82.1828L274.077 43.1828L275.923 40.8172Z" fill="#FCCE2E"/>
<path d="M374.206 131.108C373.714 130.442 372.775 130.301 372.108 130.794C371.442 131.286 371.301 132.225 371.794 132.892L374.206 131.108ZM406.777 179.483C407.597 179.606 408.361 179.042 408.483 178.223L410.486 164.872C410.609 164.053 410.044 163.289 409.225 163.166C408.406 163.043 407.642 163.608 407.519 164.427L405.739 176.294L393.872 174.514C393.053 174.391 392.289 174.956 392.166 175.775C392.043 176.594 392.608 177.358 393.427 177.481L406.777 179.483ZM371.794 132.892L405.794 178.892L408.206 177.108L374.206 131.108L371.794 132.892Z" fill="#FCCE2E"/>
<path d="M448.206 230.108C447.714 229.442 446.775 229.301 446.108 229.794C445.442 230.286 445.301 231.225 445.794 231.892L448.206 230.108ZM480.777 278.483C481.597 278.606 482.361 278.042 482.483 277.223L484.486 263.872C484.609 263.053 484.044 262.289 483.225 262.166C482.406 262.043 481.642 262.608 481.519 263.427L479.739 275.294L467.872 273.514C467.053 273.391 466.289 273.956 466.166 274.775C466.043 275.594 466.608 276.358 467.427 276.481L480.777 278.483ZM445.794 231.892L479.794 277.892L482.206 276.108L448.206 230.108L445.794 231.892Z" fill="#FCCE2E"/>
<path d="M240.549 33H236.594L242.62 15.5455H247.376L253.393 33H249.438L245.066 19.5341H244.93L240.549 33ZM240.302 26.1392H249.643V29.0199H240.302V26.1392Z" fill="#0D1117"/>
<path d="M357.394 101.656H353.661C353.593 101.173 353.454 100.744 353.244 100.369C353.033 99.9886 352.763 99.6648 352.434 99.3977C352.104 99.1307 351.724 98.9261 351.292 98.7841C350.866 98.642 350.403 98.571 349.903 98.571C348.999 98.571 348.212 98.7955 347.542 99.2443C346.871 99.6875 346.352 100.335 345.982 101.188C345.613 102.034 345.428 103.062 345.428 104.273C345.428 105.517 345.613 106.562 345.982 107.409C346.357 108.256 346.88 108.895 347.55 109.327C348.221 109.759 348.996 109.974 349.877 109.974C350.371 109.974 350.829 109.909 351.249 109.778C351.675 109.648 352.053 109.457 352.383 109.207C352.712 108.952 352.985 108.642 353.201 108.278C353.423 107.915 353.576 107.5 353.661 107.034L357.394 107.051C357.298 107.852 357.056 108.625 356.67 109.369C356.289 110.108 355.775 110.77 355.127 111.355C354.485 111.935 353.718 112.395 352.826 112.736C351.94 113.071 350.937 113.239 349.817 113.239C348.261 113.239 346.869 112.886 345.641 112.182C344.42 111.477 343.454 110.457 342.744 109.122C342.039 107.787 341.687 106.17 341.687 104.273C341.687 102.369 342.045 100.75 342.761 99.4148C343.477 98.0795 344.448 97.0625 345.675 96.3636C346.903 95.6591 348.283 95.3068 349.817 95.3068C350.829 95.3068 351.766 95.4489 352.63 95.733C353.499 96.017 354.269 96.4318 354.94 96.9773C355.61 97.517 356.156 98.179 356.576 98.9631C357.002 99.7472 357.275 100.645 357.394 101.656Z" fill="#0D1117"/>
<path d="M274.998 219V201.545H286.554V204.588H278.688V208.747H285.787V211.79H278.688V219H274.998Z" fill="#0D1117"/>
<path d="M427.462 203.188C427.343 202.773 427.175 202.406 426.959 202.088C426.743 201.764 426.479 201.491 426.167 201.27C425.86 201.043 425.507 200.869 425.11 200.75C424.718 200.631 424.283 200.571 423.806 200.571C422.914 200.571 422.13 200.793 421.453 201.236C420.783 201.679 420.26 202.324 419.885 203.17C419.51 204.011 419.323 205.04 419.323 206.256C419.323 207.472 419.507 208.506 419.877 209.358C420.246 210.21 420.769 210.861 421.445 211.31C422.121 211.753 422.919 211.974 423.84 211.974C424.675 211.974 425.388 211.827 425.979 211.531C426.576 211.23 427.03 210.807 427.343 210.261C427.661 209.716 427.82 209.071 427.82 208.327L428.57 208.438H424.07V205.659H431.374V207.858C431.374 209.392 431.05 210.71 430.402 211.812C429.755 212.909 428.863 213.756 427.726 214.352C426.59 214.943 425.289 215.239 423.823 215.239C422.186 215.239 420.749 214.878 419.51 214.156C418.272 213.429 417.306 212.398 416.613 211.062C415.925 209.722 415.581 208.131 415.581 206.29C415.581 204.875 415.786 203.614 416.195 202.506C416.61 201.392 417.189 200.449 417.934 199.676C418.678 198.903 419.544 198.315 420.533 197.912C421.522 197.509 422.593 197.307 423.746 197.307C424.735 197.307 425.655 197.452 426.507 197.741C427.36 198.026 428.115 198.429 428.775 198.952C429.439 199.474 429.982 200.097 430.402 200.818C430.823 201.534 431.093 202.324 431.212 203.188H427.462Z" fill="#0D1117"/>
<path d="M71.9741 215H65.7866V197.545H72.0252C73.7809 197.545 75.2923 197.895 76.5593 198.594C77.8264 199.287 78.8008 200.284 79.4826 201.585C80.1701 202.886 80.5139 204.443 80.5139 206.256C80.5139 208.074 80.1701 209.636 79.4826 210.943C78.8008 212.25 77.8207 213.253 76.5423 213.952C75.2695 214.651 73.7468 215 71.9741 215ZM69.4769 211.838H71.8207C72.9116 211.838 73.8292 211.645 74.5735 211.259C75.3235 210.866 75.886 210.261 76.261 209.443C76.6417 208.619 76.832 207.557 76.832 206.256C76.832 204.966 76.6417 203.912 76.261 203.094C75.886 202.276 75.3263 201.673 74.582 201.287C73.8377 200.901 72.9201 200.707 71.8292 200.707H69.4769V211.838Z" fill="#0D1117"/>
<path d="M16.5639 326V308.545H20.2543V315.747H27.7457V308.545H31.4276V326H27.7457V318.79H20.2543V326H16.5639Z" fill="#0D1117"/>
<path d="M277.344 308.545V326H273.654V308.545H277.344Z" fill="#0D1117"/>
<path d="M350.662 308.545H354.31V320.716C354.31 321.841 354.057 322.818 353.551 323.648C353.051 324.477 352.355 325.116 351.463 325.565C350.571 326.014 349.534 326.239 348.352 326.239C347.301 326.239 346.347 326.054 345.489 325.685C344.636 325.31 343.96 324.741 343.46 323.98C342.96 323.213 342.713 322.25 342.719 321.091H346.392C346.403 321.551 346.497 321.946 346.673 322.276C346.855 322.599 347.102 322.849 347.415 323.026C347.733 323.196 348.108 323.281 348.54 323.281C348.994 323.281 349.378 323.185 349.69 322.991C350.009 322.793 350.25 322.503 350.415 322.122C350.58 321.741 350.662 321.273 350.662 320.716V308.545Z" fill="#0D1117"/>
<path d="M482.744 326V308.545H486.434V316.241H486.664L492.945 308.545H497.369L490.891 316.361L497.445 326H493.031L488.249 318.824L486.434 321.04V326H482.744Z" fill="#0D1117"/>
<path d="M135.583 113V95.5455H142.572C143.856 95.5455 144.927 95.7358 145.785 96.1165C146.643 96.4972 147.288 97.0256 147.72 97.7017C148.152 98.3722 148.368 99.1449 148.368 100.02C148.368 100.702 148.231 101.301 147.958 101.818C147.686 102.33 147.311 102.75 146.833 103.08C146.362 103.403 145.822 103.634 145.214 103.77V103.94C145.879 103.969 146.501 104.156 147.081 104.503C147.666 104.849 148.14 105.335 148.504 105.96C148.868 106.58 149.049 107.318 149.049 108.176C149.049 109.102 148.819 109.929 148.359 110.656C147.904 111.378 147.231 111.949 146.339 112.369C145.447 112.79 144.348 113 143.041 113H135.583ZM139.274 109.983H142.282C143.311 109.983 144.061 109.787 144.532 109.395C145.004 108.997 145.24 108.469 145.24 107.81C145.24 107.327 145.123 106.901 144.89 106.531C144.657 106.162 144.325 105.872 143.893 105.662C143.467 105.452 142.958 105.347 142.368 105.347H139.274V109.983ZM139.274 102.849H142.01C142.515 102.849 142.964 102.761 143.356 102.585C143.754 102.403 144.066 102.148 144.294 101.818C144.527 101.489 144.643 101.094 144.643 100.634C144.643 100.003 144.419 99.4943 143.97 99.108C143.527 98.7216 142.896 98.5284 142.078 98.5284H139.274V102.849Z" fill="#0D1117"/>
<path d="M199.669 215V197.545H211.431V200.588H203.36V204.747H210.826V207.79H203.36V211.957H211.465V215H199.669Z" fill="#0D1117"/>
</svg>
