<svg width="410" height="334" viewBox="0 0 410 334" fill="none" xmlns="http://www.w3.org/2000/svg">
<circle cx="167" cy="167" r="167" fill="#FCCE2E"/>
<line x1="168" x2="168" y2="334" stroke="white" stroke-width="2"/>
<line y1="166" x2="334" y2="166" stroke="white" stroke-width="2"/>
<line x1="56.1069" y1="41.9876" x2="281.107" y2="287.988" stroke="white" stroke-width="3"/>
<line x1="43.983" y1="278.897" x2="288.983" y2="52.8974" stroke="white" stroke-width="3"/>
<path d="M15 105L321 226M321 105L15 226M116 10L224 321M104 321L233 15.5" stroke="white" stroke-width="2"/>
<circle cx="167" cy="166" r="134.5" fill="#FCCE2E" stroke="white" stroke-width="3"/>
<path d="M256.957 36.9091V50H255.372V38.571H255.295L252.099 40.6932V39.0824L255.372 36.9091H256.957Z" fill="white"/>
<path d="M291.355 93V91.8494L295.676 87.1193C296.183 86.5653 296.601 86.0838 296.929 85.6747C297.257 85.2614 297.5 84.8736 297.658 84.5114C297.82 84.1449 297.901 83.7614 297.901 83.3608C297.901 82.9006 297.79 82.5021 297.568 82.1655C297.351 81.8288 297.053 81.5689 296.673 81.3857C296.294 81.2024 295.868 81.1108 295.395 81.1108C294.892 81.1108 294.453 81.2152 294.078 81.424C293.707 81.6286 293.42 81.9162 293.215 82.2869C293.015 82.6577 292.915 83.0923 292.915 83.5909H291.406C291.406 82.8239 291.583 82.1506 291.937 81.571C292.29 80.9915 292.772 80.5398 293.381 80.2159C293.995 79.892 294.683 79.7301 295.446 79.7301C296.213 79.7301 296.893 79.892 297.485 80.2159C298.077 80.5398 298.542 80.9766 298.879 81.5263C299.215 82.076 299.384 82.6875 299.384 83.3608C299.384 83.8423 299.296 84.3132 299.121 84.7734C298.951 85.2294 298.653 85.7386 298.227 86.3011C297.805 86.8594 297.219 87.5412 296.469 88.3466L293.528 91.4915V91.5938H299.614V93H291.355Z" fill="white"/>
<path d="M315.778 147.179C314.935 147.179 314.183 147.034 313.522 146.744C312.866 146.455 312.344 146.052 311.956 145.536C311.572 145.016 311.364 144.413 311.33 143.727H312.94C312.974 144.149 313.119 144.513 313.375 144.82C313.631 145.123 313.965 145.357 314.379 145.523C314.792 145.69 315.25 145.773 315.753 145.773C316.315 145.773 316.814 145.675 317.249 145.479C317.683 145.283 318.024 145.01 318.271 144.661C318.518 144.311 318.642 143.906 318.642 143.446C318.642 142.964 318.523 142.54 318.284 142.174C318.045 141.803 317.696 141.513 317.236 141.305C316.776 141.096 316.213 140.991 315.548 140.991H314.5V139.585H315.548C316.068 139.585 316.524 139.491 316.916 139.304C317.313 139.116 317.621 138.852 317.843 138.511C318.069 138.17 318.182 137.77 318.182 137.31C318.182 136.866 318.084 136.481 317.888 136.153C317.692 135.825 317.415 135.569 317.057 135.386C316.703 135.202 316.286 135.111 315.804 135.111C315.352 135.111 314.926 135.194 314.526 135.36C314.129 135.522 313.805 135.759 313.554 136.07C313.303 136.376 313.166 136.747 313.145 137.182H311.611C311.636 136.496 311.843 135.895 312.231 135.379C312.619 134.859 313.126 134.455 313.752 134.165C314.383 133.875 315.075 133.73 315.83 133.73C316.639 133.73 317.334 133.894 317.913 134.222C318.493 134.546 318.938 134.974 319.249 135.507C319.56 136.04 319.716 136.615 319.716 137.233C319.716 137.97 319.522 138.599 319.134 139.119C318.751 139.638 318.229 139.999 317.568 140.199V140.301C318.395 140.437 319.04 140.789 319.505 141.356C319.969 141.918 320.202 142.615 320.202 143.446C320.202 144.158 320.008 144.797 319.62 145.364C319.237 145.926 318.712 146.369 318.048 146.693C317.383 147.017 316.626 147.179 315.778 147.179Z" fill="white"/>
<path d="M310.048 198.315V197.011L315.801 187.909H316.747V189.929H316.108L311.761 196.807V196.909H319.509V198.315H310.048ZM316.21 201V197.919V197.312V187.909H317.719V201H316.21Z" fill="white"/>
<path d="M290.446 260.179C289.696 260.179 289.021 260.03 288.42 259.732C287.819 259.433 287.337 259.024 286.975 258.504C286.613 257.984 286.415 257.392 286.381 256.727H287.915C287.974 257.32 288.243 257.81 288.72 258.197C289.202 258.581 289.777 258.773 290.446 258.773C290.983 258.773 291.46 258.647 291.878 258.396C292.3 258.144 292.63 257.799 292.869 257.36C293.112 256.917 293.233 256.416 293.233 255.858C293.233 255.287 293.107 254.778 292.856 254.33C292.609 253.879 292.268 253.523 291.833 253.263C291.398 253.003 290.902 252.871 290.344 252.866C289.943 252.862 289.532 252.924 289.11 253.052C288.688 253.175 288.341 253.335 288.068 253.531L286.585 253.352L287.378 246.909H294.179V248.315H288.707L288.247 252.176H288.324C288.592 251.963 288.929 251.786 289.334 251.646C289.739 251.505 290.161 251.435 290.599 251.435C291.401 251.435 292.114 251.626 292.741 252.01C293.371 252.389 293.866 252.909 294.224 253.57C294.586 254.23 294.767 254.984 294.767 255.832C294.767 256.668 294.58 257.413 294.205 258.07C293.834 258.722 293.322 259.237 292.67 259.616C292.018 259.991 291.277 260.179 290.446 260.179Z" fill="white"/>
<path d="M335.585 276V262.909H340.162C341.074 262.909 341.826 263.067 342.418 263.382C343.011 263.693 343.452 264.113 343.741 264.641C344.031 265.165 344.176 265.747 344.176 266.386C344.176 266.949 344.076 267.413 343.876 267.78C343.68 268.146 343.42 268.436 343.096 268.649C342.776 268.862 342.429 269.02 342.054 269.122V269.25C342.455 269.276 342.857 269.416 343.262 269.672C343.667 269.928 344.006 270.294 344.278 270.771C344.551 271.249 344.688 271.832 344.688 272.523C344.688 273.179 344.538 273.769 344.24 274.293C343.942 274.817 343.471 275.233 342.827 275.54C342.184 275.847 341.347 276 340.315 276H335.585ZM337.17 274.594H340.315C341.351 274.594 342.086 274.393 342.521 273.993C342.96 273.588 343.179 273.098 343.179 272.523C343.179 272.08 343.066 271.67 342.84 271.295C342.614 270.916 342.293 270.614 341.875 270.388C341.457 270.158 340.963 270.043 340.392 270.043H337.17V274.594ZM337.17 268.662H340.111C340.588 268.662 341.018 268.568 341.402 268.381C341.79 268.193 342.097 267.929 342.322 267.588C342.553 267.247 342.668 266.847 342.668 266.386C342.668 265.811 342.467 265.323 342.067 264.923C341.666 264.518 341.031 264.315 340.162 264.315H337.17V268.662ZM349.977 276.23C349.355 276.23 348.79 276.113 348.283 275.879C347.776 275.64 347.373 275.297 347.075 274.849C346.777 274.398 346.627 273.852 346.627 273.213C346.627 272.651 346.738 272.195 346.96 271.845C347.181 271.491 347.478 271.214 347.848 271.014C348.219 270.814 348.628 270.665 349.076 270.567C349.527 270.464 349.981 270.384 350.437 270.324C351.034 270.247 351.517 270.19 351.888 270.151C352.263 270.109 352.536 270.038 352.706 269.94C352.881 269.842 352.968 269.672 352.968 269.429V269.378C352.968 268.747 352.796 268.257 352.451 267.908C352.11 267.558 351.592 267.384 350.897 267.384C350.177 267.384 349.613 267.541 349.203 267.857C348.794 268.172 348.507 268.509 348.341 268.866L346.909 268.355C347.164 267.759 347.505 267.294 347.931 266.962C348.362 266.625 348.831 266.391 349.338 266.259C349.849 266.122 350.352 266.054 350.846 266.054C351.162 266.054 351.524 266.092 351.933 266.169C352.346 266.241 352.745 266.393 353.128 266.623C353.516 266.853 353.838 267.2 354.093 267.665C354.349 268.129 354.477 268.751 354.477 269.531V276H352.968V274.67H352.892C352.789 274.884 352.619 275.112 352.38 275.354C352.142 275.597 351.824 275.804 351.428 275.974C351.032 276.145 350.548 276.23 349.977 276.23ZM350.207 274.875C350.804 274.875 351.306 274.758 351.716 274.523C352.129 274.289 352.44 273.987 352.649 273.616C352.862 273.245 352.968 272.855 352.968 272.446V271.065C352.904 271.142 352.764 271.212 352.547 271.276C352.333 271.336 352.086 271.389 351.805 271.436C351.528 271.479 351.257 271.517 350.993 271.551C350.733 271.581 350.522 271.607 350.36 271.628C349.968 271.679 349.602 271.762 349.261 271.877C348.924 271.988 348.652 272.156 348.443 272.382C348.238 272.604 348.136 272.906 348.136 273.29C348.136 273.814 348.33 274.21 348.718 274.479C349.11 274.743 349.606 274.875 350.207 274.875ZM361.219 276.205C360.298 276.205 359.506 275.987 358.841 275.553C358.176 275.118 357.665 274.519 357.307 273.756C356.949 272.994 356.77 272.122 356.77 271.142C356.77 270.145 356.953 269.265 357.32 268.502C357.691 267.735 358.206 267.136 358.867 266.706C359.531 266.271 360.307 266.054 361.193 266.054C361.884 266.054 362.506 266.182 363.06 266.438C363.614 266.693 364.068 267.051 364.421 267.511C364.775 267.972 364.994 268.509 365.08 269.122H363.571C363.456 268.675 363.2 268.278 362.804 267.933C362.412 267.584 361.884 267.409 361.219 267.409C360.631 267.409 360.115 267.562 359.672 267.869C359.233 268.172 358.89 268.6 358.643 269.154C358.4 269.704 358.279 270.349 358.279 271.091C358.279 271.849 358.398 272.51 358.637 273.072C358.879 273.635 359.22 274.072 359.659 274.383C360.102 274.694 360.622 274.849 361.219 274.849C361.611 274.849 361.967 274.781 362.286 274.645C362.606 274.509 362.877 274.312 363.098 274.057C363.32 273.801 363.477 273.494 363.571 273.136H365.08C364.994 273.716 364.784 274.238 364.447 274.702C364.115 275.163 363.673 275.529 363.124 275.802C362.578 276.07 361.943 276.205 361.219 276.205ZM368.691 272.42L368.666 270.554H368.972L373.268 266.182H375.134L370.558 270.81H370.43L368.691 272.42ZM367.285 276V262.909H368.794V276H367.285ZM373.524 276L369.688 271.142L370.762 270.094L375.441 276H373.524ZM381.704 262.295L377.485 277.969H376.104L380.323 262.295H381.704ZM382.981 264.315V262.909H392.799V264.315H388.682V276H387.097V264.315H382.981ZM396.594 276.23C395.972 276.23 395.407 276.113 394.9 275.879C394.393 275.64 393.99 275.297 393.692 274.849C393.394 274.398 393.245 273.852 393.245 273.213C393.245 272.651 393.355 272.195 393.577 271.845C393.799 271.491 394.095 271.214 394.466 271.014C394.836 270.814 395.245 270.665 395.693 270.567C396.145 270.464 396.598 270.384 397.054 270.324C397.651 270.247 398.135 270.19 398.505 270.151C398.88 270.109 399.153 270.038 399.324 269.94C399.498 269.842 399.586 269.672 399.586 269.429V269.378C399.586 268.747 399.413 268.257 399.068 267.908C398.727 267.558 398.209 267.384 397.515 267.384C396.794 267.384 396.23 267.541 395.821 267.857C395.412 268.172 395.124 268.509 394.958 268.866L393.526 268.355C393.782 267.759 394.123 267.294 394.549 266.962C394.979 266.625 395.448 266.391 395.955 266.259C396.466 266.122 396.969 266.054 397.463 266.054C397.779 266.054 398.141 266.092 398.55 266.169C398.963 266.241 399.362 266.393 399.745 266.623C400.133 266.853 400.455 267.2 400.711 267.665C400.966 268.129 401.094 268.751 401.094 269.531V276H399.586V274.67H399.509C399.407 274.884 399.236 275.112 398.998 275.354C398.759 275.597 398.441 275.804 398.045 275.974C397.649 276.145 397.165 276.23 396.594 276.23ZM396.824 274.875C397.421 274.875 397.924 274.758 398.333 274.523C398.746 274.289 399.057 273.987 399.266 273.616C399.479 273.245 399.586 272.855 399.586 272.446V271.065C399.522 271.142 399.381 271.212 399.164 271.276C398.951 271.336 398.703 271.389 398.422 271.436C398.145 271.479 397.875 271.517 397.61 271.551C397.35 271.581 397.14 271.607 396.978 271.628C396.586 271.679 396.219 271.762 395.878 271.877C395.542 271.988 395.269 272.156 395.06 272.382C394.855 272.604 394.753 272.906 394.753 273.29C394.753 273.814 394.947 274.21 395.335 274.479C395.727 274.743 396.223 274.875 396.824 274.875ZM403.847 276V266.182H405.356V276H403.847ZM404.615 264.545C404.32 264.545 404.067 264.445 403.854 264.245C403.645 264.045 403.541 263.804 403.541 263.523C403.541 263.241 403.645 263.001 403.854 262.8C404.067 262.6 404.32 262.5 404.615 262.5C404.909 262.5 405.16 262.6 405.369 262.8C405.582 263.001 405.688 263.241 405.688 263.523C405.688 263.804 405.582 264.045 405.369 264.245C405.16 264.445 404.909 264.545 404.615 264.545ZM409.627 262.909V276H408.119V262.909H409.627Z" fill="white"/>
<path d="M335.585 276H335.385V276.2H335.585V276ZM335.585 262.909V262.709H335.385V262.909H335.585ZM342.418 263.382L342.324 263.559L342.325 263.559L342.418 263.382ZM343.741 264.641L343.566 264.738L343.566 264.738L343.741 264.641ZM343.876 267.78L343.7 267.684L343.699 267.685L343.876 267.78ZM343.096 268.649L342.986 268.482L342.985 268.483L343.096 268.649ZM342.054 269.122L342.001 268.929L341.854 268.969V269.122H342.054ZM342.054 269.25H341.854V269.438L342.041 269.45L342.054 269.25ZM343.262 269.672L343.155 269.841L343.155 269.841L343.262 269.672ZM344.24 274.293L344.414 274.392L344.414 274.392L344.24 274.293ZM342.827 275.54L342.741 275.359L342.741 275.359L342.827 275.54ZM337.17 274.594H336.97V274.794H337.17V274.594ZM342.521 273.993L342.656 274.14L342.656 274.14L342.521 273.993ZM342.84 271.295L342.668 271.398L342.669 271.399L342.84 271.295ZM341.875 270.388L341.778 270.563L341.78 270.564L341.875 270.388ZM337.17 270.043V269.843H336.97V270.043H337.17ZM337.17 268.662H336.97V268.862H337.17V268.662ZM341.402 268.381L341.315 268.201L341.314 268.201L341.402 268.381ZM342.322 267.588L342.157 267.476L342.156 267.478L342.322 267.588ZM342.067 264.923L341.925 265.063L341.925 265.064L342.067 264.923ZM337.17 264.315V264.115H336.97V264.315H337.17ZM335.785 276V262.909H335.385V276H335.785ZM335.585 263.109H340.162V262.709H335.585V263.109ZM340.162 263.109C341.052 263.109 341.769 263.263 342.324 263.559L342.512 263.206C341.883 262.87 341.095 262.709 340.162 262.709V263.109ZM342.325 263.559C342.887 263.854 343.297 264.247 343.566 264.738L343.917 264.545C343.606 263.979 343.134 263.532 342.511 263.205L342.325 263.559ZM343.566 264.738C343.839 265.231 343.976 265.779 343.976 266.386H344.376C344.376 265.716 344.224 265.1 343.917 264.545L343.566 264.738ZM343.976 266.386C343.976 266.926 343.88 267.355 343.7 267.684L344.051 267.876C344.272 267.471 344.376 266.971 344.376 266.386H343.976ZM343.699 267.685C343.518 268.025 343.28 268.289 342.986 268.482L343.206 268.816C343.56 268.584 343.841 268.268 344.052 267.874L343.699 267.685ZM342.985 268.483C342.683 268.684 342.356 268.833 342.001 268.929L342.107 269.315C342.502 269.207 342.869 269.041 343.207 268.816L342.985 268.483ZM341.854 269.122V269.25H342.254V269.122H341.854ZM342.041 269.45C342.403 269.473 342.773 269.6 343.155 269.841L343.369 269.503C342.941 269.233 342.507 269.078 342.067 269.05L342.041 269.45ZM343.155 269.841C343.529 270.077 343.846 270.417 344.105 270.871L344.452 270.672C344.166 270.171 343.805 269.778 343.369 269.503L343.155 269.841ZM344.105 270.871C344.356 271.311 344.487 271.858 344.487 272.523H344.888C344.888 271.806 344.746 271.186 344.452 270.672L344.105 270.871ZM344.487 272.523C344.487 273.147 344.346 273.703 344.066 274.194L344.414 274.392C344.731 273.835 344.888 273.211 344.888 272.523H344.487ZM344.066 274.194C343.792 274.677 343.355 275.067 342.741 275.359L342.913 275.72C343.587 275.399 344.092 274.958 344.414 274.392L344.066 274.194ZM342.741 275.359C342.134 275.649 341.329 275.8 340.315 275.8V276.2C341.364 276.2 342.234 276.044 342.913 275.72L342.741 275.359ZM340.315 275.8H335.585V276.2H340.315V275.8ZM337.17 274.794H340.315V274.394H337.17V274.794ZM340.315 274.794C341.367 274.794 342.165 274.592 342.656 274.14L342.385 273.846C342.007 274.195 341.335 274.394 340.315 274.394V274.794ZM342.656 274.14C343.134 273.699 343.379 273.156 343.379 272.523H342.979C342.979 273.04 342.785 273.477 342.385 273.846L342.656 274.14ZM343.379 272.523C343.379 272.044 343.256 271.599 343.012 271.192L342.669 271.399C342.876 271.742 342.979 272.115 342.979 272.523H343.379ZM343.012 271.193C342.766 270.781 342.417 270.454 341.97 270.212L341.78 270.564C342.168 270.774 342.462 271.052 342.668 271.398L343.012 271.193ZM341.972 270.213C341.519 269.963 340.99 269.843 340.392 269.843V270.243C340.936 270.243 341.396 270.352 341.778 270.563L341.972 270.213ZM340.392 269.843H337.17V270.243H340.392V269.843ZM336.97 270.043V274.594H337.37V270.043H336.97ZM337.17 268.862H340.111V268.462H337.17V268.862ZM340.111 268.862C340.615 268.862 341.076 268.763 341.49 268.56L341.314 268.201C340.961 268.374 340.561 268.462 340.111 268.462V268.862ZM341.489 268.561C341.907 268.358 342.242 268.071 342.489 267.699L342.156 267.478C341.951 267.787 341.672 268.028 341.315 268.201L341.489 268.561ZM342.488 267.7C342.743 267.322 342.868 266.882 342.868 266.386H342.468C342.468 266.812 342.362 267.172 342.157 267.476L342.488 267.7ZM342.868 266.386C342.868 265.759 342.647 265.22 342.208 264.781L341.925 265.064C342.288 265.426 342.468 265.863 342.468 266.386H342.868ZM342.209 264.782C341.755 264.323 341.057 264.115 340.162 264.115V264.515C341.005 264.515 341.577 264.712 341.925 265.063L342.209 264.782ZM340.162 264.115H337.17V264.515H340.162V264.115ZM336.97 264.315V268.662H337.37V264.315H336.97ZM348.283 275.879L348.198 276.06L348.199 276.06L348.283 275.879ZM347.075 274.849L346.908 274.96L346.909 274.96L347.075 274.849ZM346.96 271.845L347.129 271.952L347.129 271.951L346.96 271.845ZM349.076 270.567L349.118 270.762L349.12 270.762L349.076 270.567ZM350.437 270.324L350.412 270.125L350.411 270.126L350.437 270.324ZM351.888 270.151L351.909 270.35L351.911 270.35L351.888 270.151ZM352.706 269.94L352.608 269.766L352.607 269.767L352.706 269.94ZM352.451 267.908L352.307 268.047L352.308 268.048L352.451 267.908ZM349.203 267.857L349.326 268.015L349.326 268.015L349.203 267.857ZM348.341 268.866L348.273 269.055L348.445 269.116L348.522 268.951L348.341 268.866ZM346.909 268.355L346.725 268.276L346.641 268.472L346.841 268.543L346.909 268.355ZM347.931 266.962L348.054 267.119L348.055 267.119L347.931 266.962ZM349.338 266.259L349.388 266.452L349.389 266.452L349.338 266.259ZM351.933 266.169L351.896 266.366L351.898 266.366L351.933 266.169ZM353.128 266.623L353.025 266.794L353.026 266.795L353.128 266.623ZM354.093 267.665L353.918 267.761L353.918 267.761L354.093 267.665ZM354.477 276V276.2H354.677V276H354.477ZM352.968 276H352.768V276.2H352.968V276ZM352.968 274.67H353.168V274.47H352.968V274.67ZM352.892 274.67V274.47H352.766L352.711 274.584L352.892 274.67ZM352.38 275.354L352.523 275.495L352.523 275.495L352.38 275.354ZM351.428 275.974L351.349 275.791L351.349 275.791L351.428 275.974ZM351.716 274.523L351.617 274.349L351.616 274.35L351.716 274.523ZM352.649 273.616L352.475 273.516L352.475 273.518L352.649 273.616ZM352.968 271.065H353.168V270.513L352.815 270.937L352.968 271.065ZM352.547 271.276L352.6 271.469L352.603 271.468L352.547 271.276ZM351.805 271.436L351.835 271.634L351.838 271.633L351.805 271.436ZM350.993 271.551L351.016 271.75L351.019 271.749L350.993 271.551ZM350.36 271.628L350.386 271.826L350.387 271.826L350.36 271.628ZM349.261 271.877L349.324 272.067L349.325 272.067L349.261 271.877ZM348.443 272.382L348.296 272.246L348.296 272.246L348.443 272.382ZM348.718 274.479L348.604 274.643L348.606 274.645L348.718 274.479ZM349.977 276.03C349.38 276.03 348.845 275.918 348.367 275.697L348.199 276.06C348.735 276.308 349.329 276.43 349.977 276.43V276.03ZM348.368 275.698C347.893 275.474 347.519 275.154 347.241 274.738L346.909 274.96C347.228 275.439 347.659 275.806 348.198 276.06L348.368 275.698ZM347.242 274.739C346.969 274.326 346.827 273.82 346.827 273.213H346.427C346.427 273.884 346.584 274.47 346.908 274.96L347.242 274.739ZM346.827 273.213C346.827 272.675 346.934 272.26 347.129 271.952L346.791 271.738C346.543 272.129 346.427 272.626 346.427 273.213H346.827ZM347.129 271.951C347.332 271.627 347.603 271.374 347.943 271.19L347.753 270.838C347.352 271.055 347.031 271.356 346.79 271.739L347.129 271.951ZM347.943 271.19C348.296 270.999 348.688 270.856 349.118 270.762L349.033 270.371C348.569 270.473 348.142 270.628 347.753 270.838L347.943 271.19ZM349.12 270.762C349.566 270.661 350.013 270.581 350.463 270.522L350.411 270.126C349.949 270.186 349.489 270.268 349.031 270.372L349.12 270.762ZM350.463 270.522C351.058 270.446 351.54 270.388 351.909 270.35L351.868 269.952C351.494 269.991 351.009 270.049 350.412 270.125L350.463 270.522ZM351.911 270.35C352.292 270.307 352.599 270.233 352.806 270.114L352.607 269.767C352.473 269.844 352.234 269.911 351.866 269.953L351.911 270.35ZM352.804 270.115C353.056 269.973 353.168 269.726 353.168 269.429H352.768C352.768 269.618 352.706 269.711 352.608 269.766L352.804 270.115ZM353.168 269.429V269.378H352.768V269.429H353.168ZM353.168 269.378C353.168 268.71 352.985 268.164 352.593 267.767L352.308 268.048C352.607 268.35 352.768 268.784 352.768 269.378H353.168ZM352.594 267.768C352.202 267.366 351.623 267.184 350.897 267.184V267.584C351.561 267.584 352.018 267.75 352.307 268.047L352.594 267.768ZM350.897 267.184C350.15 267.184 349.537 267.347 349.081 267.698L349.326 268.015C349.688 267.735 350.204 267.584 350.897 267.584V267.184ZM349.081 267.698C348.654 268.027 348.342 268.388 348.159 268.782L348.522 268.951C348.671 268.629 348.934 268.317 349.326 268.015L349.081 267.698ZM348.408 268.678L346.976 268.167L346.841 268.543L348.273 269.055L348.408 268.678ZM347.093 268.434C347.338 267.862 347.66 267.427 348.054 267.119L347.808 266.804C347.351 267.161 346.991 267.655 346.725 268.276L347.093 268.434ZM348.055 267.119C348.464 266.799 348.909 266.577 349.388 266.452L349.287 266.065C348.753 266.204 348.259 266.451 347.808 266.804L348.055 267.119ZM349.389 266.452C349.885 266.32 350.37 266.254 350.846 266.254V265.854C350.333 265.854 349.813 265.925 349.286 266.065L349.389 266.452ZM350.846 266.254C351.146 266.254 351.495 266.291 351.896 266.366L351.97 265.972C351.552 265.894 351.177 265.854 350.846 265.854V266.254ZM351.898 266.366C352.286 266.434 352.661 266.576 353.025 266.794L353.231 266.451C352.828 266.209 352.406 266.049 351.967 265.972L351.898 266.366ZM353.026 266.795C353.378 267.004 353.677 267.322 353.918 267.761L354.269 267.568C353.999 267.078 353.654 266.702 353.23 266.451L353.026 266.795ZM353.918 267.761C354.152 268.185 354.277 268.77 354.277 269.531H354.677C354.677 268.732 354.546 268.073 354.269 267.568L353.918 267.761ZM354.277 269.531V276H354.677V269.531H354.277ZM354.477 275.8H352.968V276.2H354.477V275.8ZM353.168 276V274.67H352.768V276H353.168ZM352.968 274.47H352.892V274.87H352.968V274.47ZM352.711 274.584C352.622 274.771 352.467 274.981 352.238 275.214L352.523 275.495C352.771 275.242 352.957 274.997 353.072 274.757L352.711 274.584ZM352.238 275.214C352.021 275.434 351.727 275.628 351.349 275.791L351.507 276.158C351.921 275.98 352.262 275.76 352.523 275.495L352.238 275.214ZM351.349 275.791C350.984 275.948 350.529 276.03 349.977 276.03V276.43C350.567 276.43 351.079 276.342 351.507 276.158L351.349 275.791ZM350.207 275.075C350.829 275.075 351.369 274.953 351.815 274.697L351.616 274.35C351.244 274.563 350.778 274.675 350.207 274.675V275.075ZM351.814 274.697C352.255 274.447 352.594 274.12 352.823 273.714L352.475 273.518C352.286 273.853 352.002 274.131 351.617 274.349L351.814 274.697ZM352.822 273.715C353.052 273.316 353.168 272.892 353.168 272.446H352.768C352.768 272.819 352.672 273.174 352.475 273.516L352.822 273.715ZM353.168 272.446V271.065H352.768V272.446H353.168ZM352.815 270.937C352.808 270.946 352.784 270.968 352.726 270.997C352.669 271.025 352.592 271.054 352.49 271.084L352.603 271.468C352.718 271.434 352.82 271.397 352.904 271.354C352.987 271.313 353.065 271.262 353.122 271.193L352.815 270.937ZM352.493 271.084C352.288 271.141 352.048 271.193 351.772 271.239L351.838 271.633C352.124 271.586 352.379 271.531 352.6 271.469L352.493 271.084ZM351.775 271.238C351.499 271.281 351.23 271.319 350.968 271.353L351.019 271.749C351.285 271.715 351.557 271.677 351.835 271.634L351.775 271.238ZM350.97 271.352C350.71 271.382 350.498 271.408 350.334 271.43L350.387 271.826C350.547 271.805 350.757 271.78 351.016 271.75L350.97 271.352ZM350.335 271.43C349.931 271.482 349.551 271.568 349.197 271.688L349.325 272.067C349.652 271.956 350.006 271.876 350.386 271.826L350.335 271.43ZM349.198 271.687C348.835 271.807 348.531 271.992 348.296 272.246L348.59 272.518C348.772 272.321 349.014 272.169 349.324 272.067L349.198 271.687ZM348.296 272.246C348.049 272.514 347.936 272.87 347.936 273.29H348.336C348.336 272.942 348.428 272.693 348.59 272.518L348.296 272.246ZM347.936 273.29C347.936 273.871 348.155 274.333 348.604 274.643L348.832 274.314C348.504 274.088 348.336 273.757 348.336 273.29H347.936ZM348.606 274.645C349.039 274.936 349.577 275.075 350.207 275.075V274.675C349.635 274.675 349.181 274.549 348.829 274.313L348.606 274.645ZM358.841 275.553L358.732 275.72L358.732 275.72L358.841 275.553ZM357.32 268.502L357.14 268.415L357.14 268.416L357.32 268.502ZM358.867 266.706L358.976 266.874L358.976 266.873L358.867 266.706ZM364.421 267.511L364.58 267.389L364.58 267.389L364.421 267.511ZM365.08 269.122V269.322H365.309L365.278 269.095L365.08 269.122ZM363.571 269.122L363.378 269.172L363.416 269.322H363.571V269.122ZM362.804 267.933L362.671 268.083L362.673 268.084L362.804 267.933ZM359.672 267.869L359.786 268.034L359.786 268.034L359.672 267.869ZM358.643 269.154L358.46 269.073L358.46 269.073L358.643 269.154ZM358.637 273.072L358.452 273.151L358.453 273.152L358.637 273.072ZM359.659 274.383L359.544 274.546L359.544 274.547L359.659 274.383ZM362.286 274.645L362.208 274.461L362.208 274.461L362.286 274.645ZM363.098 274.057L363.249 274.188L363.249 274.188L363.098 274.057ZM363.571 273.136V272.936H363.417L363.378 273.086L363.571 273.136ZM365.08 273.136L365.278 273.165L365.311 272.936H365.08V273.136ZM364.447 274.702L364.285 274.585L364.285 274.585L364.447 274.702ZM363.124 275.802L363.212 275.981L363.213 275.981L363.124 275.802ZM361.219 276.005C360.331 276.005 359.578 275.795 358.951 275.385L358.732 275.72C359.434 276.179 360.266 276.405 361.219 276.405V276.005ZM358.951 275.385C358.319 274.972 357.831 274.403 357.488 273.671L357.126 273.841C357.499 274.636 358.034 275.264 358.732 275.72L358.951 275.385ZM357.488 273.671C357.144 272.939 356.97 272.098 356.97 271.142H356.57C356.57 272.147 356.754 273.048 357.126 273.841L357.488 273.671ZM356.97 271.142C356.97 270.17 357.149 269.32 357.5 268.589L357.14 268.416C356.758 269.21 356.57 270.12 356.57 271.142H356.97ZM357.5 268.589C357.856 267.852 358.348 267.282 358.976 266.874L358.757 266.538C358.064 266.99 357.525 267.618 357.14 268.415L357.5 268.589ZM358.976 266.873C359.605 266.462 360.341 266.254 361.193 266.254V265.854C360.273 265.854 359.458 266.08 358.757 266.539L358.976 266.873ZM361.193 266.254C361.859 266.254 362.452 266.377 362.976 266.619L363.144 266.256C362.56 265.987 361.909 265.854 361.193 265.854V266.254ZM362.976 266.619C363.502 266.862 363.93 267.2 364.263 267.633L364.58 267.389C364.205 266.902 363.725 266.524 363.144 266.256L362.976 266.619ZM364.263 267.633C364.594 268.064 364.801 268.568 364.882 269.15L365.278 269.095C365.188 268.449 364.956 267.879 364.58 267.389L364.263 267.633ZM365.08 268.922H363.571V269.322H365.08V268.922ZM363.765 269.072C363.638 268.58 363.358 268.15 362.936 267.782L362.673 268.084C363.043 268.406 363.274 268.769 363.378 269.172L363.765 269.072ZM362.937 267.784C362.5 267.394 361.919 267.209 361.219 267.209V267.609C361.848 267.609 362.325 267.774 362.671 268.083L362.937 267.784ZM361.219 267.209C360.594 267.209 360.038 267.373 359.558 267.705L359.786 268.034C360.193 267.752 360.668 267.609 361.219 267.609V267.209ZM359.559 267.705C359.085 268.031 358.72 268.49 358.46 269.073L358.826 269.236C359.06 268.71 359.381 268.313 359.786 268.034L359.559 267.705ZM358.46 269.073C358.204 269.654 358.079 270.328 358.079 271.091H358.479C358.479 270.371 358.597 269.754 358.826 269.235L358.46 269.073ZM358.079 271.091C358.079 271.87 358.201 272.558 358.452 273.151L358.821 272.994C358.595 272.462 358.479 271.829 358.479 271.091H358.079ZM358.453 273.152C358.708 273.743 359.071 274.211 359.544 274.546L359.775 274.22C359.37 273.933 359.051 273.527 358.82 272.993L358.453 273.152ZM359.544 274.547C360.025 274.884 360.586 275.049 361.219 275.049V274.649C360.659 274.649 360.18 274.504 359.774 274.219L359.544 274.547ZM361.219 275.049C361.634 275.049 362.017 274.977 362.365 274.829L362.208 274.461C361.916 274.585 361.587 274.649 361.219 274.649V275.049ZM362.365 274.829C362.712 274.681 363.007 274.467 363.249 274.188L362.947 273.926C362.746 274.158 362.5 274.336 362.208 274.461L362.365 274.829ZM363.249 274.188C363.493 273.907 363.664 273.572 363.765 273.187L363.378 273.086C363.291 273.417 363.147 273.695 362.947 273.926L363.249 274.188ZM363.571 273.336H365.08V272.936H363.571V273.336ZM364.882 273.107C364.801 273.656 364.602 274.147 364.285 274.585L364.609 274.82C364.965 274.329 365.188 273.776 365.278 273.165L364.882 273.107ZM364.285 274.585C363.973 275.017 363.558 275.363 363.035 275.623L363.213 275.981C363.789 275.695 364.256 275.308 364.609 274.82L364.285 274.585ZM363.035 275.622C362.522 275.875 361.919 276.005 361.219 276.005V276.405C361.968 276.405 362.634 276.266 363.212 275.981L363.035 275.622ZM368.691 272.42L368.491 272.423L368.497 272.873L368.827 272.567L368.691 272.42ZM368.666 270.554V270.354H368.463L368.466 270.557L368.666 270.554ZM368.972 270.554V270.754H369.056L369.115 270.694L368.972 270.554ZM373.268 266.182V265.982H373.184L373.125 266.042L373.268 266.182ZM375.134 266.182L375.277 266.322L375.613 265.982H375.134V266.182ZM370.558 270.81V271.01H370.641L370.7 270.95L370.558 270.81ZM370.43 270.81V270.61H370.351L370.294 270.663L370.43 270.81ZM367.285 276H367.085V276.2H367.285V276ZM367.285 262.909V262.709H367.085V262.909H367.285ZM368.794 262.909H368.994V262.709H368.794V262.909ZM368.794 276V276.2H368.994V276H368.794ZM373.524 276L373.367 276.124L373.427 276.2H373.524V276ZM369.688 271.142L369.549 270.999L369.42 271.125L369.531 271.266L369.688 271.142ZM370.762 270.094L370.919 269.97L370.781 269.796L370.623 269.951L370.762 270.094ZM375.441 276V276.2H375.855L375.598 275.876L375.441 276ZM368.891 272.418L368.866 270.551L368.466 270.557L368.491 272.423L368.891 272.418ZM368.666 270.754H368.972V270.354H368.666V270.754ZM369.115 270.694L373.411 266.322L373.125 266.042L368.83 270.414L369.115 270.694ZM373.268 266.382H375.134V265.982H373.268V266.382ZM374.992 266.041L370.416 270.669L370.7 270.95L375.277 266.322L374.992 266.041ZM370.558 270.61H370.43V271.01H370.558V270.61ZM370.294 270.663L368.555 272.274L368.827 272.567L370.566 270.956L370.294 270.663ZM367.485 276V262.909H367.085V276H367.485ZM367.285 263.109H368.794V262.709H367.285V263.109ZM368.594 262.909V276H368.994V262.909H368.594ZM368.794 275.8H367.285V276.2H368.794V275.8ZM373.681 275.876L369.845 271.018L369.531 271.266L373.367 276.124L373.681 275.876ZM369.828 271.285L370.902 270.237L370.623 269.951L369.549 270.999L369.828 271.285ZM370.605 270.218L375.284 276.124L375.598 275.876L370.919 269.97L370.605 270.218ZM375.441 275.8H373.524V276.2H375.441V275.8ZM381.704 262.295L381.897 262.347L381.965 262.095H381.704V262.295ZM377.485 277.969V278.169H377.638L377.678 278.021L377.485 277.969ZM376.104 277.969L375.911 277.917L375.843 278.169H376.104V277.969ZM380.323 262.295V262.095H380.17L380.13 262.243L380.323 262.295ZM381.511 262.243L377.292 277.917L377.678 278.021L381.897 262.347L381.511 262.243ZM377.485 277.769H376.104V278.169H377.485V277.769ZM376.298 278.021L380.516 262.347L380.13 262.243L375.911 277.917L376.298 278.021ZM380.323 262.495H381.704V262.095H380.323V262.495ZM382.981 264.315H382.781V264.515H382.981V264.315ZM382.981 262.909V262.709H382.781V262.909H382.981ZM392.799 262.909H392.999V262.709H392.799V262.909ZM392.799 264.315V264.515H392.999V264.315H392.799ZM388.682 264.315V264.115H388.482V264.315H388.682ZM388.682 276V276.2H388.882V276H388.682ZM387.097 276H386.897V276.2H387.097V276ZM387.097 264.315H387.297V264.115H387.097V264.315ZM383.181 264.315V262.909H382.781V264.315H383.181ZM382.981 263.109H392.799V262.709H382.981V263.109ZM392.599 262.909V264.315H392.999V262.909H392.599ZM392.799 264.115H388.682V264.515H392.799V264.115ZM388.482 264.315V276H388.882V264.315H388.482ZM388.682 275.8H387.097V276.2H388.682V275.8ZM387.297 276V264.315H386.897V276H387.297ZM387.097 264.115H382.981V264.515H387.097V264.115ZM394.9 275.879L394.815 276.06L394.816 276.06L394.9 275.879ZM393.692 274.849L393.525 274.96L393.526 274.96L393.692 274.849ZM393.577 271.845L393.746 271.952L393.747 271.951L393.577 271.845ZM395.693 270.567L395.736 270.762L395.737 270.762L395.693 270.567ZM397.054 270.324L397.029 270.125L397.028 270.126L397.054 270.324ZM398.505 270.151L398.526 270.35L398.528 270.35L398.505 270.151ZM399.324 269.94L399.226 269.766L399.224 269.767L399.324 269.94ZM399.068 267.908L398.925 268.047L398.926 268.048L399.068 267.908ZM395.821 267.857L395.943 268.015L395.943 268.015L395.821 267.857ZM394.958 268.866L394.89 269.055L395.062 269.116L395.139 268.951L394.958 268.866ZM393.526 268.355L393.342 268.276L393.258 268.472L393.459 268.543L393.526 268.355ZM394.549 266.962L394.672 267.119L394.672 267.119L394.549 266.962ZM395.955 266.259L396.005 266.452L396.006 266.452L395.955 266.259ZM398.55 266.169L398.513 266.366L398.516 266.366L398.55 266.169ZM399.745 266.623L399.642 266.794L399.643 266.795L399.745 266.623ZM400.711 267.665L400.535 267.761L400.535 267.761L400.711 267.665ZM401.094 276V276.2H401.294V276H401.094ZM399.586 276H399.386V276.2H399.586V276ZM399.586 274.67H399.786V274.47H399.586V274.67ZM399.509 274.67V274.47H399.383L399.329 274.584L399.509 274.67ZM398.998 275.354L399.14 275.495L399.14 275.495L398.998 275.354ZM398.045 275.974L397.966 275.791L397.966 275.791L398.045 275.974ZM398.333 274.523L398.234 274.349L398.233 274.35L398.333 274.523ZM399.266 273.616L399.093 273.516L399.092 273.518L399.266 273.616ZM399.586 271.065H399.786V270.513L399.432 270.937L399.586 271.065ZM399.164 271.276L399.218 271.469L399.22 271.468L399.164 271.276ZM398.422 271.436L398.453 271.634L398.455 271.633L398.422 271.436ZM397.61 271.551L397.633 271.75L397.636 271.749L397.61 271.551ZM396.978 271.628L397.003 271.826L397.004 271.826L396.978 271.628ZM395.878 271.877L395.941 272.067L395.942 272.067L395.878 271.877ZM395.06 272.382L394.913 272.246L394.913 272.246L395.06 272.382ZM395.335 274.479L395.221 274.643L395.223 274.645L395.335 274.479ZM396.594 276.03C395.998 276.03 395.462 275.918 394.984 275.697L394.816 276.06C395.353 276.308 395.946 276.43 396.594 276.43V276.03ZM394.985 275.698C394.51 275.474 394.136 275.154 393.859 274.738L393.526 274.96C393.845 275.439 394.276 275.806 394.815 276.06L394.985 275.698ZM393.859 274.739C393.586 274.326 393.445 273.82 393.445 273.213H393.045C393.045 273.884 393.202 274.47 393.525 274.96L393.859 274.739ZM393.445 273.213C393.445 272.675 393.551 272.26 393.746 271.952L393.408 271.738C393.16 272.129 393.045 272.626 393.045 273.213H393.445ZM393.747 271.951C393.95 271.627 394.22 271.374 394.561 271.19L394.37 270.838C393.97 271.055 393.648 271.356 393.408 271.739L393.747 271.951ZM394.561 271.19C394.914 270.999 395.305 270.856 395.736 270.762L395.65 270.371C395.186 270.473 394.759 270.628 394.37 270.838L394.561 271.19ZM395.737 270.762C396.183 270.661 396.63 270.581 397.08 270.522L397.028 270.126C396.566 270.186 396.106 270.268 395.649 270.372L395.737 270.762ZM397.08 270.522C397.676 270.446 398.157 270.388 398.526 270.35L398.485 269.952C398.112 269.991 397.626 270.049 397.029 270.125L397.08 270.522ZM398.528 270.35C398.91 270.307 399.216 270.233 399.423 270.114L399.224 269.767C399.09 269.844 398.851 269.911 398.483 269.953L398.528 270.35ZM399.421 270.115C399.674 269.973 399.786 269.726 399.786 269.429H399.386C399.386 269.618 399.323 269.711 399.226 269.766L399.421 270.115ZM399.786 269.429V269.378H399.386V269.429H399.786ZM399.786 269.378C399.786 268.71 399.602 268.164 399.21 267.767L398.926 268.048C399.224 268.35 399.386 268.784 399.386 269.378H399.786ZM399.211 267.768C398.819 267.366 398.24 267.184 397.515 267.184V267.584C398.178 267.584 398.635 267.75 398.925 268.047L399.211 267.768ZM397.515 267.184C396.767 267.184 396.154 267.347 395.699 267.698L395.943 268.015C396.305 267.735 396.821 267.584 397.515 267.584V267.184ZM395.699 267.698C395.272 268.027 394.96 268.388 394.776 268.782L395.139 268.951C395.288 268.629 395.552 268.317 395.943 268.015L395.699 267.698ZM395.025 268.678L393.593 268.167L393.459 268.543L394.89 269.055L395.025 268.678ZM393.71 268.434C393.955 267.862 394.277 267.427 394.672 267.119L394.426 266.804C393.968 267.161 393.608 267.655 393.342 268.276L393.71 268.434ZM394.672 267.119C395.082 266.799 395.526 266.577 396.005 266.452L395.904 266.065C395.37 266.204 394.876 266.451 394.425 266.804L394.672 267.119ZM396.006 266.452C396.502 266.32 396.988 266.254 397.463 266.254V265.854C396.951 265.854 396.43 265.925 395.903 266.065L396.006 266.452ZM397.463 266.254C397.763 266.254 398.113 266.291 398.513 266.366L398.587 265.972C398.169 265.894 397.794 265.854 397.463 265.854V266.254ZM398.516 266.366C398.903 266.434 399.279 266.576 399.642 266.794L399.848 266.451C399.445 266.209 399.024 266.049 398.585 265.972L398.516 266.366ZM399.643 266.795C399.995 267.004 400.294 267.322 400.535 267.761L400.886 267.568C400.616 267.078 400.271 266.702 399.847 266.451L399.643 266.795ZM400.535 267.761C400.769 268.185 400.894 268.77 400.894 269.531H401.294C401.294 268.732 401.164 268.073 400.886 267.568L400.535 267.761ZM400.894 269.531V276H401.294V269.531H400.894ZM401.094 275.8H399.586V276.2H401.094V275.8ZM399.786 276V274.67H399.386V276H399.786ZM399.586 274.47H399.509V274.87H399.586V274.47ZM399.329 274.584C399.239 274.771 399.084 274.981 398.855 275.214L399.14 275.495C399.388 275.242 399.574 274.997 399.689 274.757L399.329 274.584ZM398.855 275.214C398.639 275.434 398.345 275.628 397.966 275.791L398.124 276.158C398.538 275.98 398.879 275.76 399.14 275.495L398.855 275.214ZM397.966 275.791C397.601 275.948 397.146 276.03 396.594 276.03V276.43C397.184 276.43 397.696 276.342 398.124 276.158L397.966 275.791ZM396.824 275.075C397.447 275.075 397.986 274.953 398.432 274.697L398.233 274.35C397.862 274.563 397.395 274.675 396.824 274.675V275.075ZM398.431 274.697C398.873 274.447 399.212 274.12 399.44 273.714L399.092 273.518C398.903 273.853 398.62 274.131 398.234 274.349L398.431 274.697ZM399.439 273.715C399.669 273.316 399.786 272.892 399.786 272.446H399.386C399.386 272.819 399.289 273.174 399.093 273.516L399.439 273.715ZM399.786 272.446V271.065H399.386V272.446H399.786ZM399.432 270.937C399.425 270.946 399.401 270.968 399.343 270.997C399.287 271.025 399.209 271.054 399.107 271.084L399.22 271.468C399.336 271.434 399.437 271.397 399.522 271.354C399.604 271.313 399.682 271.262 399.739 271.193L399.432 270.937ZM399.11 271.084C398.905 271.141 398.665 271.193 398.389 271.239L398.455 271.633C398.742 271.586 398.996 271.531 399.218 271.469L399.11 271.084ZM398.392 271.238C398.116 271.281 397.847 271.319 397.585 271.353L397.636 271.749C397.902 271.715 398.174 271.677 398.453 271.634L398.392 271.238ZM397.588 271.352C397.327 271.382 397.115 271.408 396.952 271.43L397.004 271.826C397.164 271.805 397.374 271.78 397.633 271.75L397.588 271.352ZM396.952 271.43C396.548 271.482 396.169 271.568 395.814 271.688L395.942 272.067C396.27 271.956 396.623 271.876 397.003 271.826L396.952 271.43ZM395.816 271.687C395.452 271.807 395.148 271.992 394.913 272.246L395.207 272.518C395.389 272.321 395.631 272.169 395.941 272.067L395.816 271.687ZM394.913 272.246C394.666 272.514 394.553 272.87 394.553 273.29H394.953C394.953 272.942 395.045 272.693 395.207 272.518L394.913 272.246ZM394.553 273.29C394.553 273.871 394.773 274.333 395.221 274.643L395.449 274.314C395.122 274.088 394.953 273.757 394.953 273.29H394.553ZM395.223 274.645C395.656 274.936 396.194 275.075 396.824 275.075V274.675C396.252 274.675 395.798 274.549 395.447 274.313L395.223 274.645ZM403.847 276H403.647V276.2H403.847V276ZM403.847 266.182V265.982H403.647V266.182H403.847ZM405.356 266.182H405.556V265.982H405.356V266.182ZM405.356 276V276.2H405.556V276H405.356ZM403.854 264.245L403.715 264.389L403.717 264.391L403.854 264.245ZM403.854 262.8L403.717 262.655L403.715 262.656L403.854 262.8ZM405.369 262.8L405.23 262.945L405.232 262.946L405.369 262.8ZM405.369 264.245L405.232 264.099L405.23 264.101L405.369 264.245ZM404.047 276V266.182H403.647V276H404.047ZM403.847 266.382H405.356V265.982H403.847V266.382ZM405.156 266.182V276H405.556V266.182H405.156ZM405.356 275.8H403.847V276.2H405.356V275.8ZM404.615 264.345C404.371 264.345 404.167 264.265 403.991 264.099L403.717 264.391C403.967 264.626 404.27 264.745 404.615 264.745V264.345ZM403.992 264.101C403.822 263.937 403.741 263.748 403.741 263.523H403.341C403.341 263.86 403.469 264.153 403.715 264.389L403.992 264.101ZM403.741 263.523C403.741 263.298 403.822 263.109 403.992 262.945L403.715 262.656C403.469 262.893 403.341 263.185 403.341 263.523H403.741ZM403.991 262.946C404.167 262.781 404.371 262.7 404.615 262.7V262.3C404.27 262.3 403.967 262.419 403.717 262.655L403.991 262.946ZM404.615 262.7C404.858 262.7 405.059 262.781 405.23 262.945L405.507 262.656C405.261 262.419 404.959 262.3 404.615 262.3V262.7ZM405.232 262.946C405.406 263.11 405.488 263.299 405.488 263.523H405.888C405.888 263.184 405.757 262.891 405.506 262.655L405.232 262.946ZM405.488 263.523C405.488 263.746 405.406 263.935 405.232 264.099L405.506 264.391C405.757 264.154 405.888 263.862 405.888 263.523H405.488ZM405.23 264.101C405.059 264.265 404.858 264.345 404.615 264.345V264.745C404.959 264.745 405.261 264.626 405.507 264.389L405.23 264.101ZM409.627 262.909H409.827V262.709H409.627V262.909ZM409.627 276V276.2H409.827V276H409.627ZM408.119 276H407.919V276.2H408.119V276ZM408.119 262.909V262.709H407.919V262.909H408.119ZM409.427 262.909V276H409.827V262.909H409.427ZM409.627 275.8H408.119V276.2H409.627V275.8ZM408.319 276V262.909H407.919V276H408.319ZM408.119 263.109H409.627V262.709H408.119V263.109Z" fill="black"/>
<path d="M286.585 17V3.90909H294.435V5.31534H288.17V9.73864H293.847V11.1449H288.17V17H286.585ZM296.84 17V7.18182H298.297V8.66477H298.399C298.578 8.17898 298.902 7.7848 299.371 7.48224C299.84 7.17969 300.368 7.02841 300.956 7.02841C301.067 7.02841 301.205 7.03054 301.372 7.0348C301.538 7.03906 301.664 7.04545 301.749 7.05398V8.58807C301.698 8.57528 301.58 8.55611 301.397 8.53054C301.218 8.50071 301.029 8.4858 300.828 8.4858C300.351 8.4858 299.925 8.58594 299.55 8.78622C299.179 8.98224 298.885 9.25497 298.668 9.6044C298.455 9.94957 298.348 10.3437 298.348 10.7869V17H296.84ZM307.227 17.2045C306.34 17.2045 305.563 16.9936 304.894 16.5717C304.229 16.1499 303.709 15.5597 303.334 14.8011C302.963 14.0426 302.778 13.1562 302.778 12.142C302.778 11.1193 302.963 10.2266 303.334 9.46378C303.709 8.70099 304.229 8.10866 304.894 7.68679C305.563 7.26491 306.34 7.05398 307.227 7.05398C308.113 7.05398 308.889 7.26491 309.553 7.68679C310.222 8.10866 310.742 8.70099 311.113 9.46378C311.488 10.2266 311.676 11.1193 311.676 12.142C311.676 13.1562 311.488 14.0426 311.113 14.8011C310.742 15.5597 310.222 16.1499 309.553 16.5717C308.889 16.9936 308.113 17.2045 307.227 17.2045ZM307.227 15.8494C307.9 15.8494 308.454 15.6768 308.889 15.3317C309.323 14.9865 309.645 14.5327 309.854 13.9702C310.063 13.4077 310.167 12.7983 310.167 12.142C310.167 11.4858 310.063 10.8743 309.854 10.3075C309.645 9.74077 309.323 9.28267 308.889 8.93324C308.454 8.58381 307.9 8.40909 307.227 8.40909C306.553 8.40909 305.999 8.58381 305.565 8.93324C305.13 9.28267 304.808 9.74077 304.6 10.3075C304.391 10.8743 304.286 11.4858 304.286 12.142C304.286 12.7983 304.391 13.4077 304.6 13.9702C304.808 14.5327 305.13 14.9865 305.565 15.3317C305.999 15.6768 306.553 15.8494 307.227 15.8494ZM315.487 11.0938V17H313.978V7.18182H315.436V8.71591H315.564C315.794 8.21733 316.143 7.81676 316.612 7.5142C317.081 7.20739 317.686 7.05398 318.427 7.05398C319.092 7.05398 319.674 7.19034 320.172 7.46307C320.671 7.73153 321.059 8.14062 321.336 8.69034C321.613 9.2358 321.751 9.92614 321.751 10.7614V17H320.243V10.8636C320.243 10.0923 320.042 9.49148 319.642 9.06108C319.241 8.62642 318.691 8.40909 317.993 8.40909C317.511 8.40909 317.081 8.51349 316.701 8.7223C316.326 8.93111 316.03 9.2358 315.813 9.63636C315.596 10.0369 315.487 10.5227 315.487 11.0938ZM328.778 7.18182V8.46023H323.689V7.18182H328.778ZM325.172 4.82955H326.681V14.1875C326.681 14.6136 326.743 14.9332 326.866 15.1463C326.994 15.3551 327.156 15.4957 327.352 15.5682C327.552 15.6364 327.763 15.6705 327.985 15.6705C328.151 15.6705 328.287 15.6619 328.394 15.6449C328.501 15.6236 328.586 15.6065 328.65 15.5938L328.956 16.9489C328.854 16.9872 328.711 17.0256 328.528 17.0639C328.345 17.1065 328.113 17.1278 327.831 17.1278C327.405 17.1278 326.988 17.0362 326.579 16.853C326.174 16.6697 325.837 16.3906 325.569 16.0156C325.305 15.6406 325.172 15.1676 325.172 14.5966V4.82955ZM335.675 3.29545L331.456 18.9688H330.075L334.294 3.29545H335.675ZM337.667 17V3.90909H339.252V9.73864H346.233V3.90909H347.818V17H346.233V11.1449H339.252V17H337.667ZM354.903 17.2045C353.957 17.2045 353.141 16.9957 352.455 16.5781C351.773 16.1562 351.247 15.5682 350.876 14.8139C350.51 14.0554 350.327 13.1733 350.327 12.1676C350.327 11.1619 350.51 10.2756 350.876 9.50852C351.247 8.73722 351.763 8.13636 352.423 7.70597C353.088 7.27131 353.864 7.05398 354.75 7.05398C355.261 7.05398 355.766 7.1392 356.265 7.30966C356.763 7.48011 357.217 7.7571 357.626 8.14062C358.036 8.51989 358.362 9.02273 358.604 9.64915C358.847 10.2756 358.969 11.0469 358.969 11.9631V12.6023H351.401V11.2983H357.435C357.435 10.7443 357.324 10.25 357.102 9.81534C356.885 9.38068 356.574 9.03764 356.169 8.78622C355.768 8.5348 355.295 8.40909 354.75 8.40909C354.149 8.40909 353.629 8.55824 353.19 8.85653C352.756 9.15057 352.421 9.53409 352.187 10.0071C351.952 10.4801 351.835 10.9872 351.835 11.5284V12.3977C351.835 13.1392 351.963 13.7678 352.219 14.2834C352.479 14.7947 352.839 15.1847 353.299 15.4531C353.759 15.7173 354.294 15.8494 354.903 15.8494C355.3 15.8494 355.658 15.794 355.977 15.6832C356.301 15.5682 356.58 15.3977 356.815 15.1719C357.049 14.9418 357.23 14.6562 357.358 14.3153L358.815 14.7244C358.662 15.2188 358.404 15.6534 358.042 16.0284C357.68 16.3991 357.232 16.6889 356.7 16.8977C356.167 17.1023 355.568 17.2045 354.903 17.2045ZM364.153 17.2301C363.531 17.2301 362.966 17.1129 362.459 16.8786C361.952 16.6399 361.549 16.2969 361.251 15.8494C360.952 15.3977 360.803 14.8523 360.803 14.2131C360.803 13.6506 360.914 13.1946 361.136 12.8452C361.357 12.4915 361.653 12.2145 362.024 12.0142C362.395 11.8139 362.804 11.6648 363.251 11.5668C363.703 11.4645 364.157 11.3835 364.613 11.3239C365.21 11.2472 365.693 11.1896 366.064 11.1513C366.439 11.1087 366.712 11.0384 366.882 10.9403C367.057 10.8423 367.144 10.6719 367.144 10.429V10.3778C367.144 9.74716 366.972 9.2571 366.626 8.90767C366.286 8.55824 365.768 8.38352 365.073 8.38352C364.353 8.38352 363.788 8.54119 363.379 8.85653C362.97 9.17187 362.683 9.50852 362.516 9.86648L361.085 9.35511C361.34 8.75852 361.681 8.29403 362.107 7.96165C362.538 7.625 363.006 7.39062 363.513 7.25852C364.025 7.12216 364.528 7.05398 365.022 7.05398C365.337 7.05398 365.7 7.09233 366.109 7.16903C366.522 7.24148 366.92 7.39276 367.304 7.62287C367.692 7.85298 368.013 8.20028 368.269 8.66477C368.525 9.12926 368.653 9.75142 368.653 10.5312V17H367.144V15.6705H367.067C366.965 15.8835 366.795 16.1115 366.556 16.3544C366.317 16.5973 366 16.804 365.604 16.9744C365.207 17.1449 364.724 17.2301 364.153 17.2301ZM364.383 15.875C364.979 15.875 365.482 15.7578 365.891 15.5234C366.305 15.2891 366.616 14.9865 366.825 14.6158C367.038 14.245 367.144 13.8551 367.144 13.446V12.0653C367.08 12.142 366.94 12.2124 366.722 12.2763C366.509 12.3359 366.262 12.3892 365.981 12.4361C365.704 12.4787 365.433 12.517 365.169 12.5511C364.909 12.581 364.698 12.6065 364.536 12.6278C364.144 12.679 363.778 12.7621 363.437 12.8771C363.1 12.9879 362.827 13.1562 362.619 13.3821C362.414 13.6037 362.312 13.9062 362.312 14.2898C362.312 14.8139 362.506 15.2102 362.893 15.4787C363.286 15.7429 363.782 15.875 364.383 15.875ZM375.113 17.2045C374.295 17.2045 373.573 16.9979 372.947 16.5845C372.32 16.1669 371.83 15.5788 371.476 14.8203C371.123 14.0575 370.946 13.1562 370.946 12.1165C370.946 11.0852 371.123 10.1903 371.476 9.43182C371.83 8.6733 372.322 8.08736 372.953 7.67401C373.584 7.26065 374.312 7.05398 375.139 7.05398C375.778 7.05398 376.283 7.16051 376.654 7.37358C377.029 7.58239 377.314 7.82102 377.51 8.08949C377.711 8.35369 377.866 8.57102 377.977 8.74148H378.105V3.90909H379.613V17H378.156V15.4915H377.977C377.866 15.6705 377.709 15.8963 377.504 16.169C377.3 16.4375 377.008 16.6783 376.628 16.8913C376.249 17.1001 375.744 17.2045 375.113 17.2045ZM375.318 15.8494C375.923 15.8494 376.434 15.6918 376.852 15.3764C377.27 15.0568 377.587 14.6158 377.805 14.0533C378.022 13.4865 378.131 12.8324 378.131 12.0909C378.131 11.358 378.024 10.7166 377.811 10.1669C377.598 9.61293 377.282 9.18253 376.865 8.87571C376.447 8.56463 375.932 8.40909 375.318 8.40909C374.679 8.40909 374.146 8.57315 373.72 8.90128C373.298 9.22514 372.981 9.66619 372.768 10.2244C372.559 10.7784 372.454 11.4006 372.454 12.0909C372.454 12.7898 372.561 13.4247 372.774 13.9957C372.991 14.5625 373.311 15.0142 373.733 15.3509C374.159 15.6832 374.687 15.8494 375.318 15.8494Z" fill="white"/>
<path d="M286.585 17H286.385V17.2H286.585V17ZM286.585 3.90909V3.70909H286.385V3.90909H286.585ZM294.435 3.90909H294.635V3.70909H294.435V3.90909ZM294.435 5.31534V5.51534H294.635V5.31534H294.435ZM288.17 5.31534V5.11534H287.97V5.31534H288.17ZM288.17 9.73864H287.97V9.93864H288.17V9.73864ZM293.847 9.73864H294.047V9.53864H293.847V9.73864ZM293.847 11.1449V11.3449H294.047V11.1449H293.847ZM288.17 11.1449V10.9449H287.97V11.1449H288.17ZM288.17 17V17.2H288.37V17H288.17ZM286.785 17V3.90909H286.385V17H286.785ZM286.585 4.10909H294.435V3.70909H286.585V4.10909ZM294.235 3.90909V5.31534H294.635V3.90909H294.235ZM294.435 5.11534H288.17V5.51534H294.435V5.11534ZM287.97 5.31534V9.73864H288.37V5.31534H287.97ZM288.17 9.93864H293.847V9.53864H288.17V9.93864ZM293.647 9.73864V11.1449H294.047V9.73864H293.647ZM293.847 10.9449H288.17V11.3449H293.847V10.9449ZM287.97 11.1449V17H288.37V11.1449H287.97ZM288.17 16.8H286.585V17.2H288.17V16.8ZM296.84 17H296.64V17.2H296.84V17ZM296.84 7.18182V6.98182H296.64V7.18182H296.84ZM298.297 7.18182H298.497V6.98182H298.297V7.18182ZM298.297 8.66477H298.097V8.86477H298.297V8.66477ZM298.399 8.66477V8.86477H298.539L298.587 8.73391L298.399 8.66477ZM299.371 7.48224L299.262 7.31421L299.262 7.31421L299.371 7.48224ZM301.749 7.05398H301.949V6.87298L301.769 6.85497L301.749 7.05398ZM301.749 8.58807L301.7 8.7821L301.949 8.84422V8.58807H301.749ZM301.397 8.53054L301.364 8.72789L301.37 8.72862L301.397 8.53054ZM299.55 8.78622L299.643 8.96303L299.644 8.96264L299.55 8.78622ZM298.668 9.6044L298.498 9.49878L298.498 9.49935L298.668 9.6044ZM298.348 17V17.2H298.548V17H298.348ZM297.04 17V7.18182H296.64V17H297.04ZM296.84 7.38182H298.297V6.98182H296.84V7.38182ZM298.097 7.18182V8.66477H298.497V7.18182H298.097ZM298.297 8.86477H298.399V8.46477H298.297V8.86477ZM298.587 8.73391C298.75 8.29203 299.044 7.93127 299.479 7.65028L299.262 7.31421C298.76 7.63834 298.407 8.06593 298.212 8.59563L298.587 8.73391ZM299.479 7.65028C299.914 7.36974 300.404 7.22841 300.956 7.22841V6.82841C300.332 6.82841 299.765 6.98963 299.262 7.31421L299.479 7.65028ZM300.956 7.22841C301.065 7.22841 301.201 7.2305 301.366 7.23473L301.377 6.83487C301.21 6.83058 301.069 6.82841 300.956 6.82841V7.22841ZM301.366 7.23473C301.531 7.23896 301.651 7.24522 301.729 7.25298L301.769 6.85497C301.676 6.84569 301.544 6.83916 301.377 6.83487L301.366 7.23473ZM301.549 7.05398V8.58807H301.949V7.05398H301.549ZM301.797 8.39404C301.734 8.37815 301.605 8.35761 301.425 8.33246L301.37 8.72862C301.556 8.75461 301.662 8.77242 301.7 8.7821L301.797 8.39404ZM301.43 8.33326C301.239 8.30144 301.038 8.2858 300.828 8.2858V8.6858C301.019 8.6858 301.197 8.69998 301.364 8.72782L301.43 8.33326ZM300.828 8.2858C300.322 8.2858 299.863 8.39222 299.456 8.60981L299.644 8.96264C299.987 8.77966 300.38 8.6858 300.828 8.6858V8.2858ZM299.456 8.60941C299.055 8.82166 298.734 9.11868 298.498 9.49878L298.838 9.71003C299.036 9.39126 299.303 9.14283 299.643 8.96303L299.456 8.60941ZM298.498 9.49935C298.263 9.87899 298.148 10.3102 298.148 10.7869H298.548C298.548 10.3773 298.646 10.0202 298.838 9.70946L298.498 9.49935ZM298.148 10.7869V17H298.548V10.7869H298.148ZM298.348 16.8H296.84V17.2H298.348V16.8ZM304.894 16.5717L304.786 16.7406L304.787 16.7409L304.894 16.5717ZM303.334 14.8011L303.154 14.889L303.155 14.8898L303.334 14.8011ZM303.334 9.46378L303.154 9.37554L303.154 9.37635L303.334 9.46378ZM304.894 7.68679L304.787 7.51761L304.786 7.51792L304.894 7.68679ZM309.553 7.68679L309.446 7.85566L309.447 7.85596L309.553 7.68679ZM311.113 9.46378L310.933 9.55121L310.934 9.55202L311.113 9.46378ZM311.113 14.8011L310.934 14.7125L310.933 14.7133L311.113 14.8011ZM309.553 16.5717L309.447 16.4026L309.446 16.4029L309.553 16.5717ZM308.889 15.3317L308.764 15.1751L308.764 15.1751L308.889 15.3317ZM309.854 13.9702L310.041 14.0398L310.041 14.0398L309.854 13.9702ZM309.854 10.3075L310.042 10.2384L310.042 10.2384L309.854 10.3075ZM308.889 8.93324L309.014 8.77736L309.014 8.77736L308.889 8.93324ZM305.565 8.93324L305.439 8.77736L305.439 8.77736L305.565 8.93324ZM304.6 10.3075L304.412 10.2384L304.412 10.2384L304.6 10.3075ZM304.6 13.9702L304.412 14.0398L304.412 14.0398L304.6 13.9702ZM305.565 15.3317L305.689 15.1751L305.689 15.1751L305.565 15.3317ZM307.227 17.0045C306.373 17.0045 305.634 16.8019 305 16.4026L304.787 16.7409C305.492 17.1853 306.307 17.4045 307.227 17.4045V17.0045ZM305.001 16.4029C304.369 16.0021 303.873 15.4407 303.513 14.7125L303.155 14.8898C303.545 15.6786 304.088 16.2976 304.786 16.7406L305.001 16.4029ZM303.514 14.7133C303.159 13.9871 302.978 13.1319 302.978 12.142H302.578C302.578 13.1806 302.768 14.0981 303.154 14.889L303.514 14.7133ZM302.978 12.142C302.978 11.1435 303.159 10.2817 303.514 9.55121L303.154 9.37635C302.768 10.1714 302.578 11.0952 302.578 12.142H302.978ZM303.513 9.55202C303.874 8.81952 304.37 8.25625 305.001 7.85566L304.786 7.51792C304.088 7.96108 303.544 8.58247 303.155 9.37554L303.513 9.55202ZM305 7.85596C305.634 7.45659 306.373 7.25398 307.227 7.25398V6.85398C306.307 6.85398 305.492 7.07324 304.787 7.51762L305 7.85596ZM307.227 7.25398C308.08 7.25398 308.817 7.4566 309.446 7.85566L309.661 7.51792C308.96 7.07323 308.146 6.85398 307.227 6.85398V7.25398ZM309.447 7.85596C310.082 8.2565 310.578 8.81944 310.933 9.55121L311.293 9.37635C310.907 8.58255 310.363 7.96083 309.66 7.51762L309.447 7.85596ZM310.934 9.55202C311.293 10.2823 311.476 11.1438 311.476 12.142H311.876C311.876 11.0949 311.684 10.1708 311.293 9.37554L310.934 9.55202ZM311.476 12.142C311.476 13.1315 311.293 13.9865 310.934 14.7125L311.292 14.8898C311.683 14.0987 311.876 13.181 311.876 12.142H311.476ZM310.933 14.7133C310.578 15.4408 310.082 16.0018 309.447 16.4026L309.66 16.7409C310.363 16.2979 310.907 15.6785 311.293 14.889L310.933 14.7133ZM309.446 16.4029C308.817 16.8019 308.08 17.0045 307.227 17.0045V17.4045C308.146 17.4045 308.96 17.1853 309.661 16.7406L309.446 16.4029ZM307.227 16.0494C307.935 16.0494 308.536 15.8672 309.013 15.4883L308.764 15.1751C308.372 15.4865 307.865 15.6494 307.227 15.6494V16.0494ZM309.013 15.4883C309.479 15.1186 309.821 14.6336 310.041 14.0398L309.666 13.9006C309.469 14.4317 309.168 14.8544 308.764 15.1751L309.013 15.4883ZM310.041 14.0398C310.259 13.453 310.367 12.8198 310.367 12.142H309.967C309.967 12.7768 309.866 13.3623 309.666 13.9006L310.041 14.0398ZM310.367 12.142C310.367 11.4642 310.259 10.8291 310.042 10.2384L309.666 10.3767C309.866 10.9195 309.967 11.5073 309.967 12.142H310.367ZM310.042 10.2384C309.821 9.64052 309.479 9.15139 309.014 8.77736L308.763 9.08911C309.167 9.41395 309.469 9.84101 309.666 10.3767L310.042 10.2384ZM309.014 8.77736C308.537 8.39379 307.936 8.20909 307.227 8.20909V8.60909C307.864 8.60909 308.371 8.77382 308.763 9.08911L309.014 8.77736ZM307.227 8.20909C306.518 8.20909 305.917 8.39379 305.439 8.77736L305.69 9.08911C306.082 8.77382 306.589 8.60909 307.227 8.60909V8.20909ZM305.439 8.77736C304.974 9.15139 304.632 9.64052 304.412 10.2384L304.787 10.3767C304.985 9.84101 305.286 9.41395 305.69 9.08911L305.439 8.77736ZM304.412 10.2384C304.194 10.8291 304.086 11.4642 304.086 12.142H304.486C304.486 11.5073 304.587 10.9195 304.787 10.3767L304.412 10.2384ZM304.086 12.142C304.086 12.8198 304.194 13.453 304.412 14.0398L304.787 13.9006C304.587 13.3623 304.486 12.7768 304.486 12.142H304.086ZM304.412 14.0398C304.633 14.6336 304.975 15.1186 305.44 15.4883L305.689 15.1751C305.285 14.8544 304.984 14.4317 304.787 13.9006L304.412 14.0398ZM305.44 15.4883C305.918 15.8672 306.518 16.0494 307.227 16.0494V15.6494C306.589 15.6494 306.081 15.4865 305.689 15.1751L305.44 15.4883ZM315.487 17V17.2H315.687V17H315.487ZM313.978 17H313.778V17.2H313.978V17ZM313.978 7.18182V6.98182H313.778V7.18182H313.978ZM315.436 7.18182H315.636V6.98182H315.436V7.18182ZM315.436 8.71591H315.236V8.91591H315.436V8.71591ZM315.564 8.71591V8.91591H315.692L315.745 8.79972L315.564 8.71591ZM316.612 7.5142L316.72 7.68225L316.721 7.68155L316.612 7.5142ZM320.172 7.46307L320.076 7.63854L320.077 7.63916L320.172 7.46307ZM321.336 8.69034L321.157 8.78034L321.157 8.7809L321.336 8.69034ZM321.751 17V17.2H321.951V17H321.751ZM320.243 17H320.043V17.2H320.243V17ZM319.642 9.06108L319.495 9.19662L319.495 9.19734L319.642 9.06108ZM316.701 8.7223L316.605 8.5471L316.604 8.54756L316.701 8.7223ZM315.813 9.63636L315.637 9.54099L315.637 9.54099L315.813 9.63636ZM315.287 11.0938V17H315.687V11.0938H315.287ZM315.487 16.8H313.978V17.2H315.487V16.8ZM314.178 17V7.18182H313.778V17H314.178ZM313.978 7.38182H315.436V6.98182H313.978V7.38182ZM315.236 7.18182V8.71591H315.636V7.18182H315.236ZM315.436 8.91591H315.564V8.51591H315.436V8.91591ZM315.745 8.79972C315.959 8.33616 316.283 7.96458 316.72 7.68224L316.503 7.34617C316.003 7.66895 315.628 8.0985 315.382 8.6321L315.745 8.79972ZM316.721 7.68155C317.149 7.40192 317.712 7.25398 318.427 7.25398V6.85398C317.659 6.85398 317.013 7.01286 316.502 7.34686L316.721 7.68155ZM318.427 7.25398C319.064 7.25398 319.612 7.38444 320.076 7.63853L320.268 7.2876C319.736 6.99624 319.12 6.85398 318.427 6.85398V7.25398ZM320.077 7.63916C320.537 7.88649 320.897 8.26388 321.157 8.78034L321.514 8.60034C321.22 8.01737 320.805 7.57658 320.267 7.28697L320.077 7.63916ZM321.157 8.7809C321.416 9.28996 321.551 9.9467 321.551 10.7614H321.951C321.951 9.90558 321.809 9.18163 321.514 8.59978L321.157 8.7809ZM321.551 10.7614V17H321.951V10.7614H321.551ZM321.751 16.8H320.243V17.2H321.751V16.8ZM320.443 17V10.8636H320.043V17H320.443ZM320.443 10.8636C320.443 10.058 320.233 9.4026 319.788 8.92482L319.495 9.19734C319.852 9.58036 320.043 10.1267 320.043 10.8636H320.443ZM319.789 8.92554C319.343 8.44229 318.736 8.20909 317.993 8.20909V8.60909C318.647 8.60909 319.139 8.81055 319.495 9.19662L319.789 8.92554ZM317.993 8.20909C317.481 8.20909 317.017 8.32026 316.605 8.5471L316.798 8.8975C317.144 8.70673 317.541 8.60909 317.993 8.60909V8.20909ZM316.604 8.54756C316.194 8.776 315.871 9.10921 315.637 9.54099L315.989 9.73174C316.189 9.36238 316.459 9.08622 316.799 8.89704L316.604 8.54756ZM315.637 9.54099C315.4 9.97734 315.287 10.4977 315.287 11.0938H315.687C315.687 10.5478 315.791 10.0965 315.989 9.73174L315.637 9.54099ZM328.778 7.18182H328.978V6.98182H328.778V7.18182ZM328.778 8.46023V8.66023H328.978V8.46023H328.778ZM323.689 8.46023H323.489V8.66023H323.689V8.46023ZM323.689 7.18182V6.98182H323.489V7.18182H323.689ZM325.172 4.82955V4.62955H324.972V4.82955H325.172ZM326.681 4.82955H326.881V4.62955H326.681V4.82955ZM326.866 15.1463L326.693 15.2467L326.696 15.2507L326.866 15.1463ZM327.352 15.5682L327.283 15.7558L327.288 15.7575L327.352 15.5682ZM328.394 15.6449L328.426 15.8425L328.433 15.841L328.394 15.6449ZM328.65 15.5938L328.845 15.5496L328.802 15.3594L328.61 15.3976L328.65 15.5938ZM328.956 16.9489L329.027 17.1361L329.19 17.0749L329.152 16.9047L328.956 16.9489ZM328.528 17.0639L328.487 16.8681L328.483 16.8691L328.528 17.0639ZM326.579 16.853L326.496 17.0352L326.497 17.0355L326.579 16.853ZM325.569 16.0156L325.405 16.1308L325.406 16.132L325.569 16.0156ZM328.578 7.18182V8.46023H328.978V7.18182H328.578ZM328.778 8.26023H323.689V8.66023H328.778V8.26023ZM323.889 8.46023V7.18182H323.489V8.46023H323.889ZM323.689 7.38182H328.778V6.98182H323.689V7.38182ZM325.172 5.02955H326.681V4.62955H325.172V5.02955ZM326.481 4.82955V14.1875H326.881V4.82955H326.481ZM326.481 14.1875C326.481 14.6264 326.543 14.9882 326.693 15.2467L327.039 15.046C326.942 14.8782 326.881 14.6009 326.881 14.1875H326.481ZM326.696 15.2507C326.843 15.491 327.038 15.6652 327.283 15.7558L327.421 15.3806C327.274 15.3263 327.145 15.2192 327.037 15.0419L326.696 15.2507ZM327.288 15.7575C327.51 15.8331 327.742 15.8705 327.985 15.8705V15.4705C327.784 15.4705 327.595 15.4396 327.417 15.3789L327.288 15.7575ZM327.985 15.8705C328.157 15.8705 328.305 15.8617 328.426 15.8424L328.362 15.4474C328.27 15.4621 328.146 15.4705 327.985 15.4705V15.8705ZM328.433 15.841C328.54 15.8197 328.625 15.8027 328.689 15.7899L328.61 15.3976C328.547 15.4104 328.461 15.4275 328.355 15.4488L328.433 15.841ZM328.455 15.6379L328.761 16.993L329.152 16.9047L328.845 15.5496L328.455 15.6379ZM328.886 16.7616C328.798 16.7947 328.666 16.8306 328.487 16.8682L328.569 17.2597C328.756 17.2205 328.911 17.1797 329.027 17.1361L328.886 16.7616ZM328.483 16.8691C328.32 16.907 328.104 16.9278 327.831 16.9278V17.3278C328.121 17.3278 328.37 17.306 328.574 17.2587L328.483 16.8691ZM327.831 16.9278C327.435 16.9278 327.045 16.8428 326.66 16.6705L326.497 17.0355C326.93 17.2297 327.376 17.3278 327.831 17.3278V16.9278ZM326.661 16.6708C326.29 16.5026 325.98 16.2467 325.731 15.8992L325.406 16.132C325.694 16.5345 326.058 16.8369 326.496 17.0352L326.661 16.6708ZM325.732 15.9004C325.497 15.5666 325.372 15.1366 325.372 14.5966H324.972C324.972 15.1987 325.112 15.7146 325.405 16.1308L325.732 15.9004ZM325.372 14.5966V4.82955H324.972V14.5966H325.372ZM335.675 3.29545L335.868 3.34744L335.935 3.09545H335.675V3.29545ZM331.456 18.9688V19.1688H331.609L331.649 19.0207L331.456 18.9688ZM330.075 18.9688L329.882 18.9168L329.814 19.1688H330.075V18.9688ZM334.294 3.29545V3.09545H334.141L334.101 3.24347L334.294 3.29545ZM335.481 3.24347L331.263 18.9168L331.649 19.0207L335.868 3.34744L335.481 3.24347ZM331.456 18.7687H330.075V19.1688H331.456V18.7687ZM330.268 19.0207L334.487 3.34744L334.101 3.24347L329.882 18.9168L330.268 19.0207ZM334.294 3.49545H335.675V3.09545H334.294V3.49545ZM337.667 17H337.467V17.2H337.667V17ZM337.667 3.90909V3.70909H337.467V3.90909H337.667ZM339.252 3.90909H339.452V3.70909H339.252V3.90909ZM339.252 9.73864H339.052V9.93864H339.252V9.73864ZM346.233 9.73864V9.93864H346.433V9.73864H346.233ZM346.233 3.90909V3.70909H346.033V3.90909H346.233ZM347.818 3.90909H348.018V3.70909H347.818V3.90909ZM347.818 17V17.2H348.018V17H347.818ZM346.233 17H346.033V17.2H346.233V17ZM346.233 11.1449H346.433V10.9449H346.233V11.1449ZM339.252 11.1449V10.9449H339.052V11.1449H339.252ZM339.252 17V17.2H339.452V17H339.252ZM337.867 17V3.90909H337.467V17H337.867ZM337.667 4.10909H339.252V3.70909H337.667V4.10909ZM339.052 3.90909V9.73864H339.452V3.90909H339.052ZM339.252 9.93864H346.233V9.53864H339.252V9.93864ZM346.433 9.73864V3.90909H346.033V9.73864H346.433ZM346.233 4.10909H347.818V3.70909H346.233V4.10909ZM347.618 3.90909V17H348.018V3.90909H347.618ZM347.818 16.8H346.233V17.2H347.818V16.8ZM346.433 17V11.1449H346.033V17H346.433ZM346.233 10.9449H339.252V11.3449H346.233V10.9449ZM339.052 11.1449V17H339.452V11.1449H339.052ZM339.252 16.8H337.667V17.2H339.252V16.8ZM352.455 16.5781L352.35 16.7482L352.351 16.749L352.455 16.5781ZM350.876 14.8139L350.696 14.9009L350.697 14.9021L350.876 14.8139ZM350.876 9.50852L350.696 9.42188L350.696 9.4223L350.876 9.50852ZM352.423 7.70597L352.532 7.87353L352.533 7.87336L352.423 7.70597ZM356.265 7.30966L356.33 7.12041L356.33 7.12041L356.265 7.30966ZM357.626 8.14062L357.49 8.28653L357.49 8.28729L357.626 8.14062ZM358.604 9.64915L358.791 9.57684L358.791 9.57684L358.604 9.64915ZM358.969 12.6023V12.8023H359.169V12.6023H358.969ZM351.401 12.6023H351.201V12.8023H351.401V12.6023ZM351.401 11.2983V11.0983H351.201V11.2983H351.401ZM357.435 11.2983V11.4983H357.635V11.2983H357.435ZM357.102 9.81534L356.923 9.90479L356.924 9.90618L357.102 9.81534ZM356.169 8.78622L356.063 8.95562L356.064 8.95612L356.169 8.78622ZM353.19 8.85653L353.302 9.02219L353.303 9.02195L353.19 8.85653ZM352.187 10.0071L352.008 9.91831L352.008 9.91831L352.187 10.0071ZM352.219 14.2834L352.04 14.3722L352.04 14.374L352.219 14.2834ZM353.299 15.4531L353.198 15.6259L353.199 15.6266L353.299 15.4531ZM355.977 15.6832L356.043 15.8722L356.044 15.8717L355.977 15.6832ZM356.815 15.1719L356.953 15.3159L356.955 15.3146L356.815 15.1719ZM357.358 14.3153L357.412 14.1228L357.235 14.0731L357.171 14.2451L357.358 14.3153ZM358.815 14.7244L359.006 14.7837L359.067 14.5874L358.869 14.5319L358.815 14.7244ZM358.042 16.0284L358.185 16.1682L358.186 16.1674L358.042 16.0284ZM356.7 16.8977L356.771 17.0844L356.773 17.0839L356.7 16.8977ZM354.903 17.0045C353.987 17.0045 353.209 16.8027 352.559 16.4073L352.351 16.749C353.074 17.1888 353.927 17.4045 354.903 17.4045V17.0045ZM352.56 16.408C351.912 16.0069 351.411 15.4479 351.056 14.7257L350.697 14.9021C351.083 15.6884 351.635 16.3056 352.35 16.7482L352.56 16.408ZM351.057 14.7269C350.705 14.0003 350.527 13.1489 350.527 12.1676H350.127C350.127 13.1977 350.314 14.1105 350.696 14.9009L351.057 14.7269ZM350.527 12.1676C350.527 11.1864 350.705 10.3304 351.057 9.59474L350.696 9.4223C350.314 10.2208 350.127 11.1375 350.127 12.1676H350.527ZM351.057 9.59517C351.413 8.8539 351.905 8.28226 352.532 7.87353L352.314 7.5384C351.62 7.99046 351.081 8.62053 350.696 9.42188L351.057 9.59517ZM352.533 7.87336C353.161 7.46239 353.898 7.25398 354.75 7.25398V6.85398C353.829 6.85398 353.015 7.08022 352.314 7.53857L352.533 7.87336ZM354.75 7.25398C355.239 7.25398 355.722 7.33535 356.2 7.4989L356.33 7.12041C355.811 6.94306 355.284 6.85398 354.75 6.85398V7.25398ZM356.2 7.4989C356.67 7.6596 357.1 7.92113 357.49 8.28653L357.763 7.99472C357.335 7.59307 356.857 7.30062 356.33 7.12041L356.2 7.4989ZM357.49 8.28729C357.873 8.64213 358.184 9.11762 358.418 9.72145L358.791 9.57684C358.539 8.92783 358.198 8.39765 357.762 7.99396L357.49 8.28729ZM358.418 9.72145C358.649 10.3181 358.769 11.0632 358.769 11.9631H359.169C359.169 11.0305 359.045 10.233 358.791 9.57684L358.418 9.72145ZM358.769 11.9631V12.6023H359.169V11.9631H358.769ZM358.969 12.4023H351.401V12.8023H358.969V12.4023ZM351.601 12.6023V11.2983H351.201V12.6023H351.601ZM351.401 11.4983H357.435V11.0983H351.401V11.4983ZM357.635 11.2983C357.635 10.7171 357.518 10.1909 357.28 9.7245L356.924 9.90618C357.13 10.3091 357.235 10.7716 357.235 11.2983H357.635ZM357.281 9.7259C357.048 9.25884 356.711 8.88766 356.275 8.61632L356.064 8.95612C356.436 9.18762 356.722 9.50252 356.923 9.90478L357.281 9.7259ZM356.275 8.61682C355.838 8.34249 355.327 8.20909 354.75 8.20909V8.60909C355.264 8.60909 355.699 8.72711 356.063 8.95562L356.275 8.61682ZM354.75 8.20909C354.115 8.20909 353.554 8.36739 353.078 8.69112L353.303 9.02195C353.704 8.74909 354.184 8.60909 354.75 8.60909V8.20909ZM353.078 8.69088C352.615 9.00441 352.257 9.41449 352.008 9.91831L352.366 10.0959C352.585 9.65369 352.897 9.29672 353.302 9.02219L353.078 8.69088ZM352.008 9.91831C351.759 10.4196 351.635 10.9572 351.635 11.5284H352.035C352.035 11.0172 352.146 10.5406 352.366 10.0959L352.008 9.91831ZM351.635 11.5284V12.3977H352.035V11.5284H351.635ZM351.635 12.3977C351.635 13.1614 351.767 13.8222 352.04 14.3722L352.398 14.1945C352.159 13.7133 352.035 13.117 352.035 12.3977H351.635ZM352.04 14.374C352.316 14.9169 352.702 15.3366 353.198 15.6259L353.4 15.2804C352.975 15.0328 352.641 14.6726 352.397 14.1928L352.04 14.374ZM353.199 15.6266C353.694 15.9106 354.264 16.0494 354.903 16.0494V15.6494C354.324 15.6494 353.824 15.524 353.399 15.2797L353.199 15.6266ZM354.903 16.0494C355.318 16.0494 355.699 15.9914 356.043 15.8722L355.912 15.4943C355.616 15.5966 355.281 15.6494 354.903 15.6494V16.0494ZM356.044 15.8717C356.393 15.7477 356.697 15.5626 356.953 15.3159L356.676 15.0279C356.463 15.2329 356.209 15.3887 355.91 15.4948L356.044 15.8717ZM356.955 15.3146C357.212 15.0619 357.408 14.7508 357.545 14.3856L357.171 14.2451C357.052 14.5617 356.886 14.8216 356.675 15.0292L356.955 15.3146ZM357.304 14.5079L358.761 14.917L358.869 14.5319L357.412 14.1228L357.304 14.5079ZM358.624 14.6652C358.48 15.1294 358.239 15.5368 357.898 15.8895L358.186 16.1674C358.57 15.77 358.844 15.3081 359.006 14.7837L358.624 14.6652ZM357.899 15.8886C357.558 16.2371 357.136 16.512 356.627 16.7115L356.773 17.0839C357.329 16.8659 357.801 16.5612 358.185 16.1682L357.899 15.8886ZM356.628 16.711C356.122 16.9055 355.548 17.0045 354.903 17.0045V17.4045C355.589 17.4045 356.212 17.2991 356.771 17.0844L356.628 16.711ZM362.459 16.8786L362.374 17.0595L362.375 17.0601L362.459 16.8786ZM361.251 15.8494L361.084 15.9596L361.084 15.9604L361.251 15.8494ZM361.136 12.8452L361.305 12.9523L361.305 12.9514L361.136 12.8452ZM363.251 11.5668L363.294 11.7621L363.296 11.7618L363.251 11.5668ZM364.613 11.3239L364.587 11.1255L364.587 11.1256L364.613 11.3239ZM366.064 11.1513L366.085 11.3502L366.087 11.35L366.064 11.1513ZM366.882 10.9403L366.784 10.7659L366.782 10.767L366.882 10.9403ZM366.626 8.90767L366.483 9.04734L366.484 9.04822L366.626 8.90767ZM363.379 8.85653L363.501 9.01494L363.501 9.01494L363.379 8.85653ZM362.516 9.86648L362.449 10.0548L362.621 10.1162L362.698 9.9507L362.516 9.86648ZM361.085 9.35511L360.901 9.27633L360.817 9.4719L361.017 9.54346L361.085 9.35511ZM362.107 7.96165L362.23 8.11935L362.23 8.11918L362.107 7.96165ZM363.513 7.25852L363.564 7.45207L363.565 7.45177L363.513 7.25852ZM366.109 7.16903L366.072 7.36562L366.074 7.36603L366.109 7.16903ZM367.304 7.62287L367.201 7.79437L367.202 7.79487L367.304 7.62287ZM368.269 8.66477L368.094 8.76122L368.094 8.76122L368.269 8.66477ZM368.653 17V17.2H368.853V17H368.653ZM367.144 17H366.944V17.2H367.144V17ZM367.144 15.6705H367.344V15.4705H367.144V15.6705ZM367.067 15.6705V15.4705H366.942L366.887 15.5839L367.067 15.6705ZM366.556 16.3544L366.699 16.4946L366.699 16.4946L366.556 16.3544ZM365.604 16.9744L365.525 16.7907L365.525 16.7907L365.604 16.9744ZM365.891 15.5234L365.793 15.3495L365.792 15.3499L365.891 15.5234ZM366.825 14.6158L366.651 14.5161L366.65 14.5176L366.825 14.6158ZM367.144 12.0653H367.344V11.5129L366.991 11.9373L367.144 12.0653ZM366.722 12.2763L366.776 12.4689L366.779 12.4682L366.722 12.2763ZM365.981 12.4361L366.011 12.6338L366.014 12.6334L365.981 12.4361ZM365.169 12.5511L365.192 12.7499L365.195 12.7495L365.169 12.5511ZM364.536 12.6278L364.562 12.8262L364.562 12.8261L364.536 12.6278ZM363.437 12.8771L363.499 13.0671L363.501 13.0666L363.437 12.8771ZM362.619 13.3821L362.472 13.2463L362.472 13.2464L362.619 13.3821ZM362.893 15.4787L362.78 15.6431L362.782 15.6445L362.893 15.4787ZM364.153 17.0301C363.556 17.0301 363.021 16.9179 362.543 16.697L362.375 17.0601C362.911 17.3079 363.505 17.4301 364.153 17.4301V17.0301ZM362.544 16.6976C362.068 16.4738 361.694 16.1543 361.417 15.7385L361.084 15.9604C361.404 16.4394 361.835 16.8061 362.374 17.0595L362.544 16.6976ZM361.418 15.7392C361.145 15.3258 361.003 14.8203 361.003 14.2131H360.603C360.603 14.8842 360.76 15.4697 361.084 15.9596L361.418 15.7392ZM361.003 14.2131C361.003 13.6753 361.109 13.2601 361.305 12.9523L360.967 12.7381C360.719 13.1291 360.603 13.6258 360.603 14.2131H361.003ZM361.305 12.9514C361.508 12.6273 361.779 12.3742 362.119 12.1902L361.929 11.8382C361.528 12.0548 361.206 12.3557 360.966 12.739L361.305 12.9514ZM362.119 12.1902C362.472 11.9995 362.863 11.8565 363.294 11.7621L363.209 11.3714C362.745 11.4731 362.318 11.6283 361.929 11.8382L362.119 12.1902ZM363.296 11.7618C363.741 11.6609 364.189 11.581 364.639 11.5222L364.587 11.1256C364.125 11.186 363.665 11.2681 363.207 11.3717L363.296 11.7618ZM364.638 11.5222C365.234 11.4456 365.716 11.3883 366.085 11.3502L366.043 10.9523C365.67 10.9909 365.185 11.0487 364.587 11.1255L364.638 11.5222ZM366.087 11.35C366.468 11.3066 366.775 11.2328 366.982 11.1137L366.782 10.767C366.649 10.8439 366.41 10.9107 366.041 10.9526L366.087 11.35ZM366.98 11.1148C367.232 10.9733 367.344 10.726 367.344 10.429H366.944C366.944 10.6177 366.881 10.7114 366.784 10.7659L366.98 11.1148ZM367.344 10.429V10.3778H366.944V10.429H367.344ZM367.344 10.3778C367.344 9.71016 367.161 9.16379 366.769 8.76712L366.484 9.04822C366.783 9.35041 366.944 9.78416 366.944 10.3778H367.344ZM366.77 8.76801C366.377 8.36612 365.799 8.18352 365.073 8.18352V8.58352C365.737 8.58352 366.194 8.75035 366.483 9.04734L366.77 8.76801ZM365.073 8.18352C364.326 8.18352 363.713 8.34698 363.257 8.69813L363.501 9.01494C363.864 8.73541 364.38 8.58352 365.073 8.58352V8.18352ZM363.257 8.69813C362.83 9.02724 362.518 9.38758 362.335 9.78225L362.698 9.9507C362.847 9.62946 363.11 9.31651 363.501 9.01494L363.257 8.69813ZM362.584 9.67813L361.152 9.16676L361.017 9.54346L362.449 10.0548L362.584 9.67813ZM361.268 9.4339C361.513 8.86211 361.836 8.42719 362.23 8.11935L361.984 7.80395C361.527 8.16088 361.167 8.65494 360.901 9.27633L361.268 9.4339ZM362.23 8.11918C362.64 7.79865 363.084 7.57697 363.564 7.45206L363.463 7.06498C362.928 7.20428 362.435 7.45135 361.984 7.80411L362.23 8.11918ZM363.565 7.45177C364.061 7.31957 364.546 7.25398 365.022 7.25398V6.85398C364.509 6.85398 363.989 6.92474 363.462 7.06528L363.565 7.45177ZM365.022 7.25398C365.322 7.25398 365.671 7.29051 366.072 7.36561L366.146 6.97246C365.728 6.89415 365.353 6.85398 365.022 6.85398V7.25398ZM366.074 7.36603C366.462 7.43397 366.837 7.57604 367.201 7.79437L367.407 7.45137C367.004 7.20947 366.582 7.04899 366.143 6.97204L366.074 7.36603ZM367.202 7.79487C367.554 8.00379 367.852 8.32244 368.094 8.76122L368.444 8.56833C368.175 8.07813 367.83 7.70217 367.406 7.45087L367.202 7.79487ZM368.094 8.76122C368.328 9.18549 368.453 9.77039 368.453 10.5312H368.853C368.853 9.73245 368.722 9.07304 368.444 8.56833L368.094 8.76122ZM368.453 10.5312V17H368.853V10.5312H368.453ZM368.653 16.8H367.144V17.2H368.653V16.8ZM367.344 17V15.6705H366.944V17H367.344ZM367.144 15.4705H367.067V15.8705H367.144V15.4705ZM366.887 15.5839C366.798 15.7705 366.643 15.9807 366.413 16.2142L366.699 16.4946C366.947 16.2423 367.133 15.9965 367.248 15.757L366.887 15.5839ZM366.413 16.2142C366.197 16.4344 365.903 16.6279 365.525 16.7907L365.683 17.1582C366.097 16.9801 366.438 16.7602 366.699 16.4946L366.413 16.2142ZM365.525 16.7907C365.16 16.9476 364.705 17.0301 364.153 17.0301V17.4301C364.743 17.4301 365.255 17.3422 365.683 17.1582L365.525 16.7907ZM364.383 16.075C365.005 16.075 365.544 15.9527 365.991 15.697L365.792 15.3499C365.42 15.5629 364.954 15.675 364.383 15.675V16.075ZM365.99 15.6974C366.431 15.4473 366.77 15.1199 366.999 14.7139L366.65 14.5176C366.461 14.8531 366.178 15.1309 365.793 15.3495L365.99 15.6974ZM366.998 14.7154C367.228 14.3158 367.344 13.8917 367.344 13.446H366.944C366.944 13.8185 366.848 14.1743 366.651 14.5161L366.998 14.7154ZM367.344 13.446V12.0653H366.944V13.446H367.344ZM366.991 11.9373C366.983 11.9458 366.96 11.9676 366.901 11.9967C366.845 12.0248 366.768 12.0545 366.666 12.0844L366.779 12.4682C366.894 12.4342 366.996 12.3967 367.08 12.3545C367.163 12.3133 367.241 12.2616 367.298 12.1934L366.991 11.9373ZM366.668 12.0837C366.464 12.1409 366.224 12.1928 365.948 12.2388L366.014 12.6334C366.3 12.5856 366.555 12.5309 366.776 12.4689L366.668 12.0837ZM365.95 12.2384C365.675 12.2808 365.406 12.3189 365.143 12.3528L365.195 12.7495C365.461 12.7152 365.733 12.6766 366.011 12.6338L365.95 12.2384ZM365.146 12.3524C364.886 12.3823 364.674 12.408 364.51 12.4295L364.562 12.8261C364.723 12.805 364.932 12.7796 365.192 12.7498L365.146 12.3524ZM364.51 12.4295C364.107 12.4822 363.727 12.568 363.373 12.6876L363.501 13.0666C363.828 12.9561 364.182 12.8758 364.562 12.8262L364.51 12.4295ZM363.374 12.6872C363.01 12.8069 362.707 12.992 362.472 13.2463L362.765 13.5179C362.948 13.3205 363.19 13.1689 363.499 13.0671L363.374 12.6872ZM362.472 13.2464C362.224 13.5142 362.112 13.8701 362.112 14.2898H362.512C362.512 13.9424 362.604 13.6932 362.766 13.5178L362.472 13.2464ZM362.112 14.2898C362.112 14.871 362.331 15.3327 362.78 15.6431L363.007 15.3143C362.68 15.0878 362.512 14.7568 362.512 14.2898H362.112ZM362.782 15.6445C363.215 15.9363 363.753 16.075 364.383 16.075V15.675C363.811 15.675 363.356 15.5495 363.005 15.3128L362.782 15.6445ZM372.947 16.5845L372.836 16.7509L372.836 16.7514L372.947 16.5845ZM371.476 14.8203L371.295 14.9044L371.295 14.9048L371.476 14.8203ZM371.476 9.43182L371.295 9.3473L371.295 9.3473L371.476 9.43182ZM372.953 7.67401L372.843 7.50673L372.843 7.50673L372.953 7.67401ZM376.654 7.37358L376.554 7.547L376.557 7.54832L376.654 7.37358ZM377.51 8.08949L377.349 8.20745L377.351 8.21031L377.51 8.08949ZM377.977 8.74148L377.809 8.85047L377.869 8.94148H377.977V8.74148ZM378.105 8.74148V8.94148H378.305V8.74148H378.105ZM378.105 3.90909V3.70909H377.905V3.90909H378.105ZM379.613 3.90909H379.813V3.70909H379.613V3.90909ZM379.613 17V17.2H379.813V17H379.613ZM378.156 17H377.956V17.2H378.156V17ZM378.156 15.4915H378.356V15.2915H378.156V15.4915ZM377.977 15.4915V15.2915H377.866L377.807 15.3862L377.977 15.4915ZM377.504 16.169L377.663 16.2902L377.664 16.289L377.504 16.169ZM376.628 16.8913L376.725 17.0665L376.726 17.0657L376.628 16.8913ZM376.852 15.3764L376.973 15.536L376.974 15.5352L376.852 15.3764ZM377.805 14.0533L377.991 14.1253L377.991 14.1249L377.805 14.0533ZM377.811 10.1669L377.624 10.2387L377.624 10.2392L377.811 10.1669ZM376.865 8.87571L376.745 9.03611L376.746 9.03689L376.865 8.87571ZM373.72 8.90128L373.842 9.05992L373.842 9.05974L373.72 8.90128ZM372.768 10.2244L372.581 10.1531L372.58 10.1539L372.768 10.2244ZM372.774 13.9957L372.587 14.0657L372.587 14.0673L372.774 13.9957ZM373.733 15.3509L373.608 15.5072L373.61 15.5086L373.733 15.3509ZM375.113 17.0045C374.331 17.0045 373.647 16.8074 373.057 16.4176L372.836 16.7514C373.498 17.1883 374.26 17.4045 375.113 17.4045V17.0045ZM373.057 16.4181C372.465 16.023 371.998 15.4649 371.658 14.7358L371.295 14.9048C371.663 15.6928 372.175 16.3108 372.836 16.7509L373.057 16.4181ZM371.658 14.7362C371.319 14.0052 371.146 13.1339 371.146 12.1165H370.746C370.746 13.1786 370.926 14.1098 371.295 14.9044L371.658 14.7362ZM371.146 12.1165C371.146 11.1078 371.319 10.243 371.658 9.51634L371.295 9.3473C370.927 10.1377 370.746 11.0626 370.746 12.1165H371.146ZM371.658 9.51634C371.997 8.78771 372.466 8.23205 373.063 7.84128L372.843 7.50673C372.178 7.94266 371.663 8.55889 371.295 9.3473L371.658 9.51634ZM373.063 7.84128C373.658 7.45132 374.347 7.25398 375.139 7.25398V6.85398C374.277 6.85398 373.51 7.06998 372.843 7.50673L373.063 7.84128ZM375.139 7.25398C375.759 7.25398 376.225 7.35789 376.554 7.54698L376.754 7.20018C376.341 6.96313 375.797 6.85398 375.139 6.85398V7.25398ZM376.557 7.54832C376.913 7.747 377.174 7.96807 377.349 8.20743L377.672 7.97155C377.455 7.67397 377.144 7.41778 376.751 7.19884L376.557 7.54832ZM377.351 8.21031C377.55 8.47274 377.702 8.68577 377.809 8.85047L378.145 8.63248C378.03 8.45628 377.871 8.23465 377.67 7.96867L377.351 8.21031ZM377.977 8.94148H378.105V8.54148H377.977V8.94148ZM378.305 8.74148V3.90909H377.905V8.74148H378.305ZM378.105 4.10909H379.613V3.70909H378.105V4.10909ZM379.413 3.90909V17H379.813V3.90909H379.413ZM379.613 16.8H378.156V17.2H379.613V16.8ZM378.356 17V15.4915H377.956V17H378.356ZM378.156 15.2915H377.977V15.6915H378.156V15.2915ZM377.807 15.3862C377.701 15.558 377.547 15.7785 377.344 16.049L377.664 16.289C377.87 16.0141 378.032 15.7829 378.147 15.5967L377.807 15.3862ZM377.345 16.0478C377.161 16.2893 376.892 16.5136 376.53 16.717L376.726 17.0657C377.123 16.843 377.438 16.5857 377.663 16.2902L377.345 16.0478ZM376.532 16.7161C376.193 16.9029 375.725 17.0045 375.113 17.0045V17.4045C375.764 17.4045 376.306 17.2974 376.725 17.0665L376.532 16.7161ZM375.318 16.0494C375.96 16.0494 376.515 15.8815 376.973 15.536L376.732 15.2168C376.354 15.502 375.887 15.6494 375.318 15.6494V16.0494ZM376.974 15.5352C377.425 15.1901 377.762 14.7171 377.991 14.1253L377.618 13.9812C377.412 14.5145 377.115 14.9235 376.731 15.2176L376.974 15.5352ZM377.991 14.1249C378.219 13.5308 378.331 12.8516 378.331 12.0909H377.931C377.931 12.8132 377.825 13.4422 377.618 13.9817L377.991 14.1249ZM378.331 12.0909C378.331 11.339 378.221 10.6722 377.997 10.0946L377.624 10.2392C377.827 10.761 377.931 11.3769 377.931 12.0909H378.331ZM377.998 10.0951C377.773 9.51074 377.436 9.04716 376.983 8.71453L376.746 9.03689C377.129 9.3179 377.423 9.71511 377.624 10.2387L377.998 10.0951ZM376.984 8.71532C376.526 8.37415 375.967 8.20909 375.318 8.20909V8.60909C375.897 8.60909 376.368 8.75511 376.745 9.0361L376.984 8.71532ZM375.318 8.20909C374.643 8.20909 374.065 8.38294 373.598 8.74281L373.842 9.05974C374.227 8.76337 374.714 8.60909 375.318 8.60909V8.20909ZM373.598 8.74263C373.143 9.09172 372.805 9.56469 372.581 10.1531L372.954 10.2957C373.156 9.76769 373.453 9.35856 373.842 9.05992L373.598 8.74263ZM372.58 10.1539C372.362 10.7338 372.254 11.3804 372.254 12.0909H372.654C372.654 11.4207 372.756 10.823 372.955 10.295L372.58 10.1539ZM372.254 12.0909C372.254 12.8102 372.364 13.4692 372.587 14.0657L372.961 13.9258C372.758 13.3802 372.654 12.7694 372.654 12.0909H372.254ZM372.587 14.0673C372.816 14.6631 373.155 15.1456 373.608 15.5072L373.858 15.1945C373.467 14.8828 373.167 14.4619 372.961 13.9241L372.587 14.0673ZM373.61 15.5086C374.077 15.8728 374.651 16.0494 375.318 16.0494V15.6494C374.724 15.6494 374.241 15.4937 373.856 15.1932L373.61 15.5086Z" fill="black"/>
</svg>
