<svg width="2387" height="793" viewBox="0 0 2387 793" fill="none" xmlns="http://www.w3.org/2000/svg">
<path d="M962.996 46.2932C964.262 45.7434 964.843 44.271 964.293 43.0045C963.743 41.738 962.271 41.157 961.004 41.7068L962.996 46.2932ZM572.675 211.082C572.168 212.367 572.798 213.819 574.082 214.325L595.012 222.584C596.296 223.091 597.748 222.461 598.255 221.176C598.762 219.892 598.131 218.44 596.847 217.933L578.243 210.592L585.584 191.988C586.091 190.704 585.461 189.252 584.176 188.745C582.892 188.238 581.44 188.869 580.933 190.153L572.675 211.082ZM961.004 41.7068L574.005 209.707L575.996 214.293L962.996 46.2932L961.004 41.7068Z" fill="#FCCE2E"/>
<path d="M433.465 353.026C434.584 352.217 434.835 350.654 434.026 349.535C433.217 348.416 431.654 348.165 430.535 348.974L433.465 353.026ZM169.532 538.603C169.313 539.967 170.24 541.249 171.603 541.468L193.818 545.039C195.181 545.258 196.464 544.33 196.683 542.967C196.902 541.604 195.975 540.321 194.612 540.102L174.865 536.928L178.039 517.182C178.258 515.819 177.33 514.536 175.967 514.317C174.604 514.098 173.321 515.025 173.102 516.388L169.532 538.603ZM430.535 348.974L170.535 536.974L173.465 541.026L433.465 353.026L430.535 348.974Z" fill="#FCCE2E"/>
<path d="M122.597 691.923C123.659 691.041 123.805 689.465 122.923 688.403C122.041 687.341 120.465 687.195 119.403 688.077L122.597 691.923ZM0.510648 787.77C0.383349 789.144 1.39467 790.362 2.7695 790.489L25.1737 792.564C26.5485 792.691 27.7662 791.68 27.8935 790.305C28.0208 788.93 27.0095 787.712 25.6347 787.585L5.71985 785.741L7.56381 765.826C7.69111 764.451 6.67979 763.234 5.30496 763.106C3.93012 762.979 2.71241 763.991 2.58511 765.365L0.510648 787.77ZM119.403 688.077L1.40275 786.077L4.59725 789.923L122.597 691.923L119.403 688.077Z" fill="#FCCE2E"/>
<path d="M805.597 691.923C806.659 691.041 806.805 689.465 805.923 688.403C805.041 687.341 803.465 687.195 802.403 688.077L805.597 691.923ZM683.511 787.77C683.383 789.144 684.395 790.362 685.77 790.489L708.174 792.564C709.549 792.691 710.766 791.68 710.894 790.305C711.021 788.93 710.009 787.712 708.635 787.585L688.72 785.741L690.564 765.826C690.691 764.451 689.68 763.234 688.305 763.106C686.93 762.979 685.712 763.991 685.585 765.365L683.511 787.77ZM802.403 688.077L684.403 786.077L687.597 789.923L805.597 691.923L802.403 688.077Z" fill="#FCCE2E"/>
<path d="M1352.6 691.923C1353.66 691.041 1353.81 689.465 1352.92 688.403C1352.04 687.341 1350.46 687.195 1349.4 688.077L1352.6 691.923ZM1230.51 787.77C1230.38 789.144 1231.39 790.362 1232.77 790.489L1255.17 792.564C1256.55 792.691 1257.77 791.68 1257.89 790.305C1258.02 788.93 1257.01 787.712 1255.63 787.585L1235.72 785.741L1237.56 765.826C1237.69 764.451 1236.68 763.234 1235.3 763.106C1233.93 762.979 1232.71 763.991 1232.59 765.365L1230.51 787.77ZM1349.4 688.077L1231.4 786.077L1234.6 789.923L1352.6 691.923L1349.4 688.077Z" fill="#FCCE2E"/>
<path d="M2086.6 691.923C2087.66 691.041 2087.81 689.465 2086.92 688.403C2086.04 687.341 2084.46 687.195 2083.4 688.077L2086.6 691.923ZM1964.51 787.77C1964.38 789.144 1965.39 790.362 1966.77 790.489L1989.17 792.564C1990.55 792.691 1991.77 791.68 1991.89 790.305C1992.02 788.93 1991.01 787.712 1989.63 787.585L1969.72 785.741L1971.56 765.826C1971.69 764.451 1970.68 763.234 1969.3 763.106C1967.93 762.979 1966.71 763.991 1966.59 765.365L1964.51 787.77ZM2083.4 688.077L1965.4 786.077L1968.6 789.923L2086.6 691.923L2083.4 688.077Z" fill="#FCCE2E"/>
<path d="M300.403 691.923C299.341 691.041 299.195 689.465 300.077 688.403C300.959 687.341 302.535 687.195 303.597 688.077L300.403 691.923ZM422.489 787.77C422.617 789.144 421.605 790.362 420.23 790.489L397.826 792.564C396.451 792.691 395.234 791.68 395.106 790.305C394.979 788.93 395.991 787.712 397.365 787.585L417.28 785.741L415.436 765.826C415.309 764.451 416.32 763.234 417.695 763.106C419.07 762.979 420.288 763.991 420.415 765.365L422.489 787.77ZM303.597 688.077L421.597 786.077L418.403 789.923L300.403 691.923L303.597 688.077Z" fill="#FCCE2E"/>
<path d="M983.403 691.923C982.341 691.041 982.195 689.465 983.077 688.403C983.959 687.341 985.535 687.195 986.597 688.077L983.403 691.923ZM1105.49 787.77C1105.62 789.144 1104.61 790.362 1103.23 790.489L1080.83 792.564C1079.45 792.691 1078.23 791.68 1078.11 790.305C1077.98 788.93 1078.99 787.712 1080.37 787.585L1100.28 785.741L1098.44 765.826C1098.31 764.451 1099.32 763.234 1100.7 763.106C1102.07 762.979 1103.29 763.991 1103.41 765.365L1105.49 787.77ZM986.597 688.077L1104.6 786.077L1101.4 789.923L983.403 691.923L986.597 688.077Z" fill="#FCCE2E"/>
<path d="M1530.4 691.923C1529.34 691.041 1529.19 689.465 1530.08 688.403C1530.96 687.341 1532.54 687.195 1533.6 688.077L1530.4 691.923ZM1652.49 787.77C1652.62 789.144 1651.61 790.362 1650.23 790.489L1627.83 792.564C1626.45 792.691 1625.23 791.68 1625.11 790.305C1624.98 788.93 1625.99 787.712 1627.37 787.585L1647.28 785.741L1645.44 765.826C1645.31 764.451 1646.32 763.234 1647.7 763.106C1649.07 762.979 1650.29 763.991 1650.41 765.365L1652.49 787.77ZM1533.6 688.077L1651.6 786.077L1648.4 789.923L1530.4 691.923L1533.6 688.077Z" fill="#FCCE2E"/>
<path d="M2264.4 691.923C2263.34 691.041 2263.19 689.465 2264.08 688.403C2264.96 687.341 2266.54 687.195 2267.6 688.077L2264.4 691.923ZM2386.49 787.77C2386.62 789.144 2385.61 790.362 2384.23 790.489L2361.83 792.564C2360.45 792.691 2359.23 791.68 2359.11 790.305C2358.98 788.93 2359.99 787.712 2361.37 787.585L2381.28 785.741L2379.44 765.826C2379.31 764.451 2380.32 763.234 2381.7 763.106C2383.07 762.979 2384.29 763.991 2384.41 765.365L2386.49 787.77ZM2267.6 688.077L2385.6 786.077L2382.4 789.923L2264.4 691.923L2267.6 688.077Z" fill="#FCCE2E"/>
<path d="M1658.46 353.026C1659.58 352.217 1659.83 350.654 1659.03 349.535C1658.22 348.416 1656.65 348.165 1655.54 348.974L1658.46 353.026ZM1394.53 538.603C1394.31 539.967 1395.24 541.249 1396.6 541.468L1418.82 545.039C1420.18 545.258 1421.46 544.33 1421.68 542.967C1421.9 541.604 1420.97 540.321 1419.61 540.102L1399.87 536.928L1403.04 517.182C1403.26 515.819 1402.33 514.536 1400.97 514.317C1399.6 514.098 1398.32 515.025 1398.1 516.388L1394.53 538.603ZM1655.54 348.974L1395.54 536.974L1398.46 541.026L1658.46 353.026L1655.54 348.974Z" fill="#FCCE2E"/>
<path d="M667.535 356.026C666.416 355.217 666.165 353.654 666.974 352.535C667.783 351.416 669.346 351.165 670.465 351.974L667.535 356.026ZM931.468 541.603C931.687 542.967 930.76 544.249 929.397 544.468L907.182 548.039C905.819 548.258 904.536 547.33 904.317 545.967C904.098 544.604 905.025 543.321 906.388 543.102L926.135 539.928L922.961 520.182C922.742 518.819 923.67 517.536 925.033 517.317C926.396 517.098 927.679 518.025 927.898 519.388L931.468 541.603ZM670.465 351.974L930.465 539.974L927.535 544.026L667.535 356.026L670.465 351.974Z" fill="#FCCE2E"/>
<path d="M1892.54 356.026C1891.42 355.217 1891.17 353.654 1891.97 352.535C1892.78 351.416 1894.35 351.165 1895.46 351.974L1892.54 356.026ZM2156.47 541.603C2156.69 542.967 2155.76 544.249 2154.4 544.468L2132.18 548.039C2130.82 548.258 2129.54 547.33 2129.32 545.967C2129.1 544.604 2130.03 543.321 2131.39 543.102L2151.13 539.928L2147.96 520.182C2147.74 518.819 2148.67 517.536 2150.03 517.317C2151.4 517.098 2152.68 518.025 2152.9 519.388L2156.47 541.603ZM1895.46 351.974L2155.46 539.974L2152.54 544.026L1892.54 356.026L1895.46 351.974Z" fill="#FCCE2E"/>
<path d="M1356 46.2932C1354.74 45.7434 1354.16 44.271 1354.71 43.0045C1355.26 41.738 1356.73 41.157 1358 41.7068L1356 46.2932ZM1746.33 211.082C1746.83 212.367 1746.2 213.819 1744.92 214.325L1723.99 222.584C1722.7 223.091 1721.25 222.461 1720.74 221.176C1720.24 219.892 1720.87 218.44 1722.15 217.933L1740.76 210.592L1733.42 191.988C1732.91 190.704 1733.54 189.252 1734.82 188.745C1736.11 188.238 1737.56 188.869 1738.07 190.153L1746.33 211.082ZM1358 41.7068L1745 209.707L1743 214.293L1356 46.2932L1358 41.7068Z" fill="#FCCE2E"/>
<rect x="1022" width="255" height="60" rx="6" fill="#FCCE2E"/>
<rect x="432" y="258" width="255" height="60" rx="6" fill="#FCCE2E"/>
<rect x="93" y="577" width="255" height="60" rx="6" fill="#FCCE2E"/>
<rect x="767" y="577" width="255" height="60" rx="6" fill="#FCCE2E"/>
<rect x="1648" y="258" width="255" height="60" rx="6" fill="#FCCE2E"/>
<rect x="1314" y="577" width="255" height="60" rx="6" fill="#FCCE2E"/>
<rect x="2048" y="577" width="255" height="60" rx="6" fill="#FCCE2E"/>
<path d="M1051.97 38V20.5455H1058.96C1060.24 20.5455 1061.31 20.7358 1062.17 21.1165C1063.03 21.4972 1063.67 22.0256 1064.11 22.7017C1064.54 23.3722 1064.75 24.1449 1064.75 25.0199C1064.75 25.7017 1064.62 26.3011 1064.35 26.8182C1064.07 27.3295 1063.7 27.75 1063.22 28.0795C1062.75 28.4034 1062.21 28.6335 1061.6 28.7699V28.9403C1062.27 28.9687 1062.89 29.1562 1063.47 29.5028C1064.05 29.8494 1064.53 30.3352 1064.89 30.9602C1065.25 31.5795 1065.44 32.3182 1065.44 33.1761C1065.44 34.1023 1065.21 34.929 1064.75 35.6562C1064.29 36.3778 1063.62 36.9489 1062.73 37.3693C1061.83 37.7898 1060.73 38 1059.43 38H1051.97ZM1055.66 34.983H1058.67C1059.7 34.983 1060.45 34.7869 1060.92 34.3949C1061.39 33.9972 1061.63 33.4687 1061.63 32.8097C1061.63 32.3267 1061.51 31.9006 1061.28 31.5312C1061.04 31.1619 1060.71 30.8722 1060.28 30.6619C1059.85 30.4517 1059.35 30.3466 1058.75 30.3466H1055.66V34.983ZM1055.66 27.8494H1058.4C1058.9 27.8494 1059.35 27.7614 1059.74 27.5852C1060.14 27.4034 1060.45 27.1477 1060.68 26.8182C1060.91 26.4886 1061.03 26.0938 1061.03 25.6335C1061.03 25.0028 1060.81 24.4943 1060.36 24.108C1059.91 23.7216 1059.28 23.5284 1058.46 23.5284H1055.66V27.8494ZM1073.68 38.2557C1072.36 38.2557 1071.22 37.9744 1070.25 37.4119C1069.29 36.8437 1068.55 36.054 1068.02 35.0426C1067.5 34.0256 1067.24 32.8466 1067.24 31.5057C1067.24 30.1534 1067.5 28.9716 1068.02 27.9602C1068.55 26.9432 1069.29 26.1534 1070.25 25.5909C1071.22 25.0227 1072.36 24.7386 1073.68 24.7386C1075.01 24.7386 1076.15 25.0227 1077.11 25.5909C1078.08 26.1534 1078.82 26.9432 1079.34 27.9602C1079.87 28.9716 1080.13 30.1534 1080.13 31.5057C1080.13 32.8466 1079.87 34.0256 1079.34 35.0426C1078.82 36.054 1078.08 36.8437 1077.11 37.4119C1076.15 37.9744 1075.01 38.2557 1073.68 38.2557ZM1073.7 35.4432C1074.3 35.4432 1074.81 35.2727 1075.21 34.9318C1075.61 34.5852 1075.92 34.1136 1076.12 33.517C1076.33 32.9205 1076.44 32.2415 1076.44 31.4801C1076.44 30.7188 1076.33 30.0398 1076.12 29.4432C1075.92 28.8466 1075.61 28.375 1075.21 28.0284C1074.81 27.6818 1074.3 27.5085 1073.7 27.5085C1073.09 27.5085 1072.58 27.6818 1072.17 28.0284C1071.76 28.375 1071.45 28.8466 1071.24 29.4432C1071.03 30.0398 1070.93 30.7188 1070.93 31.4801C1070.93 32.2415 1071.03 32.9205 1071.24 33.517C1071.45 34.1136 1071.76 34.5852 1072.17 34.9318C1072.58 35.2727 1073.09 35.4432 1073.7 35.4432ZM1088.4 38.2557C1087.08 38.2557 1085.93 37.9744 1084.97 37.4119C1084.01 36.8437 1083.27 36.054 1082.74 35.0426C1082.22 34.0256 1081.96 32.8466 1081.96 31.5057C1081.96 30.1534 1082.22 28.9716 1082.74 27.9602C1083.27 26.9432 1084.01 26.1534 1084.97 25.5909C1085.93 25.0227 1087.08 24.7386 1088.4 24.7386C1089.73 24.7386 1090.87 25.0227 1091.83 25.5909C1092.79 26.1534 1093.54 26.9432 1094.06 27.9602C1094.58 28.9716 1094.85 30.1534 1094.85 31.5057C1094.85 32.8466 1094.58 34.0256 1094.06 35.0426C1093.54 36.054 1092.79 36.8437 1091.83 37.4119C1090.87 37.9744 1089.73 38.2557 1088.4 38.2557ZM1088.42 35.4432C1089.02 35.4432 1089.52 35.2727 1089.93 34.9318C1090.33 34.5852 1090.64 34.1136 1090.84 33.517C1091.05 32.9205 1091.16 32.2415 1091.16 31.4801C1091.16 30.7188 1091.05 30.0398 1090.84 29.4432C1090.64 28.8466 1090.33 28.375 1089.93 28.0284C1089.52 27.6818 1089.02 27.5085 1088.42 27.5085C1087.81 27.5085 1087.3 27.6818 1086.89 28.0284C1086.48 28.375 1086.17 28.8466 1085.96 29.4432C1085.75 30.0398 1085.65 30.7188 1085.65 31.4801C1085.65 32.2415 1085.75 32.9205 1085.96 33.517C1086.17 34.1136 1086.48 34.5852 1086.89 34.9318C1087.3 35.2727 1087.81 35.4432 1088.42 35.4432ZM1100.5 34.233L1100.5 29.8778H1101.03L1105.23 24.9091H1109.39L1103.76 31.4886H1102.9L1100.5 34.233ZM1097.21 38V20.5455H1100.84V38H1097.21ZM1105.39 38L1101.54 32.2983L1103.96 29.733L1109.64 38H1105.39ZM1122.07 28.642L1118.74 28.8466C1118.69 28.5625 1118.56 28.3068 1118.38 28.0795C1118.19 27.8466 1117.94 27.6619 1117.64 27.5256C1117.33 27.3835 1116.97 27.3125 1116.55 27.3125C1115.99 27.3125 1115.52 27.4318 1115.13 27.6705C1114.74 27.9034 1114.55 28.2159 1114.55 28.608C1114.55 28.9205 1114.68 29.1847 1114.93 29.4006C1115.18 29.6165 1115.6 29.7898 1116.21 29.9205L1118.58 30.3977C1119.85 30.6591 1120.8 31.0795 1121.43 31.6591C1122.05 32.2386 1122.37 33 1122.37 33.9432C1122.37 34.8011 1122.11 35.554 1121.61 36.2017C1121.11 36.8494 1120.42 37.3551 1119.54 37.7188C1118.68 38.0767 1117.67 38.2557 1116.54 38.2557C1114.8 38.2557 1113.42 37.8949 1112.39 37.1733C1111.37 36.446 1110.77 35.4574 1110.6 34.2074L1114.17 34.0199C1114.27 34.5483 1114.54 34.9517 1114.95 35.2301C1115.37 35.5028 1115.9 35.6392 1116.54 35.6392C1117.18 35.6392 1117.69 35.517 1118.08 35.2727C1118.47 35.0227 1118.67 34.7017 1118.68 34.3097C1118.67 33.9801 1118.53 33.7102 1118.26 33.5C1117.99 33.2841 1117.56 33.1193 1117 33.0057L1114.73 32.554C1113.45 32.2983 1112.5 31.8551 1111.87 31.2244C1111.25 30.5937 1110.95 29.7898 1110.95 28.8125C1110.95 27.9716 1111.17 27.2472 1111.63 26.6392C1112.09 26.0312 1112.73 25.5625 1113.56 25.233C1114.4 24.9034 1115.37 24.7386 1116.49 24.7386C1118.15 24.7386 1119.45 25.0881 1120.4 25.7869C1121.35 26.4858 1121.91 27.4375 1122.07 28.642ZM1145.68 26.6562H1141.94C1141.87 26.1733 1141.74 25.7443 1141.52 25.3693C1141.31 24.9886 1141.04 24.6648 1140.72 24.3977C1140.39 24.1307 1140 23.9261 1139.57 23.7841C1139.15 23.642 1138.68 23.571 1138.18 23.571C1137.28 23.571 1136.49 23.7955 1135.82 24.2443C1135.15 24.6875 1134.63 25.3352 1134.26 26.1875C1133.89 27.0341 1133.71 28.0625 1133.71 29.2727C1133.71 30.517 1133.89 31.5625 1134.26 32.4091C1134.64 33.2557 1135.16 33.8949 1135.83 34.3267C1136.5 34.7585 1137.28 34.9744 1138.16 34.9744C1138.65 34.9744 1139.11 34.9091 1139.53 34.7784C1139.96 34.6477 1140.33 34.4574 1140.66 34.2074C1140.99 33.9517 1141.27 33.642 1141.48 33.2784C1141.7 32.9148 1141.86 32.5 1141.94 32.0341L1145.68 32.0511C1145.58 32.8523 1145.34 33.625 1144.95 34.3693C1144.57 35.108 1144.06 35.7699 1143.41 36.3551C1142.77 36.9347 1142 37.3949 1141.11 37.7358C1140.22 38.071 1139.22 38.2386 1138.1 38.2386C1136.54 38.2386 1135.15 37.8864 1133.92 37.1818C1132.7 36.4773 1131.74 35.4574 1131.02 34.1222C1130.32 32.7869 1129.97 31.1705 1129.97 29.2727C1129.97 27.3693 1130.33 25.75 1131.04 24.4148C1131.76 23.0795 1132.73 22.0625 1133.96 21.3636C1135.18 20.6591 1136.56 20.3068 1138.1 20.3068C1139.11 20.3068 1140.05 20.4489 1140.91 20.733C1141.78 21.017 1142.55 21.4318 1143.22 21.9773C1143.89 22.517 1144.44 23.179 1144.86 23.9631C1145.28 24.7472 1145.56 25.6449 1145.68 26.6562ZM1154.17 38.2557C1152.84 38.2557 1151.7 37.9744 1150.73 37.4119C1149.77 36.8437 1149.03 36.054 1148.51 35.0426C1147.99 34.0256 1147.73 32.8466 1147.73 31.5057C1147.73 30.1534 1147.99 28.9716 1148.51 27.9602C1149.03 26.9432 1149.77 26.1534 1150.73 25.5909C1151.7 25.0227 1152.84 24.7386 1154.17 24.7386C1155.49 24.7386 1156.63 25.0227 1157.59 25.5909C1158.56 26.1534 1159.3 26.9432 1159.83 27.9602C1160.35 28.9716 1160.61 30.1534 1160.61 31.5057C1160.61 32.8466 1160.35 34.0256 1159.83 35.0426C1159.3 36.054 1158.56 36.8437 1157.59 37.4119C1156.63 37.9744 1155.49 38.2557 1154.17 38.2557ZM1154.19 35.4432C1154.79 35.4432 1155.29 35.2727 1155.69 34.9318C1156.1 34.5852 1156.4 34.1136 1156.61 33.517C1156.82 32.9205 1156.92 32.2415 1156.92 31.4801C1156.92 30.7188 1156.82 30.0398 1156.61 29.4432C1156.4 28.8466 1156.1 28.375 1155.69 28.0284C1155.29 27.6818 1154.79 27.5085 1154.19 27.5085C1153.58 27.5085 1153.07 27.6818 1152.65 28.0284C1152.24 28.375 1151.93 28.8466 1151.72 29.4432C1151.52 30.0398 1151.42 30.7188 1151.42 31.4801C1151.42 32.2415 1151.52 32.9205 1151.72 33.517C1151.93 34.1136 1152.24 34.5852 1152.65 34.9318C1153.07 35.2727 1153.58 35.4432 1154.19 35.4432ZM1166.6 20.5455V38H1162.97V20.5455H1166.6ZM1173.14 20.5455V38H1169.51V20.5455H1173.14ZM1182.02 38.2557C1180.67 38.2557 1179.51 37.983 1178.54 37.4375C1177.57 36.8864 1176.83 36.108 1176.31 35.1023C1175.78 34.0909 1175.52 32.8949 1175.52 31.5142C1175.52 30.1676 1175.78 28.9858 1176.31 27.9688C1176.83 26.9517 1177.56 26.1591 1178.51 25.5909C1179.47 25.0227 1180.59 24.7386 1181.87 24.7386C1182.74 24.7386 1183.54 24.8778 1184.28 25.1562C1185.03 25.429 1185.69 25.8409 1186.24 26.392C1186.81 26.9432 1187.24 27.6364 1187.56 28.4716C1187.87 29.3011 1188.02 30.2727 1188.02 31.3864V32.3835H1176.97V30.1335H1184.61C1184.61 29.6108 1184.49 29.1477 1184.27 28.7443C1184.04 28.3409 1183.72 28.0256 1183.32 27.7983C1182.92 27.5653 1182.46 27.4489 1181.93 27.4489C1181.38 27.4489 1180.89 27.5767 1180.47 27.8324C1180.04 28.0824 1179.72 28.4205 1179.48 28.8466C1179.24 29.267 1179.12 29.7358 1179.11 30.2528V32.392C1179.11 33.0398 1179.23 33.5994 1179.47 34.071C1179.71 34.5426 1180.06 34.9062 1180.5 35.1619C1180.94 35.4176 1181.47 35.5455 1182.08 35.5455C1182.48 35.5455 1182.85 35.4886 1183.18 35.375C1183.52 35.2614 1183.81 35.0909 1184.04 34.8636C1184.28 34.6364 1184.47 34.358 1184.59 34.0284L1187.95 34.25C1187.78 35.0568 1187.43 35.7614 1186.9 36.3636C1186.38 36.9602 1185.7 37.4261 1184.87 37.7614C1184.05 38.0909 1183.1 38.2557 1182.02 38.2557ZM1196.31 38.2557C1194.97 38.2557 1193.81 37.9716 1192.85 37.4034C1191.89 36.8295 1191.15 36.0341 1190.63 35.017C1190.12 34 1189.87 32.8295 1189.87 31.5057C1189.87 30.1648 1190.12 28.9886 1190.64 27.9773C1191.16 26.9602 1191.91 26.1676 1192.87 25.5994C1193.83 25.0256 1194.97 24.7386 1196.29 24.7386C1197.43 24.7386 1198.43 24.946 1199.29 25.3608C1200.15 25.7756 1200.83 26.358 1201.33 27.108C1201.83 27.858 1202.1 28.7386 1202.16 29.75H1198.73C1198.63 29.0966 1198.38 28.571 1197.96 28.1733C1197.55 27.7699 1197.02 27.5682 1196.35 27.5682C1195.79 27.5682 1195.3 27.7216 1194.88 28.0284C1194.46 28.3295 1194.14 28.7699 1193.91 29.3494C1193.67 29.929 1193.56 30.6307 1193.56 31.4545C1193.56 32.2898 1193.67 33 1193.9 33.5852C1194.13 34.1705 1194.46 34.6165 1194.88 34.9233C1195.3 35.2301 1195.79 35.3835 1196.35 35.3835C1196.77 35.3835 1197.14 35.2983 1197.47 35.1278C1197.8 34.9574 1198.08 34.7102 1198.29 34.3864C1198.52 34.0568 1198.66 33.6619 1198.73 33.2017H1202.16C1202.1 34.2017 1201.83 35.0824 1201.34 35.8438C1200.85 36.5994 1200.19 37.1903 1199.33 37.6165C1198.48 38.0426 1197.47 38.2557 1196.31 38.2557ZM1211.44 24.9091V27.6364H1203.56V24.9091H1211.44ZM1205.35 21.7727H1208.98V33.9773C1208.98 34.3125 1209.03 34.5739 1209.13 34.7614C1209.24 34.9432 1209.38 35.071 1209.56 35.1449C1209.75 35.2187 1209.96 35.2557 1210.21 35.2557C1210.38 35.2557 1210.55 35.2415 1210.72 35.2131C1210.89 35.179 1211.02 35.1534 1211.11 35.1364L1211.68 37.8381C1211.5 37.8949 1211.24 37.9602 1210.91 38.0341C1210.59 38.1136 1210.18 38.1619 1209.71 38.179C1208.84 38.2131 1208.07 38.0966 1207.41 37.8295C1206.76 37.5625 1206.25 37.1477 1205.89 36.5852C1205.52 36.0227 1205.34 35.3125 1205.35 34.4545V21.7727ZM1213.81 38V24.9091H1217.44V38H1213.81ZM1215.63 23.2216C1215.09 23.2216 1214.63 23.0426 1214.24 22.6847C1213.86 22.321 1213.67 21.8864 1213.67 21.3807C1213.67 20.8807 1213.86 20.4517 1214.24 20.0938C1214.63 19.7301 1215.09 19.5483 1215.63 19.5483C1216.17 19.5483 1216.63 19.7301 1217.01 20.0938C1217.4 20.4517 1217.59 20.8807 1217.59 21.3807C1217.59 21.8864 1217.4 22.321 1217.01 22.6847C1216.63 23.0426 1216.17 23.2216 1215.63 23.2216ZM1226.26 38.2557C1224.94 38.2557 1223.79 37.9744 1222.83 37.4119C1221.87 36.8437 1221.13 36.054 1220.6 35.0426C1220.08 34.0256 1219.82 32.8466 1219.82 31.5057C1219.82 30.1534 1220.08 28.9716 1220.6 27.9602C1221.13 26.9432 1221.87 26.1534 1222.83 25.5909C1223.79 25.0227 1224.94 24.7386 1226.26 24.7386C1227.59 24.7386 1228.73 25.0227 1229.69 25.5909C1230.65 26.1534 1231.4 26.9432 1231.92 27.9602C1232.44 28.9716 1232.71 30.1534 1232.71 31.5057C1232.71 32.8466 1232.44 34.0256 1231.92 35.0426C1231.4 36.054 1230.65 36.8437 1229.69 37.4119C1228.73 37.9744 1227.59 38.2557 1226.26 38.2557ZM1226.28 35.4432C1226.88 35.4432 1227.38 35.2727 1227.79 34.9318C1228.19 34.5852 1228.5 34.1136 1228.7 33.517C1228.91 32.9205 1229.01 32.2415 1229.01 31.4801C1229.01 30.7188 1228.91 30.0398 1228.7 29.4432C1228.5 28.8466 1228.19 28.375 1227.79 28.0284C1227.38 27.6818 1226.88 27.5085 1226.28 27.5085C1225.67 27.5085 1225.16 27.6818 1224.75 28.0284C1224.34 28.375 1224.03 28.8466 1223.82 29.4432C1223.61 30.0398 1223.51 30.7188 1223.51 31.4801C1223.51 32.2415 1223.61 32.9205 1223.82 33.517C1224.03 34.1136 1224.34 34.5852 1224.75 34.9318C1225.16 35.2727 1225.67 35.4432 1226.28 35.4432ZM1238.7 30.4318V38H1235.07V24.9091H1238.53V27.2188H1238.68C1238.97 26.4574 1239.46 25.8551 1240.14 25.4119C1240.82 24.9631 1241.65 24.7386 1242.62 24.7386C1243.53 24.7386 1244.32 24.9375 1245 25.3352C1245.67 25.733 1246.2 26.3011 1246.57 27.0398C1246.95 27.7727 1247.13 28.6477 1247.13 29.6648V38H1243.5V30.3125C1243.51 29.5114 1243.3 28.8864 1242.89 28.4375C1242.48 27.983 1241.9 27.7557 1241.18 27.7557C1240.69 27.7557 1240.26 27.8608 1239.88 28.071C1239.51 28.2812 1239.22 28.5881 1239.01 28.9915C1238.81 29.3892 1238.7 29.8693 1238.7 30.4318Z" fill="#0D1117"/>
<path d="M520.927 296V278.545H532.484V281.588H524.618V285.747H531.717V288.79H524.618V296H520.927ZM534.898 296V282.909H538.529V296H534.898ZM536.722 281.222C536.182 281.222 535.719 281.043 535.333 280.685C534.952 280.321 534.762 279.886 534.762 279.381C534.762 278.881 534.952 278.452 535.333 278.094C535.719 277.73 536.182 277.548 536.722 277.548C537.262 277.548 537.722 277.73 538.103 278.094C538.489 278.452 538.682 278.881 538.682 279.381C538.682 279.886 538.489 280.321 538.103 280.685C537.722 281.043 537.262 281.222 536.722 281.222ZM547.352 296.256C546.011 296.256 544.858 295.972 543.892 295.403C542.931 294.83 542.193 294.034 541.676 293.017C541.164 292 540.909 290.83 540.909 289.506C540.909 288.165 541.167 286.989 541.684 285.977C542.207 284.96 542.949 284.168 543.909 283.599C544.869 283.026 546.011 282.739 547.335 282.739C548.477 282.739 549.477 282.946 550.335 283.361C551.193 283.776 551.872 284.358 552.372 285.108C552.872 285.858 553.147 286.739 553.199 287.75H549.772C549.676 287.097 549.42 286.571 549.005 286.173C548.596 285.77 548.059 285.568 547.395 285.568C546.832 285.568 546.341 285.722 545.92 286.028C545.505 286.33 545.181 286.77 544.949 287.349C544.716 287.929 544.599 288.631 544.599 289.455C544.599 290.29 544.713 291 544.94 291.585C545.173 292.17 545.5 292.616 545.92 292.923C546.341 293.23 546.832 293.384 547.395 293.384C547.809 293.384 548.181 293.298 548.511 293.128C548.846 292.957 549.122 292.71 549.338 292.386C549.559 292.057 549.704 291.662 549.772 291.202H553.199C553.142 292.202 552.869 293.082 552.38 293.844C551.897 294.599 551.23 295.19 550.377 295.616C549.525 296.043 548.517 296.256 547.352 296.256ZM562.486 282.909V285.636H554.603V282.909H562.486ZM556.392 279.773H560.023V291.977C560.023 292.312 560.074 292.574 560.176 292.761C560.279 292.943 560.421 293.071 560.603 293.145C560.79 293.219 561.006 293.256 561.25 293.256C561.421 293.256 561.591 293.241 561.762 293.213C561.932 293.179 562.063 293.153 562.154 293.136L562.725 295.838C562.543 295.895 562.287 295.96 561.958 296.034C561.628 296.114 561.228 296.162 560.756 296.179C559.881 296.213 559.114 296.097 558.455 295.83C557.801 295.562 557.293 295.148 556.929 294.585C556.566 294.023 556.387 293.312 556.392 292.455V279.773ZM564.851 296V282.909H568.482V296H564.851ZM566.675 281.222C566.135 281.222 565.672 281.043 565.286 280.685C564.905 280.321 564.715 279.886 564.715 279.381C564.715 278.881 564.905 278.452 565.286 278.094C565.672 277.73 566.135 277.548 566.675 277.548C567.215 277.548 567.675 277.73 568.056 278.094C568.442 278.452 568.635 278.881 568.635 279.381C568.635 279.886 568.442 280.321 568.056 280.685C567.675 281.043 567.215 281.222 566.675 281.222ZM577.305 296.256C575.981 296.256 574.836 295.974 573.87 295.412C572.91 294.844 572.169 294.054 571.646 293.043C571.123 292.026 570.862 290.847 570.862 289.506C570.862 288.153 571.123 286.972 571.646 285.96C572.169 284.943 572.91 284.153 573.87 283.591C574.836 283.023 575.981 282.739 577.305 282.739C578.629 282.739 579.771 283.023 580.731 283.591C581.697 284.153 582.441 284.943 582.964 285.96C583.487 286.972 583.748 288.153 583.748 289.506C583.748 290.847 583.487 292.026 582.964 293.043C582.441 294.054 581.697 294.844 580.731 295.412C579.771 295.974 578.629 296.256 577.305 296.256ZM577.322 293.443C577.924 293.443 578.427 293.273 578.831 292.932C579.234 292.585 579.538 292.114 579.743 291.517C579.953 290.92 580.058 290.241 580.058 289.48C580.058 288.719 579.953 288.04 579.743 287.443C579.538 286.847 579.234 286.375 578.831 286.028C578.427 285.682 577.924 285.509 577.322 285.509C576.714 285.509 576.203 285.682 575.788 286.028C575.379 286.375 575.069 286.847 574.859 287.443C574.654 288.04 574.552 288.719 574.552 289.48C574.552 290.241 574.654 290.92 574.859 291.517C575.069 292.114 575.379 292.585 575.788 292.932C576.203 293.273 576.714 293.443 577.322 293.443ZM589.74 288.432V296H586.109V282.909H589.569V285.219H589.723C590.012 284.457 590.498 283.855 591.18 283.412C591.862 282.963 592.689 282.739 593.66 282.739C594.569 282.739 595.362 282.938 596.038 283.335C596.714 283.733 597.24 284.301 597.615 285.04C597.99 285.773 598.177 286.648 598.177 287.665V296H594.547V288.312C594.552 287.511 594.348 286.886 593.933 286.438C593.518 285.983 592.947 285.756 592.22 285.756C591.731 285.756 591.299 285.861 590.924 286.071C590.555 286.281 590.265 286.588 590.055 286.991C589.85 287.389 589.745 287.869 589.74 288.432Z" fill="#0D1117"/>
<path d="M174.759 615V597.545H186.316V600.588H178.45V604.747H185.549V607.79H178.45V615H174.759ZM192.299 615.247C191.464 615.247 190.719 615.102 190.066 614.812C189.413 614.517 188.896 614.082 188.515 613.509C188.14 612.929 187.952 612.207 187.952 611.344C187.952 610.616 188.086 610.006 188.353 609.511C188.62 609.017 188.984 608.619 189.444 608.318C189.904 608.017 190.427 607.79 191.012 607.636C191.603 607.483 192.222 607.375 192.87 607.312C193.631 607.233 194.245 607.159 194.711 607.091C195.177 607.017 195.515 606.909 195.725 606.767C195.935 606.625 196.04 606.415 196.04 606.136V606.085C196.04 605.545 195.87 605.128 195.529 604.832C195.194 604.537 194.717 604.389 194.097 604.389C193.444 604.389 192.924 604.534 192.538 604.824C192.151 605.108 191.896 605.466 191.771 605.898L188.413 605.625C188.583 604.83 188.918 604.142 189.418 603.562C189.918 602.977 190.563 602.528 191.353 602.216C192.148 601.898 193.069 601.739 194.114 601.739C194.842 601.739 195.538 601.824 196.202 601.994C196.873 602.165 197.467 602.429 197.984 602.787C198.506 603.145 198.918 603.605 199.219 604.168C199.521 604.724 199.671 605.392 199.671 606.17V615H196.228V613.185H196.126C195.915 613.594 195.634 613.955 195.282 614.267C194.93 614.574 194.506 614.815 194.012 614.991C193.518 615.162 192.947 615.247 192.299 615.247ZM193.339 612.741C193.873 612.741 194.344 612.636 194.754 612.426C195.163 612.21 195.484 611.92 195.717 611.557C195.95 611.193 196.066 610.781 196.066 610.321V608.932C195.952 609.006 195.796 609.074 195.597 609.136C195.404 609.193 195.185 609.247 194.941 609.298C194.697 609.344 194.452 609.386 194.208 609.426C193.964 609.46 193.742 609.491 193.543 609.52C193.117 609.582 192.745 609.682 192.427 609.818C192.109 609.955 191.862 610.139 191.685 610.372C191.509 610.599 191.421 610.884 191.421 611.224C191.421 611.719 191.6 612.097 191.958 612.358C192.322 612.614 192.782 612.741 193.339 612.741ZM206.119 607.432V615H202.488V601.909H205.948V604.219H206.102C206.391 603.457 206.877 602.855 207.559 602.412C208.241 601.963 209.067 601.739 210.039 601.739C210.948 601.739 211.741 601.938 212.417 602.335C213.093 602.733 213.619 603.301 213.994 604.04C214.369 604.773 214.556 605.648 214.556 606.665V615H210.925V607.312C210.931 606.511 210.727 605.886 210.312 605.438C209.897 604.983 209.326 604.756 208.599 604.756C208.11 604.756 207.678 604.861 207.303 605.071C206.934 605.281 206.644 605.588 206.434 605.991C206.229 606.389 206.124 606.869 206.119 607.432ZM224.381 601.909V604.636H216.497V601.909H224.381ZM218.287 598.773H221.918V610.977C221.918 611.312 221.969 611.574 222.071 611.761C222.173 611.943 222.315 612.071 222.497 612.145C222.685 612.219 222.901 612.256 223.145 612.256C223.315 612.256 223.486 612.241 223.656 612.213C223.827 612.179 223.957 612.153 224.048 612.136L224.619 614.838C224.438 614.895 224.182 614.96 223.852 615.034C223.523 615.114 223.122 615.162 222.651 615.179C221.776 615.213 221.009 615.097 220.349 614.83C219.696 614.562 219.188 614.148 218.824 613.585C218.46 613.023 218.281 612.312 218.287 611.455V598.773ZM230.479 615.247C229.643 615.247 228.899 615.102 228.246 614.812C227.592 614.517 227.075 614.082 226.695 613.509C226.32 612.929 226.132 612.207 226.132 611.344C226.132 610.616 226.266 610.006 226.533 609.511C226.8 609.017 227.163 608.619 227.624 608.318C228.084 608.017 228.607 607.79 229.192 607.636C229.783 607.483 230.402 607.375 231.05 607.312C231.811 607.233 232.425 607.159 232.891 607.091C233.357 607.017 233.695 606.909 233.905 606.767C234.115 606.625 234.22 606.415 234.22 606.136V606.085C234.22 605.545 234.05 605.128 233.709 604.832C233.374 604.537 232.896 604.389 232.277 604.389C231.624 604.389 231.104 604.534 230.717 604.824C230.331 605.108 230.075 605.466 229.95 605.898L226.592 605.625C226.763 604.83 227.098 604.142 227.598 603.562C228.098 602.977 228.743 602.528 229.533 602.216C230.328 601.898 231.249 601.739 232.294 601.739C233.021 601.739 233.717 601.824 234.382 601.994C235.053 602.165 235.646 602.429 236.163 602.787C236.686 603.145 237.098 603.605 237.399 604.168C237.7 604.724 237.851 605.392 237.851 606.17V615H234.408V613.185H234.305C234.095 613.594 233.814 613.955 233.462 614.267C233.109 614.574 232.686 614.815 232.192 614.991C231.697 615.162 231.126 615.247 230.479 615.247ZM231.518 612.741C232.053 612.741 232.524 612.636 232.933 612.426C233.342 612.21 233.663 611.92 233.896 611.557C234.129 611.193 234.246 610.781 234.246 610.321V608.932C234.132 609.006 233.976 609.074 233.777 609.136C233.584 609.193 233.365 609.247 233.121 609.298C232.876 609.344 232.632 609.386 232.388 609.426C232.143 609.46 231.922 609.491 231.723 609.52C231.297 609.582 230.925 609.682 230.607 609.818C230.288 609.955 230.041 610.139 229.865 610.372C229.689 610.599 229.601 610.884 229.601 611.224C229.601 611.719 229.78 612.097 230.138 612.358C230.501 612.614 230.962 612.741 231.518 612.741ZM251.56 605.642L248.236 605.847C248.179 605.562 248.057 605.307 247.869 605.08C247.682 604.847 247.435 604.662 247.128 604.526C246.827 604.384 246.466 604.312 246.045 604.312C245.483 604.312 245.009 604.432 244.622 604.67C244.236 604.903 244.043 605.216 244.043 605.608C244.043 605.92 244.168 606.185 244.418 606.401C244.668 606.616 245.097 606.79 245.705 606.92L248.074 607.398C249.347 607.659 250.295 608.08 250.92 608.659C251.545 609.239 251.858 610 251.858 610.943C251.858 611.801 251.605 612.554 251.099 613.202C250.599 613.849 249.912 614.355 249.037 614.719C248.168 615.077 247.165 615.256 246.028 615.256C244.295 615.256 242.915 614.895 241.886 614.173C240.864 613.446 240.264 612.457 240.088 611.207L243.659 611.02C243.767 611.548 244.028 611.952 244.443 612.23C244.858 612.503 245.389 612.639 246.037 612.639C246.673 612.639 247.185 612.517 247.571 612.273C247.963 612.023 248.162 611.702 248.168 611.31C248.162 610.98 248.023 610.71 247.75 610.5C247.477 610.284 247.057 610.119 246.489 610.006L244.222 609.554C242.943 609.298 241.991 608.855 241.366 608.224C240.747 607.594 240.438 606.79 240.438 605.812C240.438 604.972 240.665 604.247 241.119 603.639C241.58 603.031 242.224 602.562 243.054 602.233C243.889 601.903 244.866 601.739 245.986 601.739C247.639 601.739 248.94 602.088 249.889 602.787C250.844 603.486 251.401 604.437 251.56 605.642ZM256.386 619.909C255.925 619.909 255.494 619.872 255.09 619.798C254.692 619.73 254.363 619.642 254.102 619.534L254.92 616.824C255.346 616.955 255.729 617.026 256.07 617.037C256.417 617.048 256.715 616.969 256.965 616.798C257.221 616.628 257.428 616.338 257.587 615.929L257.8 615.375L253.104 601.909H256.923L259.633 611.523H259.769L262.505 601.909H266.349L261.261 616.415C261.016 617.119 260.684 617.733 260.263 618.256C259.849 618.784 259.323 619.19 258.687 619.474C258.05 619.764 257.283 619.909 256.386 619.909Z" fill="#0D1117"/>
<path d="M837.181 602.565C837.113 601.878 836.82 601.344 836.303 600.963C835.786 600.582 835.085 600.392 834.198 600.392C833.596 600.392 833.087 600.477 832.673 600.648C832.258 600.812 831.94 601.043 831.718 601.338C831.502 601.634 831.394 601.969 831.394 602.344C831.383 602.656 831.448 602.929 831.59 603.162C831.738 603.395 831.94 603.597 832.195 603.767C832.451 603.932 832.746 604.077 833.082 604.202C833.417 604.321 833.775 604.423 834.156 604.509L835.724 604.884C836.485 605.054 837.184 605.281 837.82 605.565C838.457 605.849 839.008 606.199 839.474 606.614C839.94 607.028 840.3 607.517 840.556 608.08C840.817 608.642 840.951 609.287 840.957 610.014C840.951 611.082 840.678 612.009 840.138 612.793C839.604 613.571 838.832 614.176 837.82 614.608C836.815 615.034 835.602 615.247 834.181 615.247C832.772 615.247 831.545 615.031 830.499 614.599C829.46 614.168 828.647 613.528 828.062 612.682C827.482 611.83 827.178 610.776 827.15 609.52H830.721C830.761 610.105 830.928 610.594 831.224 610.986C831.525 611.372 831.925 611.665 832.425 611.864C832.931 612.057 833.502 612.153 834.138 612.153C834.763 612.153 835.306 612.062 835.766 611.881C836.232 611.699 836.593 611.446 836.849 611.122C837.104 610.798 837.232 610.426 837.232 610.006C837.232 609.614 837.116 609.284 836.883 609.017C836.656 608.75 836.32 608.523 835.877 608.335C835.44 608.148 834.903 607.977 834.266 607.824L832.366 607.347C830.894 606.989 829.732 606.429 828.88 605.668C828.028 604.906 827.604 603.881 827.61 602.591C827.604 601.534 827.886 600.611 828.454 599.821C829.028 599.031 829.815 598.415 830.815 597.972C831.815 597.528 832.951 597.307 834.224 597.307C835.519 597.307 836.65 597.528 837.616 597.972C838.587 598.415 839.343 599.031 839.883 599.821C840.423 600.611 840.701 601.526 840.718 602.565H837.181ZM847.001 597.545V615H843.371V597.545H847.001ZM849.91 615V601.909H853.54V615H849.91ZM851.734 600.222C851.194 600.222 850.731 600.043 850.344 599.685C849.964 599.321 849.773 598.886 849.773 598.381C849.773 597.881 849.964 597.452 850.344 597.094C850.731 596.73 851.194 596.548 851.734 596.548C852.273 596.548 852.734 596.73 853.114 597.094C853.501 597.452 853.694 597.881 853.694 598.381C853.694 598.886 853.501 599.321 853.114 599.685C852.734 600.043 852.273 600.222 851.734 600.222ZM862.364 615.256C861.023 615.256 859.869 614.972 858.903 614.403C857.943 613.83 857.205 613.034 856.688 612.017C856.176 611 855.92 609.83 855.92 608.506C855.92 607.165 856.179 605.989 856.696 604.977C857.219 603.96 857.96 603.168 858.92 602.599C859.881 602.026 861.023 601.739 862.347 601.739C863.489 601.739 864.489 601.946 865.347 602.361C866.205 602.776 866.884 603.358 867.384 604.108C867.884 604.858 868.159 605.739 868.21 606.75H864.784C864.688 606.097 864.432 605.571 864.017 605.173C863.608 604.77 863.071 604.568 862.406 604.568C861.844 604.568 861.352 604.722 860.932 605.028C860.517 605.33 860.193 605.77 859.96 606.349C859.727 606.929 859.611 607.631 859.611 608.455C859.611 609.29 859.724 610 859.952 610.585C860.185 611.17 860.511 611.616 860.932 611.923C861.352 612.23 861.844 612.384 862.406 612.384C862.821 612.384 863.193 612.298 863.523 612.128C863.858 611.957 864.134 611.71 864.349 611.386C864.571 611.057 864.716 610.662 864.784 610.202H868.21C868.153 611.202 867.881 612.082 867.392 612.844C866.909 613.599 866.241 614.19 865.389 614.616C864.537 615.043 863.528 615.256 862.364 615.256ZM876.501 615.256C875.154 615.256 873.995 614.983 873.023 614.438C872.058 613.886 871.313 613.108 870.79 612.102C870.268 611.091 870.006 609.895 870.006 608.514C870.006 607.168 870.268 605.986 870.79 604.969C871.313 603.952 872.049 603.159 872.998 602.591C873.952 602.023 875.072 601.739 876.356 601.739C877.219 601.739 878.023 601.878 878.768 602.156C879.518 602.429 880.171 602.841 880.728 603.392C881.29 603.943 881.728 604.636 882.04 605.472C882.353 606.301 882.509 607.273 882.509 608.386V609.384H871.455V607.134H879.092C879.092 606.611 878.978 606.148 878.751 605.744C878.523 605.341 878.208 605.026 877.805 604.798C877.407 604.565 876.944 604.449 876.415 604.449C875.864 604.449 875.376 604.577 874.95 604.832C874.529 605.082 874.2 605.42 873.961 605.847C873.722 606.267 873.6 606.736 873.594 607.253V609.392C873.594 610.04 873.714 610.599 873.952 611.071C874.197 611.543 874.54 611.906 874.984 612.162C875.427 612.418 875.952 612.545 876.56 612.545C876.964 612.545 877.333 612.489 877.668 612.375C878.004 612.261 878.29 612.091 878.529 611.864C878.768 611.636 878.95 611.358 879.075 611.028L882.433 611.25C882.262 612.057 881.913 612.761 881.384 613.364C880.862 613.96 880.185 614.426 879.356 614.761C878.532 615.091 877.58 615.256 876.501 615.256ZM896.348 615.256C895.024 615.256 893.879 614.974 892.913 614.412C891.953 613.844 891.212 613.054 890.689 612.043C890.166 611.026 889.905 609.847 889.905 608.506C889.905 607.153 890.166 605.972 890.689 604.96C891.212 603.943 891.953 603.153 892.913 602.591C893.879 602.023 895.024 601.739 896.348 601.739C897.672 601.739 898.814 602.023 899.774 602.591C900.74 603.153 901.484 603.943 902.007 604.96C902.53 605.972 902.791 607.153 902.791 608.506C902.791 609.847 902.53 611.026 902.007 612.043C901.484 613.054 900.74 613.844 899.774 614.412C898.814 614.974 897.672 615.256 896.348 615.256ZM896.365 612.443C896.967 612.443 897.47 612.273 897.874 611.932C898.277 611.585 898.581 611.114 898.786 610.517C898.996 609.92 899.101 609.241 899.101 608.48C899.101 607.719 898.996 607.04 898.786 606.443C898.581 605.847 898.277 605.375 897.874 605.028C897.47 604.682 896.967 604.509 896.365 604.509C895.757 604.509 895.246 604.682 894.831 605.028C894.422 605.375 894.112 605.847 893.902 606.443C893.697 607.04 893.595 607.719 893.595 608.48C893.595 609.241 893.697 609.92 893.902 610.517C894.112 611.114 894.422 611.585 894.831 611.932C895.246 612.273 895.757 612.443 896.365 612.443ZM912.192 601.909V604.636H904.112V601.909H912.192ZM905.962 615V600.963C905.962 600.014 906.146 599.227 906.516 598.602C906.891 597.977 907.402 597.509 908.05 597.196C908.697 596.884 909.433 596.727 910.257 596.727C910.814 596.727 911.322 596.77 911.783 596.855C912.249 596.94 912.595 597.017 912.822 597.085L912.175 599.812C912.033 599.767 911.857 599.724 911.646 599.685C911.442 599.645 911.232 599.625 911.016 599.625C910.482 599.625 910.109 599.75 909.899 600C909.689 600.244 909.584 600.588 909.584 601.031V615H905.962ZM920.033 615V597.545H923.723V611.957H931.206V615H920.033ZM933.582 615V601.909H937.212V615H933.582ZM935.406 600.222C934.866 600.222 934.403 600.043 934.016 599.685C933.636 599.321 933.445 598.886 933.445 598.381C933.445 597.881 933.636 597.452 934.016 597.094C934.403 596.73 934.866 596.548 935.406 596.548C935.945 596.548 936.406 596.73 936.786 597.094C937.173 597.452 937.366 597.881 937.366 598.381C937.366 598.886 937.173 599.321 936.786 599.685C936.406 600.043 935.945 600.222 935.406 600.222ZM947.161 601.909V604.636H939.081V601.909H947.161ZM940.93 615V600.963C940.93 600.014 941.115 599.227 941.484 598.602C941.859 597.977 942.371 597.509 943.018 597.196C943.666 596.884 944.402 596.727 945.226 596.727C945.783 596.727 946.291 596.77 946.751 596.855C947.217 596.94 947.564 597.017 947.791 597.085L947.143 599.812C947.001 599.767 946.825 599.724 946.615 599.685C946.411 599.645 946.2 599.625 945.984 599.625C945.45 599.625 945.078 599.75 944.868 600C944.658 600.244 944.553 600.588 944.553 601.031V615H940.93ZM954.876 615.256C953.529 615.256 952.37 614.983 951.398 614.438C950.433 613.886 949.688 613.108 949.165 612.102C948.643 611.091 948.381 609.895 948.381 608.514C948.381 607.168 948.643 605.986 949.165 604.969C949.688 603.952 950.424 603.159 951.373 602.591C952.327 602.023 953.447 601.739 954.731 601.739C955.594 601.739 956.398 601.878 957.143 602.156C957.893 602.429 958.546 602.841 959.103 603.392C959.665 603.943 960.103 604.636 960.415 605.472C960.728 606.301 960.884 607.273 960.884 608.386V609.384H949.83V607.134H957.467C957.467 606.611 957.353 606.148 957.126 605.744C956.898 605.341 956.583 605.026 956.18 604.798C955.782 604.565 955.319 604.449 954.79 604.449C954.239 604.449 953.751 604.577 953.325 604.832C952.904 605.082 952.575 605.42 952.336 605.847C952.097 606.267 951.975 606.736 951.969 607.253V609.392C951.969 610.04 952.089 610.599 952.327 611.071C952.572 611.543 952.915 611.906 953.359 612.162C953.802 612.418 954.327 612.545 954.935 612.545C955.339 612.545 955.708 612.489 956.043 612.375C956.379 612.261 956.665 612.091 956.904 611.864C957.143 611.636 957.325 611.358 957.45 611.028L960.808 611.25C960.637 612.057 960.288 612.761 959.759 613.364C959.237 613.96 958.56 614.426 957.731 614.761C956.907 615.091 955.955 615.256 954.876 615.256Z" fill="#0D1117"/>
<path d="M1730.27 278.545V296H1727.08L1719.49 285.014H1719.36V296H1715.67V278.545H1718.91L1726.44 289.523H1726.6V278.545H1730.27ZM1739.16 296.256C1737.84 296.256 1736.7 295.974 1735.73 295.412C1734.77 294.844 1734.03 294.054 1733.51 293.043C1732.98 292.026 1732.72 290.847 1732.72 289.506C1732.72 288.153 1732.98 286.972 1733.51 285.96C1734.03 284.943 1734.77 284.153 1735.73 283.591C1736.7 283.023 1737.84 282.739 1739.16 282.739C1740.49 282.739 1741.63 283.023 1742.59 283.591C1743.56 284.153 1744.3 284.943 1744.82 285.96C1745.35 286.972 1745.61 288.153 1745.61 289.506C1745.61 290.847 1745.35 292.026 1744.82 293.043C1744.3 294.054 1743.56 294.844 1742.59 295.412C1741.63 295.974 1740.49 296.256 1739.16 296.256ZM1739.18 293.443C1739.78 293.443 1740.29 293.273 1740.69 292.932C1741.09 292.585 1741.4 292.114 1741.6 291.517C1741.81 290.92 1741.92 290.241 1741.92 289.48C1741.92 288.719 1741.81 288.04 1741.6 287.443C1741.4 286.847 1741.09 286.375 1740.69 286.028C1740.29 285.682 1739.78 285.509 1739.18 285.509C1738.57 285.509 1738.06 285.682 1737.65 286.028C1737.24 286.375 1736.93 286.847 1736.72 287.443C1736.51 288.04 1736.41 288.719 1736.41 289.48C1736.41 290.241 1736.51 290.92 1736.72 291.517C1736.93 292.114 1737.24 292.585 1737.65 292.932C1738.06 293.273 1738.57 293.443 1739.18 293.443ZM1751.6 288.432V296H1747.97V282.909H1751.43V285.219H1751.58C1751.87 284.457 1752.36 283.855 1753.04 283.412C1753.72 282.963 1754.55 282.739 1755.52 282.739C1756.43 282.739 1757.22 282.938 1757.9 283.335C1758.57 283.733 1759.1 284.301 1759.47 285.04C1759.85 285.773 1760.04 286.648 1760.04 287.665V296H1756.41V288.312C1756.41 287.511 1756.21 286.886 1755.79 286.438C1755.38 285.983 1754.81 285.756 1754.08 285.756C1753.59 285.756 1753.16 285.861 1752.78 286.071C1752.41 286.281 1752.12 286.588 1751.91 286.991C1751.71 287.389 1751.6 287.869 1751.6 288.432ZM1769.94 282.909V285.636H1761.86V282.909H1769.94ZM1763.71 296V281.963C1763.71 281.014 1763.89 280.227 1764.26 279.602C1764.64 278.977 1765.15 278.509 1765.8 278.196C1766.44 277.884 1767.18 277.727 1768 277.727C1768.56 277.727 1769.07 277.77 1769.53 277.855C1769.99 277.94 1770.34 278.017 1770.57 278.085L1769.92 280.812C1769.78 280.767 1769.6 280.724 1769.39 280.685C1769.19 280.645 1768.98 280.625 1768.76 280.625C1768.23 280.625 1767.86 280.75 1767.65 281C1767.44 281.244 1767.33 281.588 1767.33 282.031V296H1763.71ZM1772.16 296V282.909H1775.79V296H1772.16ZM1773.98 281.222C1773.44 281.222 1772.98 281.043 1772.59 280.685C1772.21 280.321 1772.02 279.886 1772.02 279.381C1772.02 278.881 1772.21 278.452 1772.59 278.094C1772.98 277.73 1773.44 277.548 1773.98 277.548C1774.52 277.548 1774.98 277.73 1775.36 278.094C1775.75 278.452 1775.94 278.881 1775.94 279.381C1775.94 279.886 1775.75 280.321 1775.36 280.685C1774.98 281.043 1774.52 281.222 1773.98 281.222ZM1784.61 296.256C1783.27 296.256 1782.12 295.972 1781.15 295.403C1780.19 294.83 1779.45 294.034 1778.93 293.017C1778.42 292 1778.17 290.83 1778.17 289.506C1778.17 288.165 1778.43 286.989 1778.94 285.977C1779.46 284.96 1780.21 284.168 1781.17 283.599C1782.13 283.026 1783.27 282.739 1784.59 282.739C1785.73 282.739 1786.73 282.946 1787.59 283.361C1788.45 283.776 1789.13 284.358 1789.63 285.108C1790.13 285.858 1790.41 286.739 1790.46 287.75H1787.03C1786.93 287.097 1786.68 286.571 1786.26 286.173C1785.85 285.77 1785.32 285.568 1784.65 285.568C1784.09 285.568 1783.6 285.722 1783.18 286.028C1782.76 286.33 1782.44 286.77 1782.21 287.349C1781.97 287.929 1781.86 288.631 1781.86 289.455C1781.86 290.29 1781.97 291 1782.2 291.585C1782.43 292.17 1782.76 292.616 1783.18 292.923C1783.6 293.23 1784.09 293.384 1784.65 293.384C1785.07 293.384 1785.44 293.298 1785.77 293.128C1786.1 292.957 1786.38 292.71 1786.6 292.386C1786.82 292.057 1786.96 291.662 1787.03 291.202H1790.46C1790.4 292.202 1790.13 293.082 1789.64 293.844C1789.16 294.599 1788.49 295.19 1787.64 295.616C1786.78 296.043 1785.77 296.256 1784.61 296.256ZM1799.74 282.909V285.636H1791.86V282.909H1799.74ZM1793.65 279.773H1797.28V291.977C1797.28 292.312 1797.33 292.574 1797.43 292.761C1797.54 292.943 1797.68 293.071 1797.86 293.145C1798.05 293.219 1798.26 293.256 1798.51 293.256C1798.68 293.256 1798.85 293.241 1799.02 293.213C1799.19 293.179 1799.32 293.153 1799.41 293.136L1799.98 295.838C1799.8 295.895 1799.55 295.96 1799.22 296.034C1798.89 296.114 1798.49 296.162 1798.01 296.179C1797.14 296.213 1796.37 296.097 1795.71 295.83C1795.06 295.562 1794.55 295.148 1794.19 294.585C1793.82 294.023 1793.64 293.312 1793.65 292.455V279.773ZM1802.11 296V282.909H1805.74V296H1802.11ZM1803.93 281.222C1803.39 281.222 1802.93 281.043 1802.54 280.685C1802.16 280.321 1801.97 279.886 1801.97 279.381C1801.97 278.881 1802.16 278.452 1802.54 278.094C1802.93 277.73 1803.39 277.548 1803.93 277.548C1804.47 277.548 1804.93 277.73 1805.31 278.094C1805.7 278.452 1805.89 278.881 1805.89 279.381C1805.89 279.886 1805.7 280.321 1805.31 280.685C1804.93 281.043 1804.47 281.222 1803.93 281.222ZM1814.56 296.256C1813.24 296.256 1812.09 295.974 1811.13 295.412C1810.17 294.844 1809.43 294.054 1808.9 293.043C1808.38 292.026 1808.12 290.847 1808.12 289.506C1808.12 288.153 1808.38 286.972 1808.9 285.96C1809.43 284.943 1810.17 284.153 1811.13 283.591C1812.09 283.023 1813.24 282.739 1814.56 282.739C1815.89 282.739 1817.03 283.023 1817.99 283.591C1818.95 284.153 1819.7 284.943 1820.22 285.96C1820.74 286.972 1821.01 288.153 1821.01 289.506C1821.01 290.847 1820.74 292.026 1820.22 293.043C1819.7 294.054 1818.95 294.844 1817.99 295.412C1817.03 295.974 1815.89 296.256 1814.56 296.256ZM1814.58 293.443C1815.18 293.443 1815.69 293.273 1816.09 292.932C1816.49 292.585 1816.8 292.114 1817 291.517C1817.21 290.92 1817.32 290.241 1817.32 289.48C1817.32 288.719 1817.21 288.04 1817 287.443C1816.8 286.847 1816.49 286.375 1816.09 286.028C1815.69 285.682 1815.18 285.509 1814.58 285.509C1813.97 285.509 1813.46 285.682 1813.05 286.028C1812.64 286.375 1812.33 286.847 1812.12 287.443C1811.91 288.04 1811.81 288.719 1811.81 289.48C1811.81 290.241 1811.91 290.92 1812.12 291.517C1812.33 292.114 1812.64 292.585 1813.05 292.932C1813.46 293.273 1813.97 293.443 1814.58 293.443ZM1827 288.432V296H1823.37V282.909H1826.83V285.219H1826.98C1827.27 284.457 1827.76 283.855 1828.44 283.412C1829.12 282.963 1829.95 282.739 1830.92 282.739C1831.83 282.739 1832.62 282.938 1833.3 283.335C1833.97 283.733 1834.5 284.301 1834.87 285.04C1835.25 285.773 1835.44 286.648 1835.44 287.665V296H1831.8V288.312C1831.81 287.511 1831.61 286.886 1831.19 286.438C1830.78 285.983 1830.2 285.756 1829.48 285.756C1828.99 285.756 1828.56 285.861 1828.18 286.071C1827.81 286.281 1827.52 286.588 1827.31 286.991C1827.11 287.389 1827 287.869 1827 288.432Z" fill="#0D1117"/>
<path d="M1399.96 615V597.545H1403.65V604.747H1411.14V597.545H1414.83V615H1411.14V607.79H1403.65V615H1399.96ZM1417.8 615V601.909H1421.43V615H1417.8ZM1419.62 600.222C1419.08 600.222 1418.62 600.043 1418.24 599.685C1417.85 599.321 1417.66 598.886 1417.66 598.381C1417.66 597.881 1417.85 597.452 1418.24 597.094C1418.62 596.73 1419.08 596.548 1419.62 596.548C1420.16 596.548 1420.62 596.73 1421 597.094C1421.39 597.452 1421.58 597.881 1421.58 598.381C1421.58 598.886 1421.39 599.321 1421 599.685C1420.62 600.043 1420.16 600.222 1419.62 600.222ZM1435.23 605.642L1431.91 605.847C1431.85 605.562 1431.73 605.307 1431.54 605.08C1431.35 604.847 1431.11 604.662 1430.8 604.526C1430.5 604.384 1430.14 604.312 1429.72 604.312C1429.15 604.312 1428.68 604.432 1428.29 604.67C1427.91 604.903 1427.71 605.216 1427.71 605.608C1427.71 605.92 1427.84 606.185 1428.09 606.401C1428.34 606.616 1428.77 606.79 1429.38 606.92L1431.75 607.398C1433.02 607.659 1433.97 608.08 1434.59 608.659C1435.22 609.239 1435.53 610 1435.53 610.943C1435.53 611.801 1435.28 612.554 1434.77 613.202C1434.27 613.849 1433.58 614.355 1432.71 614.719C1431.84 615.077 1430.84 615.256 1429.7 615.256C1427.97 615.256 1426.59 614.895 1425.56 614.173C1424.54 613.446 1423.94 612.457 1423.76 611.207L1427.33 611.02C1427.44 611.548 1427.7 611.952 1428.12 612.23C1428.53 612.503 1429.06 612.639 1429.71 612.639C1430.35 612.639 1430.86 612.517 1431.24 612.273C1431.63 612.023 1431.83 611.702 1431.84 611.31C1431.83 610.98 1431.69 610.71 1431.42 610.5C1431.15 610.284 1430.73 610.119 1430.16 610.006L1427.89 609.554C1426.62 609.298 1425.66 608.855 1425.04 608.224C1424.42 607.594 1424.11 606.79 1424.11 605.812C1424.11 604.972 1424.34 604.247 1424.79 603.639C1425.25 603.031 1425.9 602.562 1426.73 602.233C1427.56 601.903 1428.54 601.739 1429.66 601.739C1431.31 601.739 1432.61 602.088 1433.56 602.787C1434.52 603.486 1435.07 604.437 1435.23 605.642ZM1444.78 601.909V604.636H1436.9V601.909H1444.78ZM1438.69 598.773H1442.32V610.977C1442.32 611.312 1442.37 611.574 1442.47 611.761C1442.57 611.943 1442.71 612.071 1442.9 612.145C1443.08 612.219 1443.3 612.256 1443.54 612.256C1443.71 612.256 1443.88 612.241 1444.05 612.213C1444.23 612.179 1444.36 612.153 1444.45 612.136L1445.02 614.838C1444.84 614.895 1444.58 614.96 1444.25 615.034C1443.92 615.114 1443.52 615.162 1443.05 615.179C1442.17 615.213 1441.41 615.097 1440.75 614.83C1440.09 614.562 1439.59 614.148 1439.22 613.585C1438.86 613.023 1438.68 612.312 1438.69 611.455V598.773ZM1452.92 615.256C1451.59 615.256 1450.45 614.974 1449.48 614.412C1448.52 613.844 1447.78 613.054 1447.26 612.043C1446.74 611.026 1446.48 609.847 1446.48 608.506C1446.48 607.153 1446.74 605.972 1447.26 604.96C1447.78 603.943 1448.52 603.153 1449.48 602.591C1450.45 602.023 1451.59 601.739 1452.92 601.739C1454.24 601.739 1455.38 602.023 1456.34 602.591C1457.31 603.153 1458.05 603.943 1458.58 604.96C1459.1 605.972 1459.36 607.153 1459.36 608.506C1459.36 609.847 1459.1 611.026 1458.58 612.043C1458.05 613.054 1457.31 613.844 1456.34 614.412C1455.38 614.974 1454.24 615.256 1452.92 615.256ZM1452.94 612.443C1453.54 612.443 1454.04 612.273 1454.44 611.932C1454.85 611.585 1455.15 611.114 1455.36 610.517C1455.57 609.92 1455.67 609.241 1455.67 608.48C1455.67 607.719 1455.57 607.04 1455.36 606.443C1455.15 605.847 1454.85 605.375 1454.44 605.028C1454.04 604.682 1453.54 604.509 1452.94 604.509C1452.33 604.509 1451.82 604.682 1451.4 605.028C1450.99 605.375 1450.68 605.847 1450.47 606.443C1450.27 607.04 1450.17 607.719 1450.17 608.48C1450.17 609.241 1450.27 609.92 1450.47 610.517C1450.68 611.114 1450.99 611.585 1451.4 611.932C1451.82 612.273 1452.33 612.443 1452.94 612.443ZM1461.72 615V601.909H1465.24V604.193H1465.38C1465.62 603.381 1466.02 602.767 1466.58 602.352C1467.14 601.932 1467.79 601.722 1468.52 601.722C1468.71 601.722 1468.9 601.733 1469.11 601.756C1469.32 601.778 1469.51 601.81 1469.67 601.849V605.071C1469.5 605.02 1469.26 604.974 1468.96 604.935C1468.66 604.895 1468.38 604.875 1468.13 604.875C1467.6 604.875 1467.12 604.991 1466.7 605.224C1466.28 605.452 1465.96 605.77 1465.71 606.179C1465.47 606.588 1465.35 607.06 1465.35 607.594V615H1461.72ZM1474.18 619.909C1473.72 619.909 1473.29 619.872 1472.89 619.798C1472.49 619.73 1472.16 619.642 1471.9 619.534L1472.72 616.824C1473.14 616.955 1473.53 617.026 1473.87 617.037C1474.21 617.048 1474.51 616.969 1474.76 616.798C1475.02 616.628 1475.23 616.338 1475.38 615.929L1475.6 615.375L1470.9 601.909H1474.72L1477.43 611.523H1477.57L1480.3 601.909H1484.15L1479.06 616.415C1478.81 617.119 1478.48 617.733 1478.06 618.256C1477.65 618.784 1477.12 619.19 1476.48 619.474C1475.85 619.764 1475.08 619.909 1474.18 619.909Z" fill="#0D1117"/>
<path d="M2130.67 615V597.545H2137.56C2138.88 597.545 2140.01 597.798 2140.94 598.304C2141.88 598.804 2142.59 599.5 2143.07 600.392C2143.57 601.278 2143.82 602.301 2143.82 603.46C2143.82 604.619 2143.57 605.642 2143.07 606.528C2142.57 607.415 2141.84 608.105 2140.89 608.599C2139.95 609.094 2138.81 609.341 2137.47 609.341H2133.08V606.384H2136.87C2137.58 606.384 2138.16 606.261 2138.62 606.017C2139.09 605.767 2139.44 605.423 2139.66 604.986C2139.9 604.543 2140.01 604.034 2140.01 603.46C2140.01 602.881 2139.9 602.375 2139.66 601.943C2139.44 601.506 2139.09 601.168 2138.62 600.929C2138.16 600.685 2137.57 600.562 2136.85 600.562H2134.36V615H2130.67ZM2149.77 607.432V615H2146.14V597.545H2149.67V604.219H2149.83C2150.12 603.446 2150.6 602.841 2151.26 602.403C2151.92 601.96 2152.74 601.739 2153.74 601.739C2154.65 601.739 2155.44 601.938 2156.12 602.335C2156.8 602.727 2157.33 603.293 2157.7 604.031C2158.08 604.764 2158.27 605.642 2158.26 606.665V615H2154.63V607.312C2154.64 606.506 2154.43 605.878 2154.02 605.429C2153.61 604.98 2153.04 604.756 2152.3 604.756C2151.8 604.756 2151.37 604.861 2150.99 605.071C2150.61 605.281 2150.31 605.588 2150.1 605.991C2149.89 606.389 2149.78 606.869 2149.77 607.432ZM2162.89 619.909C2162.43 619.909 2162 619.872 2161.6 619.798C2161.2 619.73 2160.87 619.642 2160.61 619.534L2161.43 616.824C2161.85 616.955 2162.24 617.026 2162.58 617.037C2162.92 617.048 2163.22 616.969 2163.47 616.798C2163.73 616.628 2163.94 616.338 2164.1 615.929L2164.31 615.375L2159.61 601.909H2163.43L2166.14 611.523H2166.28L2169.01 601.909H2172.86L2167.77 616.415C2167.52 617.119 2167.19 617.733 2166.77 618.256C2166.36 618.784 2165.83 619.19 2165.19 619.474C2164.56 619.764 2163.79 619.909 2162.89 619.909ZM2185.61 605.642L2182.28 605.847C2182.23 605.562 2182.1 605.307 2181.92 605.08C2181.73 604.847 2181.48 604.662 2181.17 604.526C2180.87 604.384 2180.51 604.312 2180.09 604.312C2179.53 604.312 2179.06 604.432 2178.67 604.67C2178.28 604.903 2178.09 605.216 2178.09 605.608C2178.09 605.92 2178.21 606.185 2178.46 606.401C2178.71 606.616 2179.14 606.79 2179.75 606.92L2182.12 607.398C2183.39 607.659 2184.34 608.08 2184.97 608.659C2185.59 609.239 2185.9 610 2185.9 610.943C2185.9 611.801 2185.65 612.554 2185.15 613.202C2184.65 613.849 2183.96 614.355 2183.08 614.719C2182.21 615.077 2181.21 615.256 2180.08 615.256C2178.34 615.256 2176.96 614.895 2175.93 614.173C2174.91 613.446 2174.31 612.457 2174.13 611.207L2177.71 611.02C2177.81 611.548 2178.08 611.952 2178.49 612.23C2178.9 612.503 2179.44 612.639 2180.08 612.639C2180.72 612.639 2181.23 612.517 2181.62 612.273C2182.01 612.023 2182.21 611.702 2182.21 611.31C2182.21 610.98 2182.07 610.71 2181.8 610.5C2181.52 610.284 2181.1 610.119 2180.54 610.006L2178.27 609.554C2176.99 609.298 2176.04 608.855 2175.41 608.224C2174.79 607.594 2174.48 606.79 2174.48 605.812C2174.48 604.972 2174.71 604.247 2175.17 603.639C2175.63 603.031 2176.27 602.562 2177.1 602.233C2177.94 601.903 2178.91 601.739 2180.03 601.739C2181.69 601.739 2182.99 602.088 2183.94 602.787C2184.89 603.486 2185.45 604.437 2185.61 605.642ZM2188.19 615V601.909H2191.82V615H2188.19ZM2190.01 600.222C2189.48 600.222 2189.01 600.043 2188.63 599.685C2188.25 599.321 2188.05 598.886 2188.05 598.381C2188.05 597.881 2188.25 597.452 2188.63 597.094C2189.01 596.73 2189.48 596.548 2190.01 596.548C2190.55 596.548 2191.01 596.73 2191.4 597.094C2191.78 597.452 2191.98 597.881 2191.98 598.381C2191.98 598.886 2191.78 599.321 2191.4 599.685C2191.01 600.043 2190.55 600.222 2190.01 600.222ZM2200.64 615.256C2199.3 615.256 2198.15 614.972 2197.18 614.403C2196.22 613.83 2195.49 613.034 2194.97 612.017C2194.46 611 2194.2 609.83 2194.2 608.506C2194.2 607.165 2194.46 605.989 2194.98 604.977C2195.5 603.96 2196.24 603.168 2197.2 602.599C2198.16 602.026 2199.3 601.739 2200.63 601.739C2201.77 601.739 2202.77 601.946 2203.63 602.361C2204.49 602.776 2205.16 603.358 2205.66 604.108C2206.16 604.858 2206.44 605.739 2206.49 606.75H2203.07C2202.97 606.097 2202.71 605.571 2202.3 605.173C2201.89 604.77 2201.35 604.568 2200.69 604.568C2200.12 604.568 2199.63 604.722 2199.21 605.028C2198.8 605.33 2198.47 605.77 2198.24 606.349C2198.01 606.929 2197.89 607.631 2197.89 608.455C2197.89 609.29 2198.01 610 2198.23 610.585C2198.47 611.17 2198.79 611.616 2199.21 611.923C2199.63 612.23 2200.12 612.384 2200.69 612.384C2201.1 612.384 2201.47 612.298 2201.8 612.128C2202.14 611.957 2202.41 611.71 2202.63 611.386C2202.85 611.057 2203 610.662 2203.07 610.202H2206.49C2206.43 611.202 2206.16 612.082 2205.67 612.844C2205.19 613.599 2204.52 614.19 2203.67 614.616C2202.82 615.043 2201.81 615.256 2200.64 615.256ZM2219.71 605.642L2216.38 605.847C2216.33 605.562 2216.21 605.307 2216.02 605.08C2215.83 604.847 2215.58 604.662 2215.28 604.526C2214.98 604.384 2214.61 604.312 2214.19 604.312C2213.63 604.312 2213.16 604.432 2212.77 604.67C2212.38 604.903 2212.19 605.216 2212.19 605.608C2212.19 605.92 2212.32 606.185 2212.57 606.401C2212.82 606.616 2213.25 606.79 2213.85 606.92L2216.22 607.398C2217.5 607.659 2218.44 608.08 2219.07 608.659C2219.69 609.239 2220.01 610 2220.01 610.943C2220.01 611.801 2219.75 612.554 2219.25 613.202C2218.75 613.849 2218.06 614.355 2217.19 614.719C2216.32 615.077 2215.31 615.256 2214.18 615.256C2212.44 615.256 2211.06 614.895 2210.03 614.173C2209.01 613.446 2208.41 612.457 2208.24 611.207L2211.81 611.02C2211.92 611.548 2212.18 611.952 2212.59 612.23C2213.01 612.503 2213.54 612.639 2214.19 612.639C2214.82 612.639 2215.33 612.517 2215.72 612.273C2216.11 612.023 2216.31 611.702 2216.32 611.31C2216.31 610.98 2216.17 610.71 2215.9 610.5C2215.63 610.284 2215.21 610.119 2214.64 610.006L2212.37 609.554C2211.09 609.298 2210.14 608.855 2209.51 608.224C2208.9 607.594 2208.59 606.79 2208.59 605.812C2208.59 604.972 2208.81 604.247 2209.27 603.639C2209.73 603.031 2210.37 602.562 2211.2 602.233C2212.04 601.903 2213.01 601.739 2214.13 601.739C2215.79 601.739 2217.09 602.088 2218.04 602.787C2218.99 603.486 2219.55 604.437 2219.71 605.642Z" fill="#0D1117"/>
</svg>
