<svg width="454" height="188" viewBox="0 0 454 188" fill="none" xmlns="http://www.w3.org/2000/svg">
<rect y="70" width="64" height="37" fill="#FCCE2E"/>
<rect x="67" y="70" width="24" height="37" fill="#FCCE2E"/>
<path d="M19.1364 94H15.0114V82.3636H19.1705C20.3409 82.3636 21.3485 82.5966 22.1932 83.0625C23.0379 83.5246 23.6875 84.1894 24.142 85.0568C24.6004 85.9242 24.8295 86.9621 24.8295 88.1705C24.8295 89.3826 24.6004 90.4242 24.142 91.2955C23.6875 92.1667 23.0341 92.8352 22.1818 93.3011C21.3333 93.767 20.3182 94 19.1364 94ZM17.4716 91.892H19.0341C19.7614 91.892 20.3731 91.7633 20.8693 91.5057C21.3693 91.2443 21.7443 90.8409 21.9943 90.2955C22.2481 89.7462 22.375 89.0379 22.375 88.1705C22.375 87.3106 22.2481 86.608 21.9943 86.0625C21.7443 85.517 21.3712 85.1155 20.875 84.858C20.3788 84.6004 19.767 84.4716 19.0398 84.4716H17.4716V91.892ZM29.0952 94.1648C28.5384 94.1648 28.0421 94.0682 27.6065 93.875C27.1709 93.678 26.8262 93.3883 26.5724 93.0057C26.3224 92.6193 26.1974 92.1383 26.1974 91.5625C26.1974 91.0777 26.2865 90.6705 26.4645 90.3409C26.6425 90.0114 26.8849 89.7462 27.1918 89.5455C27.4986 89.3447 27.8471 89.1932 28.2372 89.0909C28.6312 88.9886 29.044 88.9167 29.4759 88.875C29.9834 88.822 30.3925 88.7727 30.7031 88.7273C31.0137 88.678 31.2391 88.6061 31.3793 88.5114C31.5194 88.4167 31.5895 88.2765 31.5895 88.0909V88.0568C31.5895 87.697 31.4759 87.4186 31.2486 87.2216C31.0251 87.0246 30.7069 86.9261 30.294 86.9261C29.8584 86.9261 29.5118 87.0227 29.2543 87.2159C28.9967 87.4053 28.8262 87.6439 28.7429 87.9318L26.5043 87.75C26.6179 87.2197 26.8414 86.7614 27.1747 86.375C27.508 85.9848 27.938 85.6856 28.4645 85.4773C28.9948 85.2652 29.6084 85.1591 30.3054 85.1591C30.7902 85.1591 31.2543 85.2159 31.6974 85.3295C32.1444 85.4432 32.5402 85.6193 32.8849 85.858C33.2334 86.0966 33.508 86.4034 33.7088 86.7784C33.9096 87.1496 34.0099 87.5947 34.0099 88.1136V94H31.7145V92.7898H31.6463C31.5062 93.0625 31.3187 93.303 31.0838 93.5114C30.849 93.7159 30.5668 93.8769 30.2372 93.9943C29.9077 94.108 29.527 94.1648 29.0952 94.1648ZM29.7884 92.4943C30.1444 92.4943 30.4588 92.4242 30.7315 92.2841C31.0043 92.1402 31.2183 91.947 31.3736 91.7045C31.5289 91.4621 31.6065 91.1875 31.6065 90.8807V89.9545C31.5308 90.0038 31.4266 90.0492 31.294 90.0909C31.1652 90.1288 31.0194 90.1648 30.8565 90.1989C30.6937 90.2292 30.5308 90.2576 30.3679 90.2841C30.205 90.3068 30.0573 90.3277 29.9247 90.3466C29.6406 90.3883 29.3925 90.4545 29.1804 90.5455C28.9683 90.6364 28.8035 90.7595 28.6861 90.9148C28.5687 91.0663 28.5099 91.2557 28.5099 91.483C28.5099 91.8125 28.6293 92.0644 28.8679 92.2386C29.1103 92.4091 29.4171 92.4943 29.7884 92.4943ZM40.5298 85.2727V87.0909H35.2741V85.2727H40.5298ZM36.4673 83.1818H38.8878V91.3182C38.8878 91.5417 38.9219 91.7159 38.9901 91.8409C39.0582 91.9621 39.1529 92.0473 39.2741 92.0966C39.3991 92.1458 39.5431 92.1705 39.706 92.1705C39.8196 92.1705 39.9332 92.161 40.0469 92.142C40.1605 92.1193 40.2476 92.1023 40.3082 92.0909L40.6889 93.892C40.5677 93.9299 40.3973 93.9735 40.1776 94.0227C39.9579 94.0758 39.6908 94.108 39.3764 94.1193C38.7931 94.142 38.2817 94.0644 37.8423 93.8864C37.4067 93.7083 37.0677 93.4318 36.8253 93.0568C36.5829 92.6818 36.4635 92.2083 36.4673 91.6364V83.1818ZM44.5952 94.1648C44.0384 94.1648 43.5421 94.0682 43.1065 93.875C42.6709 93.678 42.3262 93.3883 42.0724 93.0057C41.8224 92.6193 41.6974 92.1383 41.6974 91.5625C41.6974 91.0777 41.7865 90.6705 41.9645 90.3409C42.1425 90.0114 42.3849 89.7462 42.6918 89.5455C42.9986 89.3447 43.3471 89.1932 43.7372 89.0909C44.1312 88.9886 44.544 88.9167 44.9759 88.875C45.4834 88.822 45.8925 88.7727 46.2031 88.7273C46.5137 88.678 46.7391 88.6061 46.8793 88.5114C47.0194 88.4167 47.0895 88.2765 47.0895 88.0909V88.0568C47.0895 87.697 46.9759 87.4186 46.7486 87.2216C46.5251 87.0246 46.2069 86.9261 45.794 86.9261C45.3584 86.9261 45.0118 87.0227 44.7543 87.2159C44.4967 87.4053 44.3262 87.6439 44.2429 87.9318L42.0043 87.75C42.1179 87.2197 42.3414 86.7614 42.6747 86.375C43.008 85.9848 43.438 85.6856 43.9645 85.4773C44.4948 85.2652 45.1084 85.1591 45.8054 85.1591C46.2902 85.1591 46.7543 85.2159 47.1974 85.3295C47.6444 85.4432 48.0402 85.6193 48.3849 85.858C48.7334 86.0966 49.008 86.4034 49.2088 86.7784C49.4096 87.1496 49.5099 87.5947 49.5099 88.1136V94H47.2145V92.7898H47.1463C47.0062 93.0625 46.8187 93.303 46.5838 93.5114C46.349 93.7159 46.0668 93.8769 45.7372 93.9943C45.4077 94.108 45.027 94.1648 44.5952 94.1648ZM45.2884 92.4943C45.6444 92.4943 45.9588 92.4242 46.2315 92.2841C46.5043 92.1402 46.7183 91.947 46.8736 91.7045C47.0289 91.4621 47.1065 91.1875 47.1065 90.8807V89.9545C47.0308 90.0038 46.9266 90.0492 46.794 90.0909C46.6652 90.1288 46.5194 90.1648 46.3565 90.1989C46.1937 90.2292 46.0308 90.2576 45.8679 90.2841C45.705 90.3068 45.5573 90.3277 45.4247 90.3466C45.1406 90.3883 44.8925 90.4545 44.6804 90.5455C44.4683 90.6364 44.3035 90.7595 44.1861 90.9148C44.0687 91.0663 44.0099 91.2557 44.0099 91.483C44.0099 91.8125 44.1293 92.0644 44.3679 92.2386C44.6103 92.4091 44.9171 92.4943 45.2884 92.4943Z" fill="#0D1117"/>
<circle cx="79" cy="88" r="4" fill="#0D1117"/>
<rect x="121" y="70" width="64" height="37" fill="#FCCE2E"/>
<rect x="188" y="70" width="24" height="37" fill="#FCCE2E"/>
<path d="M140.136 94H136.011V82.3636H140.17C141.341 82.3636 142.348 82.5966 143.193 83.0625C144.038 83.5246 144.688 84.1894 145.142 85.0568C145.6 85.9242 145.83 86.9621 145.83 88.1705C145.83 89.3826 145.6 90.4242 145.142 91.2955C144.688 92.1667 144.034 92.8352 143.182 93.3011C142.333 93.767 141.318 94 140.136 94ZM138.472 91.892H140.034C140.761 91.892 141.373 91.7633 141.869 91.5057C142.369 91.2443 142.744 90.8409 142.994 90.2955C143.248 89.7462 143.375 89.0379 143.375 88.1705C143.375 87.3106 143.248 86.608 142.994 86.0625C142.744 85.517 142.371 85.1155 141.875 84.858C141.379 84.6004 140.767 84.4716 140.04 84.4716H138.472V91.892ZM150.095 94.1648C149.538 94.1648 149.042 94.0682 148.607 93.875C148.171 93.678 147.826 93.3883 147.572 93.0057C147.322 92.6193 147.197 92.1383 147.197 91.5625C147.197 91.0777 147.286 90.6705 147.464 90.3409C147.643 90.0114 147.885 89.7462 148.192 89.5455C148.499 89.3447 148.847 89.1932 149.237 89.0909C149.631 88.9886 150.044 88.9167 150.476 88.875C150.983 88.822 151.393 88.7727 151.703 88.7273C152.014 88.678 152.239 88.6061 152.379 88.5114C152.519 88.4167 152.589 88.2765 152.589 88.0909V88.0568C152.589 87.697 152.476 87.4186 152.249 87.2216C152.025 87.0246 151.707 86.9261 151.294 86.9261C150.858 86.9261 150.512 87.0227 150.254 87.2159C149.997 87.4053 149.826 87.6439 149.743 87.9318L147.504 87.75C147.618 87.2197 147.841 86.7614 148.175 86.375C148.508 85.9848 148.938 85.6856 149.464 85.4773C149.995 85.2652 150.608 85.1591 151.305 85.1591C151.79 85.1591 152.254 85.2159 152.697 85.3295C153.144 85.4432 153.54 85.6193 153.885 85.858C154.233 86.0966 154.508 86.4034 154.709 86.7784C154.91 87.1496 155.01 87.5947 155.01 88.1136V94H152.714V92.7898H152.646C152.506 93.0625 152.319 93.303 152.084 93.5114C151.849 93.7159 151.567 93.8769 151.237 93.9943C150.908 94.108 150.527 94.1648 150.095 94.1648ZM150.788 92.4943C151.144 92.4943 151.459 92.4242 151.732 92.2841C152.004 92.1402 152.218 91.947 152.374 91.7045C152.529 91.4621 152.607 91.1875 152.607 90.8807V89.9545C152.531 90.0038 152.427 90.0492 152.294 90.0909C152.165 90.1288 152.019 90.1648 151.857 90.1989C151.694 90.2292 151.531 90.2576 151.368 90.2841C151.205 90.3068 151.057 90.3277 150.925 90.3466C150.641 90.3883 150.393 90.4545 150.18 90.5455C149.968 90.6364 149.804 90.7595 149.686 90.9148C149.569 91.0663 149.51 91.2557 149.51 91.483C149.51 91.8125 149.629 92.0644 149.868 92.2386C150.11 92.4091 150.417 92.4943 150.788 92.4943ZM161.53 85.2727V87.0909H156.274V85.2727H161.53ZM157.467 83.1818H159.888V91.3182C159.888 91.5417 159.922 91.7159 159.99 91.8409C160.058 91.9621 160.153 92.0473 160.274 92.0966C160.399 92.1458 160.543 92.1705 160.706 92.1705C160.82 92.1705 160.933 92.161 161.047 92.142C161.161 92.1193 161.248 92.1023 161.308 92.0909L161.689 93.892C161.568 93.9299 161.397 93.9735 161.178 94.0227C160.958 94.0758 160.691 94.108 160.376 94.1193C159.793 94.142 159.282 94.0644 158.842 93.8864C158.407 93.7083 158.068 93.4318 157.825 93.0568C157.583 92.6818 157.464 92.2083 157.467 91.6364V83.1818ZM165.595 94.1648C165.038 94.1648 164.542 94.0682 164.107 93.875C163.671 93.678 163.326 93.3883 163.072 93.0057C162.822 92.6193 162.697 92.1383 162.697 91.5625C162.697 91.0777 162.786 90.6705 162.964 90.3409C163.143 90.0114 163.385 89.7462 163.692 89.5455C163.999 89.3447 164.347 89.1932 164.737 89.0909C165.131 88.9886 165.544 88.9167 165.976 88.875C166.483 88.822 166.893 88.7727 167.203 88.7273C167.514 88.678 167.739 88.6061 167.879 88.5114C168.019 88.4167 168.089 88.2765 168.089 88.0909V88.0568C168.089 87.697 167.976 87.4186 167.749 87.2216C167.525 87.0246 167.207 86.9261 166.794 86.9261C166.358 86.9261 166.012 87.0227 165.754 87.2159C165.497 87.4053 165.326 87.6439 165.243 87.9318L163.004 87.75C163.118 87.2197 163.341 86.7614 163.675 86.375C164.008 85.9848 164.438 85.6856 164.964 85.4773C165.495 85.2652 166.108 85.1591 166.805 85.1591C167.29 85.1591 167.754 85.2159 168.197 85.3295C168.644 85.4432 169.04 85.6193 169.385 85.858C169.733 86.0966 170.008 86.4034 170.209 86.7784C170.41 87.1496 170.51 87.5947 170.51 88.1136V94H168.214V92.7898H168.146C168.006 93.0625 167.819 93.303 167.584 93.5114C167.349 93.7159 167.067 93.8769 166.737 93.9943C166.408 94.108 166.027 94.1648 165.595 94.1648ZM166.288 92.4943C166.644 92.4943 166.959 92.4242 167.232 92.2841C167.504 92.1402 167.718 91.947 167.874 91.7045C168.029 91.4621 168.107 91.1875 168.107 90.8807V89.9545C168.031 90.0038 167.927 90.0492 167.794 90.0909C167.665 90.1288 167.519 90.1648 167.357 90.1989C167.194 90.2292 167.031 90.2576 166.868 90.2841C166.705 90.3068 166.557 90.3277 166.425 90.3466C166.141 90.3883 165.893 90.4545 165.68 90.5455C165.468 90.6364 165.304 90.7595 165.186 90.9148C165.069 91.0663 165.01 91.2557 165.01 91.483C165.01 91.8125 165.129 92.0644 165.368 92.2386C165.61 92.4091 165.917 92.4943 166.288 92.4943Z" fill="#0D1117"/>
<circle cx="200" cy="88" r="4" fill="#0D1117"/>
<rect x="242" y="70" width="64" height="37" fill="#FCCE2E"/>
<rect x="309" y="70" width="24" height="37" fill="#FCCE2E"/>
<path d="M261.136 94H257.011V82.3636H261.17C262.341 82.3636 263.348 82.5966 264.193 83.0625C265.038 83.5246 265.688 84.1894 266.142 85.0568C266.6 85.9242 266.83 86.9621 266.83 88.1705C266.83 89.3826 266.6 90.4242 266.142 91.2955C265.688 92.1667 265.034 92.8352 264.182 93.3011C263.333 93.767 262.318 94 261.136 94ZM259.472 91.892H261.034C261.761 91.892 262.373 91.7633 262.869 91.5057C263.369 91.2443 263.744 90.8409 263.994 90.2955C264.248 89.7462 264.375 89.0379 264.375 88.1705C264.375 87.3106 264.248 86.608 263.994 86.0625C263.744 85.517 263.371 85.1155 262.875 84.858C262.379 84.6004 261.767 84.4716 261.04 84.4716H259.472V91.892ZM271.095 94.1648C270.538 94.1648 270.042 94.0682 269.607 93.875C269.171 93.678 268.826 93.3883 268.572 93.0057C268.322 92.6193 268.197 92.1383 268.197 91.5625C268.197 91.0777 268.286 90.6705 268.464 90.3409C268.643 90.0114 268.885 89.7462 269.192 89.5455C269.499 89.3447 269.847 89.1932 270.237 89.0909C270.631 88.9886 271.044 88.9167 271.476 88.875C271.983 88.822 272.393 88.7727 272.703 88.7273C273.014 88.678 273.239 88.6061 273.379 88.5114C273.519 88.4167 273.589 88.2765 273.589 88.0909V88.0568C273.589 87.697 273.476 87.4186 273.249 87.2216C273.025 87.0246 272.707 86.9261 272.294 86.9261C271.858 86.9261 271.512 87.0227 271.254 87.2159C270.997 87.4053 270.826 87.6439 270.743 87.9318L268.504 87.75C268.618 87.2197 268.841 86.7614 269.175 86.375C269.508 85.9848 269.938 85.6856 270.464 85.4773C270.995 85.2652 271.608 85.1591 272.305 85.1591C272.79 85.1591 273.254 85.2159 273.697 85.3295C274.144 85.4432 274.54 85.6193 274.885 85.858C275.233 86.0966 275.508 86.4034 275.709 86.7784C275.91 87.1496 276.01 87.5947 276.01 88.1136V94H273.714V92.7898H273.646C273.506 93.0625 273.319 93.303 273.084 93.5114C272.849 93.7159 272.567 93.8769 272.237 93.9943C271.908 94.108 271.527 94.1648 271.095 94.1648ZM271.788 92.4943C272.144 92.4943 272.459 92.4242 272.732 92.2841C273.004 92.1402 273.218 91.947 273.374 91.7045C273.529 91.4621 273.607 91.1875 273.607 90.8807V89.9545C273.531 90.0038 273.427 90.0492 273.294 90.0909C273.165 90.1288 273.019 90.1648 272.857 90.1989C272.694 90.2292 272.531 90.2576 272.368 90.2841C272.205 90.3068 272.057 90.3277 271.925 90.3466C271.641 90.3883 271.393 90.4545 271.18 90.5455C270.968 90.6364 270.804 90.7595 270.686 90.9148C270.569 91.0663 270.51 91.2557 270.51 91.483C270.51 91.8125 270.629 92.0644 270.868 92.2386C271.11 92.4091 271.417 92.4943 271.788 92.4943ZM282.53 85.2727V87.0909H277.274V85.2727H282.53ZM278.467 83.1818H280.888V91.3182C280.888 91.5417 280.922 91.7159 280.99 91.8409C281.058 91.9621 281.153 92.0473 281.274 92.0966C281.399 92.1458 281.543 92.1705 281.706 92.1705C281.82 92.1705 281.933 92.161 282.047 92.142C282.161 92.1193 282.248 92.1023 282.308 92.0909L282.689 93.892C282.568 93.9299 282.397 93.9735 282.178 94.0227C281.958 94.0758 281.691 94.108 281.376 94.1193C280.793 94.142 280.282 94.0644 279.842 93.8864C279.407 93.7083 279.068 93.4318 278.825 93.0568C278.583 92.6818 278.464 92.2083 278.467 91.6364V83.1818ZM286.595 94.1648C286.038 94.1648 285.542 94.0682 285.107 93.875C284.671 93.678 284.326 93.3883 284.072 93.0057C283.822 92.6193 283.697 92.1383 283.697 91.5625C283.697 91.0777 283.786 90.6705 283.964 90.3409C284.143 90.0114 284.385 89.7462 284.692 89.5455C284.999 89.3447 285.347 89.1932 285.737 89.0909C286.131 88.9886 286.544 88.9167 286.976 88.875C287.483 88.822 287.893 88.7727 288.203 88.7273C288.514 88.678 288.739 88.6061 288.879 88.5114C289.019 88.4167 289.089 88.2765 289.089 88.0909V88.0568C289.089 87.697 288.976 87.4186 288.749 87.2216C288.525 87.0246 288.207 86.9261 287.794 86.9261C287.358 86.9261 287.012 87.0227 286.754 87.2159C286.497 87.4053 286.326 87.6439 286.243 87.9318L284.004 87.75C284.118 87.2197 284.341 86.7614 284.675 86.375C285.008 85.9848 285.438 85.6856 285.964 85.4773C286.495 85.2652 287.108 85.1591 287.805 85.1591C288.29 85.1591 288.754 85.2159 289.197 85.3295C289.644 85.4432 290.04 85.6193 290.385 85.858C290.733 86.0966 291.008 86.4034 291.209 86.7784C291.41 87.1496 291.51 87.5947 291.51 88.1136V94H289.214V92.7898H289.146C289.006 93.0625 288.819 93.303 288.584 93.5114C288.349 93.7159 288.067 93.8769 287.737 93.9943C287.408 94.108 287.027 94.1648 286.595 94.1648ZM287.288 92.4943C287.644 92.4943 287.959 92.4242 288.232 92.2841C288.504 92.1402 288.718 91.947 288.874 91.7045C289.029 91.4621 289.107 91.1875 289.107 90.8807V89.9545C289.031 90.0038 288.927 90.0492 288.794 90.0909C288.665 90.1288 288.519 90.1648 288.357 90.1989C288.194 90.2292 288.031 90.2576 287.868 90.2841C287.705 90.3068 287.557 90.3277 287.425 90.3466C287.141 90.3883 286.893 90.4545 286.68 90.5455C286.468 90.6364 286.304 90.7595 286.186 90.9148C286.069 91.0663 286.01 91.2557 286.01 91.483C286.01 91.8125 286.129 92.0644 286.368 92.2386C286.61 92.4091 286.917 92.4943 287.288 92.4943Z" fill="#0D1117"/>
<circle cx="321" cy="88" r="4" fill="#0D1117"/>
<rect x="363" y="70" width="64" height="37" fill="#FCCE2E"/>
<rect x="430" y="70" width="24" height="37" fill="#FCCE2E"/>
<path d="M382.136 94H378.011V82.3636H382.17C383.341 82.3636 384.348 82.5966 385.193 83.0625C386.038 83.5246 386.688 84.1894 387.142 85.0568C387.6 85.9242 387.83 86.9621 387.83 88.1705C387.83 89.3826 387.6 90.4242 387.142 91.2955C386.688 92.1667 386.034 92.8352 385.182 93.3011C384.333 93.767 383.318 94 382.136 94ZM380.472 91.892H382.034C382.761 91.892 383.373 91.7633 383.869 91.5057C384.369 91.2443 384.744 90.8409 384.994 90.2955C385.248 89.7462 385.375 89.0379 385.375 88.1705C385.375 87.3106 385.248 86.608 384.994 86.0625C384.744 85.517 384.371 85.1155 383.875 84.858C383.379 84.6004 382.767 84.4716 382.04 84.4716H380.472V91.892ZM392.095 94.1648C391.538 94.1648 391.042 94.0682 390.607 93.875C390.171 93.678 389.826 93.3883 389.572 93.0057C389.322 92.6193 389.197 92.1383 389.197 91.5625C389.197 91.0777 389.286 90.6705 389.464 90.3409C389.643 90.0114 389.885 89.7462 390.192 89.5455C390.499 89.3447 390.847 89.1932 391.237 89.0909C391.631 88.9886 392.044 88.9167 392.476 88.875C392.983 88.822 393.393 88.7727 393.703 88.7273C394.014 88.678 394.239 88.6061 394.379 88.5114C394.519 88.4167 394.589 88.2765 394.589 88.0909V88.0568C394.589 87.697 394.476 87.4186 394.249 87.2216C394.025 87.0246 393.707 86.9261 393.294 86.9261C392.858 86.9261 392.512 87.0227 392.254 87.2159C391.997 87.4053 391.826 87.6439 391.743 87.9318L389.504 87.75C389.618 87.2197 389.841 86.7614 390.175 86.375C390.508 85.9848 390.938 85.6856 391.464 85.4773C391.995 85.2652 392.608 85.1591 393.305 85.1591C393.79 85.1591 394.254 85.2159 394.697 85.3295C395.144 85.4432 395.54 85.6193 395.885 85.858C396.233 86.0966 396.508 86.4034 396.709 86.7784C396.91 87.1496 397.01 87.5947 397.01 88.1136V94H394.714V92.7898H394.646C394.506 93.0625 394.319 93.303 394.084 93.5114C393.849 93.7159 393.567 93.8769 393.237 93.9943C392.908 94.108 392.527 94.1648 392.095 94.1648ZM392.788 92.4943C393.144 92.4943 393.459 92.4242 393.732 92.2841C394.004 92.1402 394.218 91.947 394.374 91.7045C394.529 91.4621 394.607 91.1875 394.607 90.8807V89.9545C394.531 90.0038 394.427 90.0492 394.294 90.0909C394.165 90.1288 394.019 90.1648 393.857 90.1989C393.694 90.2292 393.531 90.2576 393.368 90.2841C393.205 90.3068 393.057 90.3277 392.925 90.3466C392.641 90.3883 392.393 90.4545 392.18 90.5455C391.968 90.6364 391.804 90.7595 391.686 90.9148C391.569 91.0663 391.51 91.2557 391.51 91.483C391.51 91.8125 391.629 92.0644 391.868 92.2386C392.11 92.4091 392.417 92.4943 392.788 92.4943ZM403.53 85.2727V87.0909H398.274V85.2727H403.53ZM399.467 83.1818H401.888V91.3182C401.888 91.5417 401.922 91.7159 401.99 91.8409C402.058 91.9621 402.153 92.0473 402.274 92.0966C402.399 92.1458 402.543 92.1705 402.706 92.1705C402.82 92.1705 402.933 92.161 403.047 92.142C403.161 92.1193 403.248 92.1023 403.308 92.0909L403.689 93.892C403.568 93.9299 403.397 93.9735 403.178 94.0227C402.958 94.0758 402.691 94.108 402.376 94.1193C401.793 94.142 401.282 94.0644 400.842 93.8864C400.407 93.7083 400.068 93.4318 399.825 93.0568C399.583 92.6818 399.464 92.2083 399.467 91.6364V83.1818ZM407.595 94.1648C407.038 94.1648 406.542 94.0682 406.107 93.875C405.671 93.678 405.326 93.3883 405.072 93.0057C404.822 92.6193 404.697 92.1383 404.697 91.5625C404.697 91.0777 404.786 90.6705 404.964 90.3409C405.143 90.0114 405.385 89.7462 405.692 89.5455C405.999 89.3447 406.347 89.1932 406.737 89.0909C407.131 88.9886 407.544 88.9167 407.976 88.875C408.483 88.822 408.893 88.7727 409.203 88.7273C409.514 88.678 409.739 88.6061 409.879 88.5114C410.019 88.4167 410.089 88.2765 410.089 88.0909V88.0568C410.089 87.697 409.976 87.4186 409.749 87.2216C409.525 87.0246 409.207 86.9261 408.794 86.9261C408.358 86.9261 408.012 87.0227 407.754 87.2159C407.497 87.4053 407.326 87.6439 407.243 87.9318L405.004 87.75C405.118 87.2197 405.341 86.7614 405.675 86.375C406.008 85.9848 406.438 85.6856 406.964 85.4773C407.495 85.2652 408.108 85.1591 408.805 85.1591C409.29 85.1591 409.754 85.2159 410.197 85.3295C410.644 85.4432 411.04 85.6193 411.385 85.858C411.733 86.0966 412.008 86.4034 412.209 86.7784C412.41 87.1496 412.51 87.5947 412.51 88.1136V94H410.214V92.7898H410.146C410.006 93.0625 409.819 93.303 409.584 93.5114C409.349 93.7159 409.067 93.8769 408.737 93.9943C408.408 94.108 408.027 94.1648 407.595 94.1648ZM408.288 92.4943C408.644 92.4943 408.959 92.4242 409.232 92.2841C409.504 92.1402 409.718 91.947 409.874 91.7045C410.029 91.4621 410.107 91.1875 410.107 90.8807V89.9545C410.031 90.0038 409.927 90.0492 409.794 90.0909C409.665 90.1288 409.519 90.1648 409.357 90.1989C409.194 90.2292 409.031 90.2576 408.868 90.2841C408.705 90.3068 408.557 90.3277 408.425 90.3466C408.141 90.3883 407.893 90.4545 407.68 90.5455C407.468 90.6364 407.304 90.7595 407.186 90.9148C407.069 91.0663 407.01 91.2557 407.01 91.483C407.01 91.8125 407.129 92.0644 407.368 92.2386C407.61 92.4091 407.917 92.4943 408.288 92.4943Z" fill="#0D1117"/>
<circle cx="442" cy="88" r="4" fill="#0D1117"/>
<path d="M111.692 89.1061L111.948 88.85H111.586H79C78.5306 88.85 78.15 88.4694 78.15 88C78.15 87.5306 78.5306 87.15 79 87.15H111.586H111.948L111.692 86.8939L107.035 82.2371C106.703 81.9051 106.703 81.3669 107.035 81.035C107.367 80.7031 107.905 80.7031 108.237 81.035L114.601 87.399C114.933 87.7309 114.933 88.2691 114.601 88.601L108.237 94.965C107.905 95.2969 107.367 95.2969 107.035 94.965C106.703 94.6331 106.703 94.0949 107.035 93.7629L111.692 89.1061Z" fill="#FCCE2E" stroke="black" stroke-width="0.3"/>
<path d="M44.1832 119.023L43.9364 118.814L43.9364 119.137L43.9364 149.081C43.9364 149.483 43.5417 149.85 43 149.85C42.4583 149.85 42.0636 149.483 42.0636 149.081L42.0636 119.137L42.0636 118.814L41.8168 119.023L36.7577 123.302C36.3893 123.614 35.7834 123.614 35.4151 123.302C35.0616 123.003 35.0616 122.531 35.4151 122.232L42.3287 116.384C42.697 116.072 43.303 116.072 43.6713 116.384L50.5849 122.232C50.9384 122.531 50.9384 123.003 50.5849 123.302C50.2166 123.614 49.6107 123.614 49.2423 123.302L44.1832 119.023Z" fill="#FCCE2E" stroke="black" stroke-width="0.3"/>
<path d="M410.183 119.023L409.936 118.814L409.936 119.137L409.936 149.081C409.936 149.483 409.542 149.85 409 149.85C408.458 149.85 408.064 149.483 408.064 149.081L408.064 119.137L408.064 118.814L407.817 119.023L402.758 123.302C402.389 123.614 401.783 123.614 401.415 123.302C401.062 123.003 401.062 122.531 401.415 122.232L408.329 116.384C408.697 116.072 409.303 116.072 409.671 116.384L416.585 122.232C416.938 122.531 416.938 123.003 416.585 123.302C416.217 123.614 415.611 123.614 415.242 123.302L410.183 119.023Z" fill="#FCCE2E" stroke="black" stroke-width="0.3"/>
<path d="M233.692 89.47L233.948 89.214H233.586H201C200.531 89.214 200.15 88.8334 200.15 88.364C200.15 87.8945 200.531 87.514 201 87.514H233.586H233.948L233.692 87.2579L229.035 82.601C228.703 82.2691 228.703 81.7309 229.035 81.399C229.367 81.067 229.905 81.067 230.237 81.399L236.601 87.7629C236.933 88.0949 236.933 88.6331 236.601 88.965L230.237 95.329C229.905 95.6609 229.367 95.6609 229.035 95.329C228.703 94.997 228.703 94.4588 229.035 94.1269L233.692 89.47Z" fill="#FCCE2E" stroke="black" stroke-width="0.3"/>
<path d="M354.692 89.47L354.948 89.214H354.586H322C321.531 89.214 321.15 88.8334 321.15 88.364C321.15 87.8945 321.531 87.514 322 87.514H354.586H354.948L354.692 87.2579L350.035 82.601C349.703 82.2691 349.703 81.7309 350.035 81.399C350.367 81.067 350.905 81.067 351.237 81.399L357.601 87.7629C357.933 88.0949 357.933 88.6331 357.601 88.965L351.237 95.329C350.905 95.6609 350.367 95.6609 350.035 95.329C349.703 94.997 349.703 94.4588 350.035 94.1269L354.692 89.47Z" fill="#FCCE2E" stroke="black" stroke-width="0.3"/>
<rect x="14" y="159" width="58" height="29" rx="5" fill="#FCCE2E"/>
<rect x="380" y="159" width="58" height="29" rx="5" fill="#FCCE2E"/>
<path d="M24.0114 179V167.364H26.4716V172.165H31.4659V167.364H33.9205V179H31.4659V174.193H26.4716V179H24.0114ZM39.8807 179.17C38.983 179.17 38.2102 178.989 37.5625 178.625C36.9186 178.258 36.4223 177.739 36.0739 177.068C35.7254 176.394 35.5511 175.597 35.5511 174.676C35.5511 173.778 35.7254 172.991 36.0739 172.312C36.4223 171.634 36.9129 171.106 37.5455 170.727C38.1818 170.348 38.928 170.159 39.7841 170.159C40.3598 170.159 40.8958 170.252 41.392 170.438C41.892 170.619 42.3277 170.894 42.6989 171.261C43.0739 171.629 43.3655 172.091 43.5739 172.648C43.7822 173.201 43.8864 173.848 43.8864 174.591V175.256H36.517V173.756H41.608C41.608 173.407 41.5322 173.098 41.3807 172.83C41.2292 172.561 41.0189 172.35 40.75 172.199C40.4848 172.044 40.1761 171.966 39.8239 171.966C39.4564 171.966 39.1307 172.051 38.8466 172.222C38.5663 172.388 38.3466 172.614 38.1875 172.898C38.0284 173.178 37.947 173.491 37.9432 173.835V175.261C37.9432 175.693 38.0227 176.066 38.1818 176.381C38.3447 176.695 38.5739 176.938 38.8693 177.108C39.1648 177.278 39.5152 177.364 39.9205 177.364C40.1894 177.364 40.4356 177.326 40.6591 177.25C40.8826 177.174 41.0739 177.061 41.233 176.909C41.392 176.758 41.5133 176.572 41.5966 176.352L43.8352 176.5C43.7216 177.038 43.4886 177.508 43.1364 177.909C42.7879 178.307 42.3371 178.617 41.7841 178.841C41.2348 179.061 40.6004 179.17 39.8807 179.17ZM47.9545 179.165C47.3977 179.165 46.9015 179.068 46.4659 178.875C46.0303 178.678 45.6856 178.388 45.4318 178.006C45.1818 177.619 45.0568 177.138 45.0568 176.562C45.0568 176.078 45.1458 175.67 45.3239 175.341C45.5019 175.011 45.7443 174.746 46.0511 174.545C46.358 174.345 46.7064 174.193 47.0966 174.091C47.4905 173.989 47.9034 173.917 48.3352 173.875C48.8428 173.822 49.2519 173.773 49.5625 173.727C49.8731 173.678 50.0985 173.606 50.2386 173.511C50.3788 173.417 50.4489 173.277 50.4489 173.091V173.057C50.4489 172.697 50.3352 172.419 50.108 172.222C49.8845 172.025 49.5663 171.926 49.1534 171.926C48.7178 171.926 48.3712 172.023 48.1136 172.216C47.8561 172.405 47.6856 172.644 47.6023 172.932L45.3636 172.75C45.4773 172.22 45.7008 171.761 46.0341 171.375C46.3674 170.985 46.7973 170.686 47.3239 170.477C47.8542 170.265 48.4678 170.159 49.1648 170.159C49.6496 170.159 50.1136 170.216 50.5568 170.33C51.0038 170.443 51.3996 170.619 51.7443 170.858C52.0928 171.097 52.3674 171.403 52.5682 171.778C52.7689 172.15 52.8693 172.595 52.8693 173.114V179H50.5739V177.79H50.5057C50.3655 178.062 50.178 178.303 49.9432 178.511C49.7083 178.716 49.4261 178.877 49.0966 178.994C48.767 179.108 48.3864 179.165 47.9545 179.165ZM48.6477 177.494C49.0038 177.494 49.3182 177.424 49.5909 177.284C49.8636 177.14 50.0777 176.947 50.233 176.705C50.3883 176.462 50.4659 176.187 50.4659 175.881V174.955C50.3902 175.004 50.286 175.049 50.1534 175.091C50.0246 175.129 49.8788 175.165 49.7159 175.199C49.553 175.229 49.3902 175.258 49.2273 175.284C49.0644 175.307 48.9167 175.328 48.7841 175.347C48.5 175.388 48.2519 175.455 48.0398 175.545C47.8277 175.636 47.6629 175.759 47.5455 175.915C47.428 176.066 47.3693 176.256 47.3693 176.483C47.3693 176.812 47.4886 177.064 47.7273 177.239C47.9697 177.409 48.2765 177.494 48.6477 177.494ZM57.9631 179.142C57.3002 179.142 56.6998 178.972 56.1619 178.631C55.6278 178.286 55.2036 177.78 54.8892 177.114C54.5786 176.443 54.4233 175.621 54.4233 174.648C54.4233 173.648 54.5843 172.816 54.9062 172.153C55.2282 171.487 55.6563 170.989 56.1903 170.659C56.7282 170.326 57.3172 170.159 57.9574 170.159C58.446 170.159 58.8532 170.242 59.179 170.409C59.5085 170.572 59.7737 170.777 59.9744 171.023C60.179 171.265 60.3343 171.504 60.4403 171.739H60.5142V167.364H62.929V179H60.5426V177.602H60.4403C60.3267 177.845 60.1657 178.085 59.9574 178.324C59.7528 178.559 59.4858 178.754 59.1562 178.909C58.8305 179.064 58.4328 179.142 57.9631 179.142ZM58.7301 177.216C59.1203 177.216 59.4498 177.11 59.7188 176.898C59.9915 176.682 60.1998 176.381 60.3438 175.994C60.4915 175.608 60.5653 175.155 60.5653 174.636C60.5653 174.117 60.4934 173.667 60.3494 173.284C60.2055 172.902 59.9972 172.606 59.7244 172.398C59.4517 172.189 59.1203 172.085 58.7301 172.085C58.3324 172.085 57.9972 172.193 57.7244 172.409C57.4517 172.625 57.2453 172.924 57.1051 173.307C56.965 173.689 56.8949 174.133 56.8949 174.636C56.8949 175.144 56.965 175.593 57.1051 175.983C57.2491 176.369 57.4555 176.672 57.7244 176.892C57.9972 177.108 58.3324 177.216 58.7301 177.216Z" fill="#0D1117"/>
<path d="M395.568 169.392V167.364H405.125V169.392H401.562V179H399.131V169.392H395.568ZM407.955 179.165C407.398 179.165 406.902 179.068 406.466 178.875C406.03 178.678 405.686 178.388 405.432 178.006C405.182 177.619 405.057 177.138 405.057 176.562C405.057 176.078 405.146 175.67 405.324 175.341C405.502 175.011 405.744 174.746 406.051 174.545C406.358 174.345 406.706 174.193 407.097 174.091C407.491 173.989 407.903 173.917 408.335 173.875C408.843 173.822 409.252 173.773 409.562 173.727C409.873 173.678 410.098 173.606 410.239 173.511C410.379 173.417 410.449 173.277 410.449 173.091V173.057C410.449 172.697 410.335 172.419 410.108 172.222C409.884 172.025 409.566 171.926 409.153 171.926C408.718 171.926 408.371 172.023 408.114 172.216C407.856 172.405 407.686 172.644 407.602 172.932L405.364 172.75C405.477 172.22 405.701 171.761 406.034 171.375C406.367 170.985 406.797 170.686 407.324 170.477C407.854 170.265 408.468 170.159 409.165 170.159C409.65 170.159 410.114 170.216 410.557 170.33C411.004 170.443 411.4 170.619 411.744 170.858C412.093 171.097 412.367 171.403 412.568 171.778C412.769 172.15 412.869 172.595 412.869 173.114V179H410.574V177.79H410.506C410.366 178.062 410.178 178.303 409.943 178.511C409.708 178.716 409.426 178.877 409.097 178.994C408.767 179.108 408.386 179.165 407.955 179.165ZM408.648 177.494C409.004 177.494 409.318 177.424 409.591 177.284C409.864 177.14 410.078 176.947 410.233 176.705C410.388 176.462 410.466 176.187 410.466 175.881V174.955C410.39 175.004 410.286 175.049 410.153 175.091C410.025 175.129 409.879 175.165 409.716 175.199C409.553 175.229 409.39 175.258 409.227 175.284C409.064 175.307 408.917 175.328 408.784 175.347C408.5 175.388 408.252 175.455 408.04 175.545C407.828 175.636 407.663 175.759 407.545 175.915C407.428 176.066 407.369 176.256 407.369 176.483C407.369 176.812 407.489 177.064 407.727 177.239C407.97 177.409 408.277 177.494 408.648 177.494ZM414.747 179V170.273H417.168V179H414.747ZM415.963 169.148C415.603 169.148 415.295 169.028 415.037 168.79C414.783 168.547 414.656 168.258 414.656 167.92C414.656 167.587 414.783 167.301 415.037 167.062C415.295 166.82 415.603 166.699 415.963 166.699C416.323 166.699 416.63 166.82 416.884 167.062C417.141 167.301 417.27 167.587 417.27 167.92C417.27 168.258 417.141 168.547 416.884 168.79C416.63 169.028 416.323 169.148 415.963 169.148ZM421.527 167.364V179H419.107V167.364H421.527Z" fill="#0D1117"/>
<path fill-rule="evenodd" clip-rule="evenodd" d="M236.981 1.00017C344.949 -1.00667 419.128 58.0154 442.784 87.8791C443.127 88.312 443.054 88.9409 442.621 89.2839C442.188 89.6268 441.559 89.5538 441.216 89.1209C417.872 59.6513 344.251 1.00667 237.019 2.99983C132.955 4.9341 69.6626 37.0062 49.037 54.1297L55.5396 54.4655C56.0912 54.494 56.5152 54.9642 56.4867 55.5158C56.4582 56.0673 55.988 56.4913 55.4365 56.4628L46.4484 55.9987C45.8969 55.9702 45.4729 55.5 45.5014 54.9484L45.9655 45.9604C45.994 45.4089 46.4642 44.9848 47.0158 45.0133C47.5673 45.0418 47.9913 45.512 47.9629 46.0636L47.6198 52.7073C68.5615 35.2318 132.388 2.9443 236.981 1.00017Z" fill="#FCCE2E" stroke="black" stroke-width="0.3" stroke-linecap="round"/>
</svg>
