<svg width="548" height="199" viewBox="0 0 548 199" fill="none" xmlns="http://www.w3.org/2000/svg">
<rect y="81" width="64" height="37" fill="#FCCE2E"/>
<rect x="67" y="81" width="24" height="37" fill="#FCCE2E"/>
<path d="M19.1364 105H15.0114V93.3636H19.1705C20.3409 93.3636 21.3485 93.5966 22.1932 94.0625C23.0379 94.5246 23.6875 95.1894 24.142 96.0568C24.6004 96.9242 24.8295 97.9621 24.8295 99.1705C24.8295 100.383 24.6004 101.424 24.142 102.295C23.6875 103.167 23.0341 103.835 22.1818 104.301C21.3333 104.767 20.3182 105 19.1364 105ZM17.4716 102.892H19.0341C19.7614 102.892 20.3731 102.763 20.8693 102.506C21.3693 102.244 21.7443 101.841 21.9943 101.295C22.2481 100.746 22.375 100.038 22.375 99.1705C22.375 98.3106 22.2481 97.608 21.9943 97.0625C21.7443 96.517 21.3712 96.1155 20.875 95.858C20.3788 95.6004 19.767 95.4716 19.0398 95.4716H17.4716V102.892ZM29.0952 105.165C28.5384 105.165 28.0421 105.068 27.6065 104.875C27.1709 104.678 26.8262 104.388 26.5724 104.006C26.3224 103.619 26.1974 103.138 26.1974 102.562C26.1974 102.078 26.2865 101.67 26.4645 101.341C26.6425 101.011 26.8849 100.746 27.1918 100.545C27.4986 100.345 27.8471 100.193 28.2372 100.091C28.6312 99.9886 29.044 99.9167 29.4759 99.875C29.9834 99.822 30.3925 99.7727 30.7031 99.7273C31.0137 99.678 31.2391 99.6061 31.3793 99.5114C31.5194 99.4167 31.5895 99.2765 31.5895 99.0909V99.0568C31.5895 98.697 31.4759 98.4186 31.2486 98.2216C31.0251 98.0246 30.7069 97.9261 30.294 97.9261C29.8584 97.9261 29.5118 98.0227 29.2543 98.2159C28.9967 98.4053 28.8262 98.6439 28.7429 98.9318L26.5043 98.75C26.6179 98.2197 26.8414 97.7614 27.1747 97.375C27.508 96.9848 27.938 96.6856 28.4645 96.4773C28.9948 96.2652 29.6084 96.1591 30.3054 96.1591C30.7902 96.1591 31.2543 96.2159 31.6974 96.3295C32.1444 96.4432 32.5402 96.6193 32.8849 96.858C33.2334 97.0966 33.508 97.4034 33.7088 97.7784C33.9096 98.1496 34.0099 98.5947 34.0099 99.1136V105H31.7145V103.79H31.6463C31.5062 104.062 31.3187 104.303 31.0838 104.511C30.849 104.716 30.5668 104.877 30.2372 104.994C29.9077 105.108 29.527 105.165 29.0952 105.165ZM29.7884 103.494C30.1444 103.494 30.4588 103.424 30.7315 103.284C31.0043 103.14 31.2183 102.947 31.3736 102.705C31.5289 102.462 31.6065 102.187 31.6065 101.881V100.955C31.5308 101.004 31.4266 101.049 31.294 101.091C31.1652 101.129 31.0194 101.165 30.8565 101.199C30.6937 101.229 30.5308 101.258 30.3679 101.284C30.205 101.307 30.0573 101.328 29.9247 101.347C29.6406 101.388 29.3925 101.455 29.1804 101.545C28.9683 101.636 28.8035 101.759 28.6861 101.915C28.5687 102.066 28.5099 102.256 28.5099 102.483C28.5099 102.812 28.6293 103.064 28.8679 103.239C29.1103 103.409 29.4171 103.494 29.7884 103.494ZM40.5298 96.2727V98.0909H35.2741V96.2727H40.5298ZM36.4673 94.1818H38.8878V102.318C38.8878 102.542 38.9219 102.716 38.9901 102.841C39.0582 102.962 39.1529 103.047 39.2741 103.097C39.3991 103.146 39.5431 103.17 39.706 103.17C39.8196 103.17 39.9332 103.161 40.0469 103.142C40.1605 103.119 40.2476 103.102 40.3082 103.091L40.6889 104.892C40.5677 104.93 40.3973 104.973 40.1776 105.023C39.9579 105.076 39.6908 105.108 39.3764 105.119C38.7931 105.142 38.2817 105.064 37.8423 104.886C37.4067 104.708 37.0677 104.432 36.8253 104.057C36.5829 103.682 36.4635 103.208 36.4673 102.636V94.1818ZM44.5952 105.165C44.0384 105.165 43.5421 105.068 43.1065 104.875C42.6709 104.678 42.3262 104.388 42.0724 104.006C41.8224 103.619 41.6974 103.138 41.6974 102.562C41.6974 102.078 41.7865 101.67 41.9645 101.341C42.1425 101.011 42.3849 100.746 42.6918 100.545C42.9986 100.345 43.3471 100.193 43.7372 100.091C44.1312 99.9886 44.544 99.9167 44.9759 99.875C45.4834 99.822 45.8925 99.7727 46.2031 99.7273C46.5137 99.678 46.7391 99.6061 46.8793 99.5114C47.0194 99.4167 47.0895 99.2765 47.0895 99.0909V99.0568C47.0895 98.697 46.9759 98.4186 46.7486 98.2216C46.5251 98.0246 46.2069 97.9261 45.794 97.9261C45.3584 97.9261 45.0118 98.0227 44.7543 98.2159C44.4967 98.4053 44.3262 98.6439 44.2429 98.9318L42.0043 98.75C42.1179 98.2197 42.3414 97.7614 42.6747 97.375C43.008 96.9848 43.438 96.6856 43.9645 96.4773C44.4948 96.2652 45.1084 96.1591 45.8054 96.1591C46.2902 96.1591 46.7543 96.2159 47.1974 96.3295C47.6444 96.4432 48.0402 96.6193 48.3849 96.858C48.7334 97.0966 49.008 97.4034 49.2088 97.7784C49.4096 98.1496 49.5099 98.5947 49.5099 99.1136V105H47.2145V103.79H47.1463C47.0062 104.062 46.8187 104.303 46.5838 104.511C46.349 104.716 46.0668 104.877 45.7372 104.994C45.4077 105.108 45.027 105.165 44.5952 105.165ZM45.2884 103.494C45.6444 103.494 45.9588 103.424 46.2315 103.284C46.5043 103.14 46.7183 102.947 46.8736 102.705C47.0289 102.462 47.1065 102.187 47.1065 101.881V100.955C47.0308 101.004 46.9266 101.049 46.794 101.091C46.6652 101.129 46.5194 101.165 46.3565 101.199C46.1937 101.229 46.0308 101.258 45.8679 101.284C45.705 101.307 45.5573 101.328 45.4247 101.347C45.1406 101.388 44.8925 101.455 44.6804 101.545C44.4683 101.636 44.3035 101.759 44.1861 101.915C44.0687 102.066 44.0099 102.256 44.0099 102.483C44.0099 102.812 44.1293 103.064 44.3679 103.239C44.6103 103.409 44.9171 103.494 45.2884 103.494Z" fill="#0D1117"/>
<circle cx="79" cy="99" r="4" fill="#0D1117"/>
<rect x="121" y="81" width="64" height="37" fill="#FCCE2E"/>
<rect x="188" y="81" width="24" height="37" fill="#FCCE2E"/>
<path d="M140.136 105H136.011V93.3636H140.17C141.341 93.3636 142.348 93.5966 143.193 94.0625C144.038 94.5246 144.688 95.1894 145.142 96.0568C145.6 96.9242 145.83 97.9621 145.83 99.1705C145.83 100.383 145.6 101.424 145.142 102.295C144.688 103.167 144.034 103.835 143.182 104.301C142.333 104.767 141.318 105 140.136 105ZM138.472 102.892H140.034C140.761 102.892 141.373 102.763 141.869 102.506C142.369 102.244 142.744 101.841 142.994 101.295C143.248 100.746 143.375 100.038 143.375 99.1705C143.375 98.3106 143.248 97.608 142.994 97.0625C142.744 96.517 142.371 96.1155 141.875 95.858C141.379 95.6004 140.767 95.4716 140.04 95.4716H138.472V102.892ZM150.095 105.165C149.538 105.165 149.042 105.068 148.607 104.875C148.171 104.678 147.826 104.388 147.572 104.006C147.322 103.619 147.197 103.138 147.197 102.562C147.197 102.078 147.286 101.67 147.464 101.341C147.643 101.011 147.885 100.746 148.192 100.545C148.499 100.345 148.847 100.193 149.237 100.091C149.631 99.9886 150.044 99.9167 150.476 99.875C150.983 99.822 151.393 99.7727 151.703 99.7273C152.014 99.678 152.239 99.6061 152.379 99.5114C152.519 99.4167 152.589 99.2765 152.589 99.0909V99.0568C152.589 98.697 152.476 98.4186 152.249 98.2216C152.025 98.0246 151.707 97.9261 151.294 97.9261C150.858 97.9261 150.512 98.0227 150.254 98.2159C149.997 98.4053 149.826 98.6439 149.743 98.9318L147.504 98.75C147.618 98.2197 147.841 97.7614 148.175 97.375C148.508 96.9848 148.938 96.6856 149.464 96.4773C149.995 96.2652 150.608 96.1591 151.305 96.1591C151.79 96.1591 152.254 96.2159 152.697 96.3295C153.144 96.4432 153.54 96.6193 153.885 96.858C154.233 97.0966 154.508 97.4034 154.709 97.7784C154.91 98.1496 155.01 98.5947 155.01 99.1136V105H152.714V103.79H152.646C152.506 104.062 152.319 104.303 152.084 104.511C151.849 104.716 151.567 104.877 151.237 104.994C150.908 105.108 150.527 105.165 150.095 105.165ZM150.788 103.494C151.144 103.494 151.459 103.424 151.732 103.284C152.004 103.14 152.218 102.947 152.374 102.705C152.529 102.462 152.607 102.187 152.607 101.881V100.955C152.531 101.004 152.427 101.049 152.294 101.091C152.165 101.129 152.019 101.165 151.857 101.199C151.694 101.229 151.531 101.258 151.368 101.284C151.205 101.307 151.057 101.328 150.925 101.347C150.641 101.388 150.393 101.455 150.18 101.545C149.968 101.636 149.804 101.759 149.686 101.915C149.569 102.066 149.51 102.256 149.51 102.483C149.51 102.812 149.629 103.064 149.868 103.239C150.11 103.409 150.417 103.494 150.788 103.494ZM161.53 96.2727V98.0909H156.274V96.2727H161.53ZM157.467 94.1818H159.888V102.318C159.888 102.542 159.922 102.716 159.99 102.841C160.058 102.962 160.153 103.047 160.274 103.097C160.399 103.146 160.543 103.17 160.706 103.17C160.82 103.17 160.933 103.161 161.047 103.142C161.161 103.119 161.248 103.102 161.308 103.091L161.689 104.892C161.568 104.93 161.397 104.973 161.178 105.023C160.958 105.076 160.691 105.108 160.376 105.119C159.793 105.142 159.282 105.064 158.842 104.886C158.407 104.708 158.068 104.432 157.825 104.057C157.583 103.682 157.464 103.208 157.467 102.636V94.1818ZM165.595 105.165C165.038 105.165 164.542 105.068 164.107 104.875C163.671 104.678 163.326 104.388 163.072 104.006C162.822 103.619 162.697 103.138 162.697 102.562C162.697 102.078 162.786 101.67 162.964 101.341C163.143 101.011 163.385 100.746 163.692 100.545C163.999 100.345 164.347 100.193 164.737 100.091C165.131 99.9886 165.544 99.9167 165.976 99.875C166.483 99.822 166.893 99.7727 167.203 99.7273C167.514 99.678 167.739 99.6061 167.879 99.5114C168.019 99.4167 168.089 99.2765 168.089 99.0909V99.0568C168.089 98.697 167.976 98.4186 167.749 98.2216C167.525 98.0246 167.207 97.9261 166.794 97.9261C166.358 97.9261 166.012 98.0227 165.754 98.2159C165.497 98.4053 165.326 98.6439 165.243 98.9318L163.004 98.75C163.118 98.2197 163.341 97.7614 163.675 97.375C164.008 96.9848 164.438 96.6856 164.964 96.4773C165.495 96.2652 166.108 96.1591 166.805 96.1591C167.29 96.1591 167.754 96.2159 168.197 96.3295C168.644 96.4432 169.04 96.6193 169.385 96.858C169.733 97.0966 170.008 97.4034 170.209 97.7784C170.41 98.1496 170.51 98.5947 170.51 99.1136V105H168.214V103.79H168.146C168.006 104.062 167.819 104.303 167.584 104.511C167.349 104.716 167.067 104.877 166.737 104.994C166.408 105.108 166.027 105.165 165.595 105.165ZM166.288 103.494C166.644 103.494 166.959 103.424 167.232 103.284C167.504 103.14 167.718 102.947 167.874 102.705C168.029 102.462 168.107 102.187 168.107 101.881V100.955C168.031 101.004 167.927 101.049 167.794 101.091C167.665 101.129 167.519 101.165 167.357 101.199C167.194 101.229 167.031 101.258 166.868 101.284C166.705 101.307 166.557 101.328 166.425 101.347C166.141 101.388 165.893 101.455 165.68 101.545C165.468 101.636 165.304 101.759 165.186 101.915C165.069 102.066 165.01 102.256 165.01 102.483C165.01 102.812 165.129 103.064 165.368 103.239C165.61 103.409 165.917 103.494 166.288 103.494Z" fill="#0D1117"/>
<circle cx="200" cy="99" r="4" fill="#0D1117"/>
<rect x="242" y="81" width="64" height="37" fill="#FCCE2E"/>
<rect x="309" y="81" width="24" height="37" fill="#FCCE2E"/>
<path d="M261.136 105H257.011V93.3636H261.17C262.341 93.3636 263.348 93.5966 264.193 94.0625C265.038 94.5246 265.688 95.1894 266.142 96.0568C266.6 96.9242 266.83 97.9621 266.83 99.1705C266.83 100.383 266.6 101.424 266.142 102.295C265.688 103.167 265.034 103.835 264.182 104.301C263.333 104.767 262.318 105 261.136 105ZM259.472 102.892H261.034C261.761 102.892 262.373 102.763 262.869 102.506C263.369 102.244 263.744 101.841 263.994 101.295C264.248 100.746 264.375 100.038 264.375 99.1705C264.375 98.3106 264.248 97.608 263.994 97.0625C263.744 96.517 263.371 96.1155 262.875 95.858C262.379 95.6004 261.767 95.4716 261.04 95.4716H259.472V102.892ZM271.095 105.165C270.538 105.165 270.042 105.068 269.607 104.875C269.171 104.678 268.826 104.388 268.572 104.006C268.322 103.619 268.197 103.138 268.197 102.562C268.197 102.078 268.286 101.67 268.464 101.341C268.643 101.011 268.885 100.746 269.192 100.545C269.499 100.345 269.847 100.193 270.237 100.091C270.631 99.9886 271.044 99.9167 271.476 99.875C271.983 99.822 272.393 99.7727 272.703 99.7273C273.014 99.678 273.239 99.6061 273.379 99.5114C273.519 99.4167 273.589 99.2765 273.589 99.0909V99.0568C273.589 98.697 273.476 98.4186 273.249 98.2216C273.025 98.0246 272.707 97.9261 272.294 97.9261C271.858 97.9261 271.512 98.0227 271.254 98.2159C270.997 98.4053 270.826 98.6439 270.743 98.9318L268.504 98.75C268.618 98.2197 268.841 97.7614 269.175 97.375C269.508 96.9848 269.938 96.6856 270.464 96.4773C270.995 96.2652 271.608 96.1591 272.305 96.1591C272.79 96.1591 273.254 96.2159 273.697 96.3295C274.144 96.4432 274.54 96.6193 274.885 96.858C275.233 97.0966 275.508 97.4034 275.709 97.7784C275.91 98.1496 276.01 98.5947 276.01 99.1136V105H273.714V103.79H273.646C273.506 104.062 273.319 104.303 273.084 104.511C272.849 104.716 272.567 104.877 272.237 104.994C271.908 105.108 271.527 105.165 271.095 105.165ZM271.788 103.494C272.144 103.494 272.459 103.424 272.732 103.284C273.004 103.14 273.218 102.947 273.374 102.705C273.529 102.462 273.607 102.187 273.607 101.881V100.955C273.531 101.004 273.427 101.049 273.294 101.091C273.165 101.129 273.019 101.165 272.857 101.199C272.694 101.229 272.531 101.258 272.368 101.284C272.205 101.307 272.057 101.328 271.925 101.347C271.641 101.388 271.393 101.455 271.18 101.545C270.968 101.636 270.804 101.759 270.686 101.915C270.569 102.066 270.51 102.256 270.51 102.483C270.51 102.812 270.629 103.064 270.868 103.239C271.11 103.409 271.417 103.494 271.788 103.494ZM282.53 96.2727V98.0909H277.274V96.2727H282.53ZM278.467 94.1818H280.888V102.318C280.888 102.542 280.922 102.716 280.99 102.841C281.058 102.962 281.153 103.047 281.274 103.097C281.399 103.146 281.543 103.17 281.706 103.17C281.82 103.17 281.933 103.161 282.047 103.142C282.161 103.119 282.248 103.102 282.308 103.091L282.689 104.892C282.568 104.93 282.397 104.973 282.178 105.023C281.958 105.076 281.691 105.108 281.376 105.119C280.793 105.142 280.282 105.064 279.842 104.886C279.407 104.708 279.068 104.432 278.825 104.057C278.583 103.682 278.464 103.208 278.467 102.636V94.1818ZM286.595 105.165C286.038 105.165 285.542 105.068 285.107 104.875C284.671 104.678 284.326 104.388 284.072 104.006C283.822 103.619 283.697 103.138 283.697 102.562C283.697 102.078 283.786 101.67 283.964 101.341C284.143 101.011 284.385 100.746 284.692 100.545C284.999 100.345 285.347 100.193 285.737 100.091C286.131 99.9886 286.544 99.9167 286.976 99.875C287.483 99.822 287.893 99.7727 288.203 99.7273C288.514 99.678 288.739 99.6061 288.879 99.5114C289.019 99.4167 289.089 99.2765 289.089 99.0909V99.0568C289.089 98.697 288.976 98.4186 288.749 98.2216C288.525 98.0246 288.207 97.9261 287.794 97.9261C287.358 97.9261 287.012 98.0227 286.754 98.2159C286.497 98.4053 286.326 98.6439 286.243 98.9318L284.004 98.75C284.118 98.2197 284.341 97.7614 284.675 97.375C285.008 96.9848 285.438 96.6856 285.964 96.4773C286.495 96.2652 287.108 96.1591 287.805 96.1591C288.29 96.1591 288.754 96.2159 289.197 96.3295C289.644 96.4432 290.04 96.6193 290.385 96.858C290.733 97.0966 291.008 97.4034 291.209 97.7784C291.41 98.1496 291.51 98.5947 291.51 99.1136V105H289.214V103.79H289.146C289.006 104.062 288.819 104.303 288.584 104.511C288.349 104.716 288.067 104.877 287.737 104.994C287.408 105.108 287.027 105.165 286.595 105.165ZM287.288 103.494C287.644 103.494 287.959 103.424 288.232 103.284C288.504 103.14 288.718 102.947 288.874 102.705C289.029 102.462 289.107 102.187 289.107 101.881V100.955C289.031 101.004 288.927 101.049 288.794 101.091C288.665 101.129 288.519 101.165 288.357 101.199C288.194 101.229 288.031 101.258 287.868 101.284C287.705 101.307 287.557 101.328 287.425 101.347C287.141 101.388 286.893 101.455 286.68 101.545C286.468 101.636 286.304 101.759 286.186 101.915C286.069 102.066 286.01 102.256 286.01 102.483C286.01 102.812 286.129 103.064 286.368 103.239C286.61 103.409 286.917 103.494 287.288 103.494Z" fill="#0D1117"/>
<circle cx="321" cy="99" r="4" fill="#0D1117"/>
<rect x="363" y="81" width="64" height="37" fill="#FCCE2E"/>
<rect x="430" y="81" width="24" height="37" fill="#FCCE2E"/>
<path d="M382.136 105H378.011V93.3636H382.17C383.341 93.3636 384.348 93.5966 385.193 94.0625C386.038 94.5246 386.688 95.1894 387.142 96.0568C387.6 96.9242 387.83 97.9621 387.83 99.1705C387.83 100.383 387.6 101.424 387.142 102.295C386.688 103.167 386.034 103.835 385.182 104.301C384.333 104.767 383.318 105 382.136 105ZM380.472 102.892H382.034C382.761 102.892 383.373 102.763 383.869 102.506C384.369 102.244 384.744 101.841 384.994 101.295C385.248 100.746 385.375 100.038 385.375 99.1705C385.375 98.3106 385.248 97.608 384.994 97.0625C384.744 96.517 384.371 96.1155 383.875 95.858C383.379 95.6004 382.767 95.4716 382.04 95.4716H380.472V102.892ZM392.095 105.165C391.538 105.165 391.042 105.068 390.607 104.875C390.171 104.678 389.826 104.388 389.572 104.006C389.322 103.619 389.197 103.138 389.197 102.562C389.197 102.078 389.286 101.67 389.464 101.341C389.643 101.011 389.885 100.746 390.192 100.545C390.499 100.345 390.847 100.193 391.237 100.091C391.631 99.9886 392.044 99.9167 392.476 99.875C392.983 99.822 393.393 99.7727 393.703 99.7273C394.014 99.678 394.239 99.6061 394.379 99.5114C394.519 99.4167 394.589 99.2765 394.589 99.0909V99.0568C394.589 98.697 394.476 98.4186 394.249 98.2216C394.025 98.0246 393.707 97.9261 393.294 97.9261C392.858 97.9261 392.512 98.0227 392.254 98.2159C391.997 98.4053 391.826 98.6439 391.743 98.9318L389.504 98.75C389.618 98.2197 389.841 97.7614 390.175 97.375C390.508 96.9848 390.938 96.6856 391.464 96.4773C391.995 96.2652 392.608 96.1591 393.305 96.1591C393.79 96.1591 394.254 96.2159 394.697 96.3295C395.144 96.4432 395.54 96.6193 395.885 96.858C396.233 97.0966 396.508 97.4034 396.709 97.7784C396.91 98.1496 397.01 98.5947 397.01 99.1136V105H394.714V103.79H394.646C394.506 104.062 394.319 104.303 394.084 104.511C393.849 104.716 393.567 104.877 393.237 104.994C392.908 105.108 392.527 105.165 392.095 105.165ZM392.788 103.494C393.144 103.494 393.459 103.424 393.732 103.284C394.004 103.14 394.218 102.947 394.374 102.705C394.529 102.462 394.607 102.187 394.607 101.881V100.955C394.531 101.004 394.427 101.049 394.294 101.091C394.165 101.129 394.019 101.165 393.857 101.199C393.694 101.229 393.531 101.258 393.368 101.284C393.205 101.307 393.057 101.328 392.925 101.347C392.641 101.388 392.393 101.455 392.18 101.545C391.968 101.636 391.804 101.759 391.686 101.915C391.569 102.066 391.51 102.256 391.51 102.483C391.51 102.812 391.629 103.064 391.868 103.239C392.11 103.409 392.417 103.494 392.788 103.494ZM403.53 96.2727V98.0909H398.274V96.2727H403.53ZM399.467 94.1818H401.888V102.318C401.888 102.542 401.922 102.716 401.99 102.841C402.058 102.962 402.153 103.047 402.274 103.097C402.399 103.146 402.543 103.17 402.706 103.17C402.82 103.17 402.933 103.161 403.047 103.142C403.161 103.119 403.248 103.102 403.308 103.091L403.689 104.892C403.568 104.93 403.397 104.973 403.178 105.023C402.958 105.076 402.691 105.108 402.376 105.119C401.793 105.142 401.282 105.064 400.842 104.886C400.407 104.708 400.068 104.432 399.825 104.057C399.583 103.682 399.464 103.208 399.467 102.636V94.1818ZM407.595 105.165C407.038 105.165 406.542 105.068 406.107 104.875C405.671 104.678 405.326 104.388 405.072 104.006C404.822 103.619 404.697 103.138 404.697 102.562C404.697 102.078 404.786 101.67 404.964 101.341C405.143 101.011 405.385 100.746 405.692 100.545C405.999 100.345 406.347 100.193 406.737 100.091C407.131 99.9886 407.544 99.9167 407.976 99.875C408.483 99.822 408.893 99.7727 409.203 99.7273C409.514 99.678 409.739 99.6061 409.879 99.5114C410.019 99.4167 410.089 99.2765 410.089 99.0909V99.0568C410.089 98.697 409.976 98.4186 409.749 98.2216C409.525 98.0246 409.207 97.9261 408.794 97.9261C408.358 97.9261 408.012 98.0227 407.754 98.2159C407.497 98.4053 407.326 98.6439 407.243 98.9318L405.004 98.75C405.118 98.2197 405.341 97.7614 405.675 97.375C406.008 96.9848 406.438 96.6856 406.964 96.4773C407.495 96.2652 408.108 96.1591 408.805 96.1591C409.29 96.1591 409.754 96.2159 410.197 96.3295C410.644 96.4432 411.04 96.6193 411.385 96.858C411.733 97.0966 412.008 97.4034 412.209 97.7784C412.41 98.1496 412.51 98.5947 412.51 99.1136V105H410.214V103.79H410.146C410.006 104.062 409.819 104.303 409.584 104.511C409.349 104.716 409.067 104.877 408.737 104.994C408.408 105.108 408.027 105.165 407.595 105.165ZM408.288 103.494C408.644 103.494 408.959 103.424 409.232 103.284C409.504 103.14 409.718 102.947 409.874 102.705C410.029 102.462 410.107 102.187 410.107 101.881V100.955C410.031 101.004 409.927 101.049 409.794 101.091C409.665 101.129 409.519 101.165 409.357 101.199C409.194 101.229 409.031 101.258 408.868 101.284C408.705 101.307 408.557 101.328 408.425 101.347C408.141 101.388 407.893 101.455 407.68 101.545C407.468 101.636 407.304 101.759 407.186 101.915C407.069 102.066 407.01 102.256 407.01 102.483C407.01 102.812 407.129 103.064 407.368 103.239C407.61 103.409 407.917 103.494 408.288 103.494Z" fill="#0D1117"/>
<circle cx="442" cy="99" r="4" fill="#0D1117"/>
<rect x="484" y="81" width="64" height="37" fill="#FCCE2E"/>
<path d="M495.963 99.5852V104H493.845V96.3636H495.864V97.7109H495.953C496.122 97.2668 496.406 96.9155 496.803 96.657C497.201 96.3951 497.683 96.2642 498.25 96.2642C498.78 96.2642 499.243 96.3802 499.637 96.6122C500.031 96.8442 500.338 97.1757 500.557 97.6065C500.776 98.0341 500.885 98.5445 500.885 99.1378V104H498.767V99.5156C498.77 99.0483 498.651 98.6837 498.409 98.4219C498.167 98.1567 497.834 98.0241 497.41 98.0241C497.125 98.0241 496.873 98.0855 496.654 98.2081C496.439 98.3307 496.27 98.5097 496.147 98.745C496.028 98.977 495.966 99.2571 495.963 99.5852ZM507.451 100.749V96.3636H509.569V104H507.536V102.613H507.456C507.284 103.06 506.997 103.42 506.596 103.692C506.198 103.964 505.713 104.099 505.139 104.099C504.629 104.099 504.18 103.983 503.792 103.751C503.404 103.519 503.101 103.19 502.882 102.762C502.667 102.335 502.557 101.822 502.554 101.226V96.3636H504.672V100.848C504.675 101.299 504.796 101.655 505.035 101.917C505.274 102.179 505.593 102.31 505.994 102.31C506.25 102.31 506.488 102.252 506.71 102.136C506.932 102.016 507.111 101.841 507.247 101.609C507.387 101.377 507.454 101.09 507.451 100.749ZM513.381 93.8182V104H511.263V93.8182H513.381ZM517.195 93.8182V104H515.078V93.8182H517.195ZM518.892 106.864V96.3636H520.98V97.6463H521.075C521.167 97.4408 521.302 97.232 521.477 97.0199C521.656 96.8045 521.888 96.6255 522.173 96.483C522.462 96.3371 522.82 96.2642 523.247 96.2642C523.804 96.2642 524.318 96.41 524.788 96.7017C525.259 96.9901 525.635 97.4259 525.917 98.0092C526.199 98.5893 526.339 99.3168 526.339 100.192C526.339 101.044 526.202 101.763 525.927 102.349C525.655 102.933 525.284 103.375 524.813 103.677C524.346 103.975 523.822 104.124 523.242 104.124C522.831 104.124 522.482 104.056 522.193 103.92C521.908 103.785 521.674 103.614 521.492 103.408C521.31 103.2 521.171 102.989 521.075 102.777H521.01V106.864H518.892ZM520.965 100.182C520.965 100.636 521.028 101.032 521.154 101.37C521.28 101.708 521.462 101.972 521.701 102.161C521.94 102.346 522.23 102.439 522.571 102.439C522.916 102.439 523.207 102.344 523.446 102.156C523.685 101.963 523.865 101.698 523.988 101.36C524.114 101.019 524.177 100.626 524.177 100.182C524.177 99.741 524.116 99.3532 523.993 99.0185C523.87 98.6837 523.69 98.4219 523.451 98.233C523.212 98.044 522.919 97.9496 522.571 97.9496C522.226 97.9496 521.935 98.0407 521.696 98.223C521.461 98.4053 521.28 98.6638 521.154 98.9986C521.028 99.3333 520.965 99.7277 520.965 100.182ZM531.813 96.3636V97.9545H527.214V96.3636H531.813ZM528.259 94.5341H530.376V101.653C530.376 101.849 530.406 102.001 530.466 102.111C530.526 102.217 530.608 102.291 530.714 102.335C530.824 102.378 530.95 102.399 531.092 102.399C531.192 102.399 531.291 102.391 531.391 102.374C531.49 102.354 531.566 102.339 531.619 102.33L531.952 103.906C531.846 103.939 531.697 103.977 531.505 104.02C531.313 104.066 531.079 104.094 530.804 104.104C530.294 104.124 529.846 104.056 529.462 103.901C529.08 103.745 528.784 103.503 528.572 103.175C528.36 102.847 528.255 102.432 528.259 101.932V94.5341ZM533.193 104V96.3636H535.246V97.696H535.326C535.465 97.2221 535.699 96.8641 536.027 96.6222C536.355 96.3769 536.733 96.2543 537.16 96.2543C537.266 96.2543 537.381 96.2609 537.503 96.2741C537.626 96.2874 537.734 96.3056 537.826 96.3288V98.2081C537.727 98.1783 537.589 98.1518 537.414 98.1286C537.238 98.1054 537.077 98.0938 536.931 98.0938C536.62 98.0938 536.342 98.1617 536.096 98.2976C535.854 98.4302 535.662 98.6158 535.52 98.8544C535.38 99.093 535.311 99.3681 535.311 99.6797V104H533.193Z" fill="#0D1117"/>
<path d="M111.692 100.106L111.948 99.85H111.586H79C78.5306 99.85 78.15 99.4694 78.15 99C78.15 98.5306 78.5306 98.15 79 98.15H111.586H111.948L111.692 97.8939L107.035 93.2371C106.703 92.9051 106.703 92.3669 107.035 92.035C107.367 91.7031 107.905 91.7031 108.237 92.035L114.601 98.399C114.933 98.7309 114.933 99.2691 114.601 99.601L108.237 105.965C107.905 106.297 107.367 106.297 107.035 105.965C106.703 105.633 106.703 105.095 107.035 104.763L111.692 100.106Z" fill="#FCCE2E" stroke="black" stroke-width="0.3"/>
<path d="M44.1832 130.023L43.9364 129.814L43.9364 130.137L43.9364 160.081C43.9364 160.483 43.5417 160.85 43 160.85C42.4583 160.85 42.0636 160.483 42.0636 160.081L42.0636 130.137L42.0636 129.814L41.8168 130.023L36.7577 134.302C36.3893 134.614 35.7834 134.614 35.4151 134.302C35.0616 134.003 35.0616 133.531 35.4151 133.232L42.3287 127.384C42.697 127.072 43.303 127.072 43.6713 127.384L50.5849 133.232C50.9384 133.531 50.9384 134.003 50.5849 134.302C50.2166 134.614 49.6107 134.614 49.2423 134.302L44.1832 130.023Z" fill="#FCCE2E" stroke="black" stroke-width="0.3"/>
<path d="M404.817 68.9771L405.064 69.186L405.064 68.8626L405.064 38.9189C405.064 38.5168 405.458 38.15 406 38.15C406.542 38.15 406.936 38.5168 406.936 38.9189L406.936 68.8626L406.936 69.186L407.183 68.9771L412.242 64.6979C412.611 64.3863 413.217 64.3863 413.585 64.6979C413.938 64.9968 413.938 65.4694 413.585 65.7684L406.671 71.6163C406.303 71.9279 405.697 71.9279 405.329 71.6163L398.415 65.7684C398.062 65.4694 398.062 64.9968 398.415 64.6979C398.783 64.3863 399.389 64.3863 399.758 64.6979L404.817 68.9771Z" fill="#FCCE2E" stroke="black" stroke-width="0.3"/>
<path d="M233.692 100.47L233.948 100.214H233.586H201C200.531 100.214 200.15 99.8334 200.15 99.364C200.15 98.8945 200.531 98.514 201 98.514H233.586H233.948L233.692 98.2579L229.035 93.601C228.703 93.2691 228.703 92.7309 229.035 92.399C229.367 92.067 229.905 92.067 230.237 92.399L236.601 98.7629C236.933 99.0949 236.933 99.6331 236.601 99.965L230.237 106.329C229.905 106.661 229.367 106.661 229.035 106.329C228.703 105.997 228.703 105.459 229.035 105.127L233.692 100.47Z" fill="#FCCE2E" stroke="black" stroke-width="0.3"/>
<path d="M354.692 100.47L354.948 100.214H354.586H322C321.531 100.214 321.15 99.8334 321.15 99.364C321.15 98.8945 321.531 98.514 322 98.514H354.586H354.948L354.692 98.2579L350.035 93.601C349.703 93.2691 349.703 92.7309 350.035 92.399C350.367 92.067 350.905 92.067 351.237 92.399L357.601 98.7629C357.933 99.0949 357.933 99.6331 357.601 99.965L351.237 106.329C350.905 106.661 350.367 106.661 350.035 106.329C349.703 105.997 349.703 105.459 350.035 105.127L354.692 100.47Z" fill="#FCCE2E" stroke="black" stroke-width="0.3"/>
<path d="M475.692 100.47L475.948 100.214H475.586H443C442.531 100.214 442.15 99.8334 442.15 99.364C442.15 98.8945 442.531 98.514 443 98.514H475.586H475.948L475.692 98.2579L471.035 93.601C470.703 93.2691 470.703 92.7309 471.035 92.399C471.367 92.067 471.905 92.067 472.237 92.399L478.601 98.7629C478.933 99.0949 478.933 99.6331 478.601 99.965L472.237 106.329C471.905 106.661 471.367 106.661 471.035 106.329C470.703 105.997 470.703 105.459 471.035 105.127L475.692 100.47Z" fill="#FCCE2E" stroke="black" stroke-width="0.3"/>
<rect x="14" y="170" width="58" height="29" rx="5" fill="#FCCE2E"/>
<rect x="377" width="58" height="29" rx="5" fill="#FCCE2E"/>
<path d="M24.0114 190V178.364H26.4716V183.165H31.4659V178.364H33.9205V190H31.4659V185.193H26.4716V190H24.0114ZM39.8807 190.17C38.983 190.17 38.2102 189.989 37.5625 189.625C36.9186 189.258 36.4223 188.739 36.0739 188.068C35.7254 187.394 35.5511 186.597 35.5511 185.676C35.5511 184.778 35.7254 183.991 36.0739 183.312C36.4223 182.634 36.9129 182.106 37.5455 181.727C38.1818 181.348 38.928 181.159 39.7841 181.159C40.3598 181.159 40.8958 181.252 41.392 181.438C41.892 181.619 42.3277 181.894 42.6989 182.261C43.0739 182.629 43.3655 183.091 43.5739 183.648C43.7822 184.201 43.8864 184.848 43.8864 185.591V186.256H36.517V184.756H41.608C41.608 184.407 41.5322 184.098 41.3807 183.83C41.2292 183.561 41.0189 183.35 40.75 183.199C40.4848 183.044 40.1761 182.966 39.8239 182.966C39.4564 182.966 39.1307 183.051 38.8466 183.222C38.5663 183.388 38.3466 183.614 38.1875 183.898C38.0284 184.178 37.947 184.491 37.9432 184.835V186.261C37.9432 186.693 38.0227 187.066 38.1818 187.381C38.3447 187.695 38.5739 187.938 38.8693 188.108C39.1648 188.278 39.5152 188.364 39.9205 188.364C40.1894 188.364 40.4356 188.326 40.6591 188.25C40.8826 188.174 41.0739 188.061 41.233 187.909C41.392 187.758 41.5133 187.572 41.5966 187.352L43.8352 187.5C43.7216 188.038 43.4886 188.508 43.1364 188.909C42.7879 189.307 42.3371 189.617 41.7841 189.841C41.2348 190.061 40.6004 190.17 39.8807 190.17ZM47.9545 190.165C47.3977 190.165 46.9015 190.068 46.4659 189.875C46.0303 189.678 45.6856 189.388 45.4318 189.006C45.1818 188.619 45.0568 188.138 45.0568 187.562C45.0568 187.078 45.1458 186.67 45.3239 186.341C45.5019 186.011 45.7443 185.746 46.0511 185.545C46.358 185.345 46.7064 185.193 47.0966 185.091C47.4905 184.989 47.9034 184.917 48.3352 184.875C48.8428 184.822 49.2519 184.773 49.5625 184.727C49.8731 184.678 50.0985 184.606 50.2386 184.511C50.3788 184.417 50.4489 184.277 50.4489 184.091V184.057C50.4489 183.697 50.3352 183.419 50.108 183.222C49.8845 183.025 49.5663 182.926 49.1534 182.926C48.7178 182.926 48.3712 183.023 48.1136 183.216C47.8561 183.405 47.6856 183.644 47.6023 183.932L45.3636 183.75C45.4773 183.22 45.7008 182.761 46.0341 182.375C46.3674 181.985 46.7973 181.686 47.3239 181.477C47.8542 181.265 48.4678 181.159 49.1648 181.159C49.6496 181.159 50.1136 181.216 50.5568 181.33C51.0038 181.443 51.3996 181.619 51.7443 181.858C52.0928 182.097 52.3674 182.403 52.5682 182.778C52.7689 183.15 52.8693 183.595 52.8693 184.114V190H50.5739V188.79H50.5057C50.3655 189.062 50.178 189.303 49.9432 189.511C49.7083 189.716 49.4261 189.877 49.0966 189.994C48.767 190.108 48.3864 190.165 47.9545 190.165ZM48.6477 188.494C49.0038 188.494 49.3182 188.424 49.5909 188.284C49.8636 188.14 50.0777 187.947 50.233 187.705C50.3883 187.462 50.4659 187.187 50.4659 186.881V185.955C50.3902 186.004 50.286 186.049 50.1534 186.091C50.0246 186.129 49.8788 186.165 49.7159 186.199C49.553 186.229 49.3902 186.258 49.2273 186.284C49.0644 186.307 48.9167 186.328 48.7841 186.347C48.5 186.388 48.2519 186.455 48.0398 186.545C47.8277 186.636 47.6629 186.759 47.5455 186.915C47.428 187.066 47.3693 187.256 47.3693 187.483C47.3693 187.812 47.4886 188.064 47.7273 188.239C47.9697 188.409 48.2765 188.494 48.6477 188.494ZM57.9631 190.142C57.3002 190.142 56.6998 189.972 56.1619 189.631C55.6278 189.286 55.2036 188.78 54.8892 188.114C54.5786 187.443 54.4233 186.621 54.4233 185.648C54.4233 184.648 54.5843 183.816 54.9062 183.153C55.2282 182.487 55.6563 181.989 56.1903 181.659C56.7282 181.326 57.3172 181.159 57.9574 181.159C58.446 181.159 58.8532 181.242 59.179 181.409C59.5085 181.572 59.7737 181.777 59.9744 182.023C60.179 182.265 60.3343 182.504 60.4403 182.739H60.5142V178.364H62.929V190H60.5426V188.602H60.4403C60.3267 188.845 60.1657 189.085 59.9574 189.324C59.7528 189.559 59.4858 189.754 59.1562 189.909C58.8305 190.064 58.4328 190.142 57.9631 190.142ZM58.7301 188.216C59.1203 188.216 59.4498 188.11 59.7188 187.898C59.9915 187.682 60.1998 187.381 60.3438 186.994C60.4915 186.608 60.5653 186.155 60.5653 185.636C60.5653 185.117 60.4934 184.667 60.3494 184.284C60.2055 183.902 59.9972 183.606 59.7244 183.398C59.4517 183.189 59.1203 183.085 58.7301 183.085C58.3324 183.085 57.9972 183.193 57.7244 183.409C57.4517 183.625 57.2453 183.924 57.1051 184.307C56.965 184.689 56.8949 185.133 56.8949 185.636C56.8949 186.144 56.965 186.593 57.1051 186.983C57.2491 187.369 57.4555 187.672 57.7244 187.892C57.9972 188.108 58.3324 188.216 58.7301 188.216Z" fill="#0D1117"/>
<path d="M392.568 10.392V8.36364H402.125V10.392H398.562V20H396.131V10.392H392.568ZM404.955 20.1648C404.398 20.1648 403.902 20.0682 403.466 19.875C403.03 19.678 402.686 19.3883 402.432 19.0057C402.182 18.6193 402.057 18.1383 402.057 17.5625C402.057 17.0777 402.146 16.6705 402.324 16.3409C402.502 16.0114 402.744 15.7462 403.051 15.5455C403.358 15.3447 403.706 15.1932 404.097 15.0909C404.491 14.9886 404.903 14.9167 405.335 14.875C405.843 14.822 406.252 14.7727 406.562 14.7273C406.873 14.678 407.098 14.6061 407.239 14.5114C407.379 14.4167 407.449 14.2765 407.449 14.0909V14.0568C407.449 13.697 407.335 13.4186 407.108 13.2216C406.884 13.0246 406.566 12.9261 406.153 12.9261C405.718 12.9261 405.371 13.0227 405.114 13.2159C404.856 13.4053 404.686 13.6439 404.602 13.9318L402.364 13.75C402.477 13.2197 402.701 12.7614 403.034 12.375C403.367 11.9848 403.797 11.6856 404.324 11.4773C404.854 11.2652 405.468 11.1591 406.165 11.1591C406.65 11.1591 407.114 11.2159 407.557 11.3295C408.004 11.4432 408.4 11.6193 408.744 11.858C409.093 12.0966 409.367 12.4034 409.568 12.7784C409.769 13.1496 409.869 13.5947 409.869 14.1136V20H407.574V18.7898H407.506C407.366 19.0625 407.178 19.303 406.943 19.5114C406.708 19.7159 406.426 19.8769 406.097 19.9943C405.767 20.108 405.386 20.1648 404.955 20.1648ZM405.648 18.4943C406.004 18.4943 406.318 18.4242 406.591 18.2841C406.864 18.1402 407.078 17.947 407.233 17.7045C407.388 17.4621 407.466 17.1875 407.466 16.8807V15.9545C407.39 16.0038 407.286 16.0492 407.153 16.0909C407.025 16.1288 406.879 16.1648 406.716 16.1989C406.553 16.2292 406.39 16.2576 406.227 16.2841C406.064 16.3068 405.917 16.3277 405.784 16.3466C405.5 16.3883 405.252 16.4545 405.04 16.5455C404.828 16.6364 404.663 16.7595 404.545 16.9148C404.428 17.0663 404.369 17.2557 404.369 17.483C404.369 17.8125 404.489 18.0644 404.727 18.2386C404.97 18.4091 405.277 18.4943 405.648 18.4943ZM411.747 20V11.2727H414.168V20H411.747ZM412.963 10.1477C412.603 10.1477 412.295 10.0284 412.037 9.78977C411.783 9.54735 411.656 9.25758 411.656 8.92045C411.656 8.58712 411.783 8.30114 412.037 8.0625C412.295 7.82008 412.603 7.69886 412.963 7.69886C413.323 7.69886 413.63 7.82008 413.884 8.0625C414.141 8.30114 414.27 8.58712 414.27 8.92045C414.27 9.25758 414.141 9.54735 413.884 9.78977C413.63 10.0284 413.323 10.1477 412.963 10.1477ZM418.527 8.36364V20H416.107V8.36364H418.527Z" fill="#0D1117"/>
</svg>
