<svg width="750" height="199" viewBox="0 0 750 199" fill="none" xmlns="http://www.w3.org/2000/svg">
<rect x="121" y="81" width="64" height="37" fill="#FCCE2E"/>
<rect x="188" y="81" width="24" height="37" fill="#FCCE2E"/>
<rect x="94" y="81" width="24" height="37" fill="#FCCE2E"/>
<path d="M140.136 105H136.011V93.3636H140.17C141.341 93.3636 142.348 93.5966 143.193 94.0625C144.038 94.5246 144.688 95.1894 145.142 96.0568C145.6 96.9242 145.83 97.9621 145.83 99.1705C145.83 100.383 145.6 101.424 145.142 102.295C144.688 103.167 144.034 103.835 143.182 104.301C142.333 104.767 141.318 105 140.136 105ZM138.472 102.892H140.034C140.761 102.892 141.373 102.763 141.869 102.506C142.369 102.244 142.744 101.841 142.994 101.295C143.248 100.746 143.375 100.038 143.375 99.1705C143.375 98.3106 143.248 97.608 142.994 97.0625C142.744 96.517 142.371 96.1155 141.875 95.858C141.379 95.6004 140.767 95.4716 140.04 95.4716H138.472V102.892ZM150.095 105.165C149.538 105.165 149.042 105.068 148.607 104.875C148.171 104.678 147.826 104.388 147.572 104.006C147.322 103.619 147.197 103.138 147.197 102.562C147.197 102.078 147.286 101.67 147.464 101.341C147.643 101.011 147.885 100.746 148.192 100.545C148.499 100.345 148.847 100.193 149.237 100.091C149.631 99.9886 150.044 99.9167 150.476 99.875C150.983 99.822 151.393 99.7727 151.703 99.7273C152.014 99.678 152.239 99.6061 152.379 99.5114C152.519 99.4167 152.589 99.2765 152.589 99.0909V99.0568C152.589 98.697 152.476 98.4186 152.249 98.2216C152.025 98.0246 151.707 97.9261 151.294 97.9261C150.858 97.9261 150.512 98.0227 150.254 98.2159C149.997 98.4053 149.826 98.6439 149.743 98.9318L147.504 98.75C147.618 98.2197 147.841 97.7614 148.175 97.375C148.508 96.9848 148.938 96.6856 149.464 96.4773C149.995 96.2652 150.608 96.1591 151.305 96.1591C151.79 96.1591 152.254 96.2159 152.697 96.3295C153.144 96.4432 153.54 96.6193 153.885 96.858C154.233 97.0966 154.508 97.4034 154.709 97.7784C154.91 98.1496 155.01 98.5947 155.01 99.1136V105H152.714V103.79H152.646C152.506 104.062 152.319 104.303 152.084 104.511C151.849 104.716 151.567 104.877 151.237 104.994C150.908 105.108 150.527 105.165 150.095 105.165ZM150.788 103.494C151.144 103.494 151.459 103.424 151.732 103.284C152.004 103.14 152.218 102.947 152.374 102.705C152.529 102.462 152.607 102.187 152.607 101.881V100.955C152.531 101.004 152.427 101.049 152.294 101.091C152.165 101.129 152.019 101.165 151.857 101.199C151.694 101.229 151.531 101.258 151.368 101.284C151.205 101.307 151.057 101.328 150.925 101.347C150.641 101.388 150.393 101.455 150.18 101.545C149.968 101.636 149.804 101.759 149.686 101.915C149.569 102.066 149.51 102.256 149.51 102.483C149.51 102.812 149.629 103.064 149.868 103.239C150.11 103.409 150.417 103.494 150.788 103.494ZM161.53 96.2727V98.0909H156.274V96.2727H161.53ZM157.467 94.1818H159.888V102.318C159.888 102.542 159.922 102.716 159.99 102.841C160.058 102.962 160.153 103.047 160.274 103.097C160.399 103.146 160.543 103.17 160.706 103.17C160.82 103.17 160.933 103.161 161.047 103.142C161.161 103.119 161.248 103.102 161.308 103.091L161.689 104.892C161.568 104.93 161.397 104.973 161.178 105.023C160.958 105.076 160.691 105.108 160.376 105.119C159.793 105.142 159.282 105.064 158.842 104.886C158.407 104.708 158.068 104.432 157.825 104.057C157.583 103.682 157.464 103.208 157.467 102.636V94.1818ZM165.595 105.165C165.038 105.165 164.542 105.068 164.107 104.875C163.671 104.678 163.326 104.388 163.072 104.006C162.822 103.619 162.697 103.138 162.697 102.562C162.697 102.078 162.786 101.67 162.964 101.341C163.143 101.011 163.385 100.746 163.692 100.545C163.999 100.345 164.347 100.193 164.737 100.091C165.131 99.9886 165.544 99.9167 165.976 99.875C166.483 99.822 166.893 99.7727 167.203 99.7273C167.514 99.678 167.739 99.6061 167.879 99.5114C168.019 99.4167 168.089 99.2765 168.089 99.0909V99.0568C168.089 98.697 167.976 98.4186 167.749 98.2216C167.525 98.0246 167.207 97.9261 166.794 97.9261C166.358 97.9261 166.012 98.0227 165.754 98.2159C165.497 98.4053 165.326 98.6439 165.243 98.9318L163.004 98.75C163.118 98.2197 163.341 97.7614 163.675 97.375C164.008 96.9848 164.438 96.6856 164.964 96.4773C165.495 96.2652 166.108 96.1591 166.805 96.1591C167.29 96.1591 167.754 96.2159 168.197 96.3295C168.644 96.4432 169.04 96.6193 169.385 96.858C169.733 97.0966 170.008 97.4034 170.209 97.7784C170.41 98.1496 170.51 98.5947 170.51 99.1136V105H168.214V103.79H168.146C168.006 104.062 167.819 104.303 167.584 104.511C167.349 104.716 167.067 104.877 166.737 104.994C166.408 105.108 166.027 105.165 165.595 105.165ZM166.288 103.494C166.644 103.494 166.959 103.424 167.232 103.284C167.504 103.14 167.718 102.947 167.874 102.705C168.029 102.462 168.107 102.187 168.107 101.881V100.955C168.031 101.004 167.927 101.049 167.794 101.091C167.665 101.129 167.519 101.165 167.357 101.199C167.194 101.229 167.031 101.258 166.868 101.284C166.705 101.307 166.557 101.328 166.425 101.347C166.141 101.388 165.893 101.455 165.68 101.545C165.468 101.636 165.304 101.759 165.186 101.915C165.069 102.066 165.01 102.256 165.01 102.483C165.01 102.812 165.129 103.064 165.368 103.239C165.61 103.409 165.917 103.494 166.288 103.494Z" fill="#0D1117"/>
<circle cx="200" cy="99" r="4" fill="#0D1117"/>
<circle cx="106" cy="99" r="4" fill="#0D1117"/>
<rect x="269" y="81" width="64" height="37" fill="#FCCE2E"/>
<rect x="336" y="81" width="24" height="37" fill="#FCCE2E"/>
<rect x="242" y="81" width="24" height="37" fill="#FCCE2E"/>
<path d="M288.136 105H284.011V93.3636H288.17C289.341 93.3636 290.348 93.5966 291.193 94.0625C292.038 94.5246 292.688 95.1894 293.142 96.0568C293.6 96.9242 293.83 97.9621 293.83 99.1705C293.83 100.383 293.6 101.424 293.142 102.295C292.688 103.167 292.034 103.835 291.182 104.301C290.333 104.767 289.318 105 288.136 105ZM286.472 102.892H288.034C288.761 102.892 289.373 102.763 289.869 102.506C290.369 102.244 290.744 101.841 290.994 101.295C291.248 100.746 291.375 100.038 291.375 99.1705C291.375 98.3106 291.248 97.608 290.994 97.0625C290.744 96.517 290.371 96.1155 289.875 95.858C289.379 95.6004 288.767 95.4716 288.04 95.4716H286.472V102.892ZM298.095 105.165C297.538 105.165 297.042 105.068 296.607 104.875C296.171 104.678 295.826 104.388 295.572 104.006C295.322 103.619 295.197 103.138 295.197 102.562C295.197 102.078 295.286 101.67 295.464 101.341C295.643 101.011 295.885 100.746 296.192 100.545C296.499 100.345 296.847 100.193 297.237 100.091C297.631 99.9886 298.044 99.9167 298.476 99.875C298.983 99.822 299.393 99.7727 299.703 99.7273C300.014 99.678 300.239 99.6061 300.379 99.5114C300.519 99.4167 300.589 99.2765 300.589 99.0909V99.0568C300.589 98.697 300.476 98.4186 300.249 98.2216C300.025 98.0246 299.707 97.9261 299.294 97.9261C298.858 97.9261 298.512 98.0227 298.254 98.2159C297.997 98.4053 297.826 98.6439 297.743 98.9318L295.504 98.75C295.618 98.2197 295.841 97.7614 296.175 97.375C296.508 96.9848 296.938 96.6856 297.464 96.4773C297.995 96.2652 298.608 96.1591 299.305 96.1591C299.79 96.1591 300.254 96.2159 300.697 96.3295C301.144 96.4432 301.54 96.6193 301.885 96.858C302.233 97.0966 302.508 97.4034 302.709 97.7784C302.91 98.1496 303.01 98.5947 303.01 99.1136V105H300.714V103.79H300.646C300.506 104.062 300.319 104.303 300.084 104.511C299.849 104.716 299.567 104.877 299.237 104.994C298.908 105.108 298.527 105.165 298.095 105.165ZM298.788 103.494C299.144 103.494 299.459 103.424 299.732 103.284C300.004 103.14 300.218 102.947 300.374 102.705C300.529 102.462 300.607 102.187 300.607 101.881V100.955C300.531 101.004 300.427 101.049 300.294 101.091C300.165 101.129 300.019 101.165 299.857 101.199C299.694 101.229 299.531 101.258 299.368 101.284C299.205 101.307 299.057 101.328 298.925 101.347C298.641 101.388 298.393 101.455 298.18 101.545C297.968 101.636 297.804 101.759 297.686 101.915C297.569 102.066 297.51 102.256 297.51 102.483C297.51 102.812 297.629 103.064 297.868 103.239C298.11 103.409 298.417 103.494 298.788 103.494ZM309.53 96.2727V98.0909H304.274V96.2727H309.53ZM305.467 94.1818H307.888V102.318C307.888 102.542 307.922 102.716 307.99 102.841C308.058 102.962 308.153 103.047 308.274 103.097C308.399 103.146 308.543 103.17 308.706 103.17C308.82 103.17 308.933 103.161 309.047 103.142C309.161 103.119 309.248 103.102 309.308 103.091L309.689 104.892C309.568 104.93 309.397 104.973 309.178 105.023C308.958 105.076 308.691 105.108 308.376 105.119C307.793 105.142 307.282 105.064 306.842 104.886C306.407 104.708 306.068 104.432 305.825 104.057C305.583 103.682 305.464 103.208 305.467 102.636V94.1818ZM313.595 105.165C313.038 105.165 312.542 105.068 312.107 104.875C311.671 104.678 311.326 104.388 311.072 104.006C310.822 103.619 310.697 103.138 310.697 102.562C310.697 102.078 310.786 101.67 310.964 101.341C311.143 101.011 311.385 100.746 311.692 100.545C311.999 100.345 312.347 100.193 312.737 100.091C313.131 99.9886 313.544 99.9167 313.976 99.875C314.483 99.822 314.893 99.7727 315.203 99.7273C315.514 99.678 315.739 99.6061 315.879 99.5114C316.019 99.4167 316.089 99.2765 316.089 99.0909V99.0568C316.089 98.697 315.976 98.4186 315.749 98.2216C315.525 98.0246 315.207 97.9261 314.794 97.9261C314.358 97.9261 314.012 98.0227 313.754 98.2159C313.497 98.4053 313.326 98.6439 313.243 98.9318L311.004 98.75C311.118 98.2197 311.341 97.7614 311.675 97.375C312.008 96.9848 312.438 96.6856 312.964 96.4773C313.495 96.2652 314.108 96.1591 314.805 96.1591C315.29 96.1591 315.754 96.2159 316.197 96.3295C316.644 96.4432 317.04 96.6193 317.385 96.858C317.733 97.0966 318.008 97.4034 318.209 97.7784C318.41 98.1496 318.51 98.5947 318.51 99.1136V105H316.214V103.79H316.146C316.006 104.062 315.819 104.303 315.584 104.511C315.349 104.716 315.067 104.877 314.737 104.994C314.408 105.108 314.027 105.165 313.595 105.165ZM314.288 103.494C314.644 103.494 314.959 103.424 315.232 103.284C315.504 103.14 315.718 102.947 315.874 102.705C316.029 102.462 316.107 102.187 316.107 101.881V100.955C316.031 101.004 315.927 101.049 315.794 101.091C315.665 101.129 315.519 101.165 315.357 101.199C315.194 101.229 315.031 101.258 314.868 101.284C314.705 101.307 314.557 101.328 314.425 101.347C314.141 101.388 313.893 101.455 313.68 101.545C313.468 101.636 313.304 101.759 313.186 101.915C313.069 102.066 313.01 102.256 313.01 102.483C313.01 102.812 313.129 103.064 313.368 103.239C313.61 103.409 313.917 103.494 314.288 103.494Z" fill="#0D1117"/>
<circle cx="348" cy="99" r="4" fill="#0D1117"/>
<circle cx="254" cy="99" r="4" fill="#0D1117"/>
<rect x="417" y="81" width="64" height="37" fill="#FCCE2E"/>
<rect x="484" y="81" width="24" height="37" fill="#FCCE2E"/>
<rect x="390" y="81" width="24" height="37" fill="#FCCE2E"/>
<path d="M436.136 105H432.011V93.3636H436.17C437.341 93.3636 438.348 93.5966 439.193 94.0625C440.038 94.5246 440.688 95.1894 441.142 96.0568C441.6 96.9242 441.83 97.9621 441.83 99.1705C441.83 100.383 441.6 101.424 441.142 102.295C440.688 103.167 440.034 103.835 439.182 104.301C438.333 104.767 437.318 105 436.136 105ZM434.472 102.892H436.034C436.761 102.892 437.373 102.763 437.869 102.506C438.369 102.244 438.744 101.841 438.994 101.295C439.248 100.746 439.375 100.038 439.375 99.1705C439.375 98.3106 439.248 97.608 438.994 97.0625C438.744 96.517 438.371 96.1155 437.875 95.858C437.379 95.6004 436.767 95.4716 436.04 95.4716H434.472V102.892ZM446.095 105.165C445.538 105.165 445.042 105.068 444.607 104.875C444.171 104.678 443.826 104.388 443.572 104.006C443.322 103.619 443.197 103.138 443.197 102.562C443.197 102.078 443.286 101.67 443.464 101.341C443.643 101.011 443.885 100.746 444.192 100.545C444.499 100.345 444.847 100.193 445.237 100.091C445.631 99.9886 446.044 99.9167 446.476 99.875C446.983 99.822 447.393 99.7727 447.703 99.7273C448.014 99.678 448.239 99.6061 448.379 99.5114C448.519 99.4167 448.589 99.2765 448.589 99.0909V99.0568C448.589 98.697 448.476 98.4186 448.249 98.2216C448.025 98.0246 447.707 97.9261 447.294 97.9261C446.858 97.9261 446.512 98.0227 446.254 98.2159C445.997 98.4053 445.826 98.6439 445.743 98.9318L443.504 98.75C443.618 98.2197 443.841 97.7614 444.175 97.375C444.508 96.9848 444.938 96.6856 445.464 96.4773C445.995 96.2652 446.608 96.1591 447.305 96.1591C447.79 96.1591 448.254 96.2159 448.697 96.3295C449.144 96.4432 449.54 96.6193 449.885 96.858C450.233 97.0966 450.508 97.4034 450.709 97.7784C450.91 98.1496 451.01 98.5947 451.01 99.1136V105H448.714V103.79H448.646C448.506 104.062 448.319 104.303 448.084 104.511C447.849 104.716 447.567 104.877 447.237 104.994C446.908 105.108 446.527 105.165 446.095 105.165ZM446.788 103.494C447.144 103.494 447.459 103.424 447.732 103.284C448.004 103.14 448.218 102.947 448.374 102.705C448.529 102.462 448.607 102.187 448.607 101.881V100.955C448.531 101.004 448.427 101.049 448.294 101.091C448.165 101.129 448.019 101.165 447.857 101.199C447.694 101.229 447.531 101.258 447.368 101.284C447.205 101.307 447.057 101.328 446.925 101.347C446.641 101.388 446.393 101.455 446.18 101.545C445.968 101.636 445.804 101.759 445.686 101.915C445.569 102.066 445.51 102.256 445.51 102.483C445.51 102.812 445.629 103.064 445.868 103.239C446.11 103.409 446.417 103.494 446.788 103.494ZM457.53 96.2727V98.0909H452.274V96.2727H457.53ZM453.467 94.1818H455.888V102.318C455.888 102.542 455.922 102.716 455.99 102.841C456.058 102.962 456.153 103.047 456.274 103.097C456.399 103.146 456.543 103.17 456.706 103.17C456.82 103.17 456.933 103.161 457.047 103.142C457.161 103.119 457.248 103.102 457.308 103.091L457.689 104.892C457.568 104.93 457.397 104.973 457.178 105.023C456.958 105.076 456.691 105.108 456.376 105.119C455.793 105.142 455.282 105.064 454.842 104.886C454.407 104.708 454.068 104.432 453.825 104.057C453.583 103.682 453.464 103.208 453.467 102.636V94.1818ZM461.595 105.165C461.038 105.165 460.542 105.068 460.107 104.875C459.671 104.678 459.326 104.388 459.072 104.006C458.822 103.619 458.697 103.138 458.697 102.562C458.697 102.078 458.786 101.67 458.964 101.341C459.143 101.011 459.385 100.746 459.692 100.545C459.999 100.345 460.347 100.193 460.737 100.091C461.131 99.9886 461.544 99.9167 461.976 99.875C462.483 99.822 462.893 99.7727 463.203 99.7273C463.514 99.678 463.739 99.6061 463.879 99.5114C464.019 99.4167 464.089 99.2765 464.089 99.0909V99.0568C464.089 98.697 463.976 98.4186 463.749 98.2216C463.525 98.0246 463.207 97.9261 462.794 97.9261C462.358 97.9261 462.012 98.0227 461.754 98.2159C461.497 98.4053 461.326 98.6439 461.243 98.9318L459.004 98.75C459.118 98.2197 459.341 97.7614 459.675 97.375C460.008 96.9848 460.438 96.6856 460.964 96.4773C461.495 96.2652 462.108 96.1591 462.805 96.1591C463.29 96.1591 463.754 96.2159 464.197 96.3295C464.644 96.4432 465.04 96.6193 465.385 96.858C465.733 97.0966 466.008 97.4034 466.209 97.7784C466.41 98.1496 466.51 98.5947 466.51 99.1136V105H464.214V103.79H464.146C464.006 104.062 463.819 104.303 463.584 104.511C463.349 104.716 463.067 104.877 462.737 104.994C462.408 105.108 462.027 105.165 461.595 105.165ZM462.288 103.494C462.644 103.494 462.959 103.424 463.232 103.284C463.504 103.14 463.718 102.947 463.874 102.705C464.029 102.462 464.107 102.187 464.107 101.881V100.955C464.031 101.004 463.927 101.049 463.794 101.091C463.665 101.129 463.519 101.165 463.357 101.199C463.194 101.229 463.031 101.258 462.868 101.284C462.705 101.307 462.557 101.328 462.425 101.347C462.141 101.388 461.893 101.455 461.68 101.545C461.468 101.636 461.304 101.759 461.186 101.915C461.069 102.066 461.01 102.256 461.01 102.483C461.01 102.812 461.129 103.064 461.368 103.239C461.61 103.409 461.917 103.494 462.288 103.494Z" fill="#0D1117"/>
<circle cx="496" cy="99" r="4" fill="#0D1117"/>
<circle cx="402" cy="99" r="4" fill="#0D1117"/>
<rect x="565" y="81" width="64" height="37" fill="#FCCE2E"/>
<rect x="632" y="81" width="24" height="37" fill="#FCCE2E"/>
<rect x="538" y="81" width="24" height="37" fill="#FCCE2E"/>
<path d="M584.136 105H580.011V93.3636H584.17C585.341 93.3636 586.348 93.5966 587.193 94.0625C588.038 94.5246 588.688 95.1894 589.142 96.0568C589.6 96.9242 589.83 97.9621 589.83 99.1705C589.83 100.383 589.6 101.424 589.142 102.295C588.688 103.167 588.034 103.835 587.182 104.301C586.333 104.767 585.318 105 584.136 105ZM582.472 102.892H584.034C584.761 102.892 585.373 102.763 585.869 102.506C586.369 102.244 586.744 101.841 586.994 101.295C587.248 100.746 587.375 100.038 587.375 99.1705C587.375 98.3106 587.248 97.608 586.994 97.0625C586.744 96.517 586.371 96.1155 585.875 95.858C585.379 95.6004 584.767 95.4716 584.04 95.4716H582.472V102.892ZM594.095 105.165C593.538 105.165 593.042 105.068 592.607 104.875C592.171 104.678 591.826 104.388 591.572 104.006C591.322 103.619 591.197 103.138 591.197 102.562C591.197 102.078 591.286 101.67 591.464 101.341C591.643 101.011 591.885 100.746 592.192 100.545C592.499 100.345 592.847 100.193 593.237 100.091C593.631 99.9886 594.044 99.9167 594.476 99.875C594.983 99.822 595.393 99.7727 595.703 99.7273C596.014 99.678 596.239 99.6061 596.379 99.5114C596.519 99.4167 596.589 99.2765 596.589 99.0909V99.0568C596.589 98.697 596.476 98.4186 596.249 98.2216C596.025 98.0246 595.707 97.9261 595.294 97.9261C594.858 97.9261 594.512 98.0227 594.254 98.2159C593.997 98.4053 593.826 98.6439 593.743 98.9318L591.504 98.75C591.618 98.2197 591.841 97.7614 592.175 97.375C592.508 96.9848 592.938 96.6856 593.464 96.4773C593.995 96.2652 594.608 96.1591 595.305 96.1591C595.79 96.1591 596.254 96.2159 596.697 96.3295C597.144 96.4432 597.54 96.6193 597.885 96.858C598.233 97.0966 598.508 97.4034 598.709 97.7784C598.91 98.1496 599.01 98.5947 599.01 99.1136V105H596.714V103.79H596.646C596.506 104.062 596.319 104.303 596.084 104.511C595.849 104.716 595.567 104.877 595.237 104.994C594.908 105.108 594.527 105.165 594.095 105.165ZM594.788 103.494C595.144 103.494 595.459 103.424 595.732 103.284C596.004 103.14 596.218 102.947 596.374 102.705C596.529 102.462 596.607 102.187 596.607 101.881V100.955C596.531 101.004 596.427 101.049 596.294 101.091C596.165 101.129 596.019 101.165 595.857 101.199C595.694 101.229 595.531 101.258 595.368 101.284C595.205 101.307 595.057 101.328 594.925 101.347C594.641 101.388 594.393 101.455 594.18 101.545C593.968 101.636 593.804 101.759 593.686 101.915C593.569 102.066 593.51 102.256 593.51 102.483C593.51 102.812 593.629 103.064 593.868 103.239C594.11 103.409 594.417 103.494 594.788 103.494ZM605.53 96.2727V98.0909H600.274V96.2727H605.53ZM601.467 94.1818H603.888V102.318C603.888 102.542 603.922 102.716 603.99 102.841C604.058 102.962 604.153 103.047 604.274 103.097C604.399 103.146 604.543 103.17 604.706 103.17C604.82 103.17 604.933 103.161 605.047 103.142C605.161 103.119 605.248 103.102 605.308 103.091L605.689 104.892C605.568 104.93 605.397 104.973 605.178 105.023C604.958 105.076 604.691 105.108 604.376 105.119C603.793 105.142 603.282 105.064 602.842 104.886C602.407 104.708 602.068 104.432 601.825 104.057C601.583 103.682 601.464 103.208 601.467 102.636V94.1818ZM609.595 105.165C609.038 105.165 608.542 105.068 608.107 104.875C607.671 104.678 607.326 104.388 607.072 104.006C606.822 103.619 606.697 103.138 606.697 102.562C606.697 102.078 606.786 101.67 606.964 101.341C607.143 101.011 607.385 100.746 607.692 100.545C607.999 100.345 608.347 100.193 608.737 100.091C609.131 99.9886 609.544 99.9167 609.976 99.875C610.483 99.822 610.893 99.7727 611.203 99.7273C611.514 99.678 611.739 99.6061 611.879 99.5114C612.019 99.4167 612.089 99.2765 612.089 99.0909V99.0568C612.089 98.697 611.976 98.4186 611.749 98.2216C611.525 98.0246 611.207 97.9261 610.794 97.9261C610.358 97.9261 610.012 98.0227 609.754 98.2159C609.497 98.4053 609.326 98.6439 609.243 98.9318L607.004 98.75C607.118 98.2197 607.341 97.7614 607.675 97.375C608.008 96.9848 608.438 96.6856 608.964 96.4773C609.495 96.2652 610.108 96.1591 610.805 96.1591C611.29 96.1591 611.754 96.2159 612.197 96.3295C612.644 96.4432 613.04 96.6193 613.385 96.858C613.733 97.0966 614.008 97.4034 614.209 97.7784C614.41 98.1496 614.51 98.5947 614.51 99.1136V105H612.214V103.79H612.146C612.006 104.062 611.819 104.303 611.584 104.511C611.349 104.716 611.067 104.877 610.737 104.994C610.408 105.108 610.027 105.165 609.595 105.165ZM610.288 103.494C610.644 103.494 610.959 103.424 611.232 103.284C611.504 103.14 611.718 102.947 611.874 102.705C612.029 102.462 612.107 102.187 612.107 101.881V100.955C612.031 101.004 611.927 101.049 611.794 101.091C611.665 101.129 611.519 101.165 611.357 101.199C611.194 101.229 611.031 101.258 610.868 101.284C610.705 101.307 610.557 101.328 610.425 101.347C610.141 101.388 609.893 101.455 609.68 101.545C609.468 101.636 609.304 101.759 609.186 101.915C609.069 102.066 609.01 102.256 609.01 102.483C609.01 102.812 609.129 103.064 609.368 103.239C609.61 103.409 609.917 103.494 610.288 103.494Z" fill="#0D1117"/>
<circle cx="644" cy="99" r="4" fill="#0D1117"/>
<circle cx="550" cy="99" r="4" fill="#0D1117"/>
<rect x="686" y="81" width="64" height="37" fill="#FCCE2E"/>
<path d="M697.963 99.5852V104H695.845V96.3636H697.864V97.7109H697.953C698.122 97.2668 698.406 96.9155 698.803 96.657C699.201 96.3951 699.683 96.2642 700.25 96.2642C700.78 96.2642 701.243 96.3802 701.637 96.6122C702.031 96.8442 702.338 97.1757 702.557 97.6065C702.776 98.0341 702.885 98.5445 702.885 99.1378V104H700.767V99.5156C700.77 99.0483 700.651 98.6837 700.409 98.4219C700.167 98.1567 699.834 98.0241 699.41 98.0241C699.125 98.0241 698.873 98.0855 698.654 98.2081C698.439 98.3307 698.27 98.5097 698.147 98.745C698.028 98.977 697.966 99.2571 697.963 99.5852ZM709.451 100.749V96.3636H711.569V104H709.536V102.613H709.456C709.284 103.06 708.997 103.42 708.596 103.692C708.198 103.964 707.713 104.099 707.139 104.099C706.629 104.099 706.18 103.983 705.792 103.751C705.404 103.519 705.101 103.19 704.882 102.762C704.667 102.335 704.557 101.822 704.554 101.226V96.3636H706.672V100.848C706.675 101.299 706.796 101.655 707.035 101.917C707.274 102.179 707.593 102.31 707.994 102.31C708.25 102.31 708.488 102.252 708.71 102.136C708.932 102.016 709.111 101.841 709.247 101.609C709.387 101.377 709.454 101.09 709.451 100.749ZM715.381 93.8182V104H713.263V93.8182H715.381ZM719.195 93.8182V104H717.078V93.8182H719.195ZM720.892 106.864V96.3636H722.98V97.6463H723.075C723.167 97.4408 723.302 97.232 723.477 97.0199C723.656 96.8045 723.888 96.6255 724.173 96.483C724.462 96.3371 724.82 96.2642 725.247 96.2642C725.804 96.2642 726.318 96.41 726.788 96.7017C727.259 96.9901 727.635 97.4259 727.917 98.0092C728.199 98.5893 728.339 99.3168 728.339 100.192C728.339 101.044 728.202 101.763 727.927 102.349C727.655 102.933 727.284 103.375 726.813 103.677C726.346 103.975 725.822 104.124 725.242 104.124C724.831 104.124 724.482 104.056 724.193 103.92C723.908 103.785 723.674 103.614 723.492 103.408C723.31 103.2 723.171 102.989 723.075 102.777H723.01V106.864H720.892ZM722.965 100.182C722.965 100.636 723.028 101.032 723.154 101.37C723.28 101.708 723.462 101.972 723.701 102.161C723.94 102.346 724.23 102.439 724.571 102.439C724.916 102.439 725.207 102.344 725.446 102.156C725.685 101.963 725.865 101.698 725.988 101.36C726.114 101.019 726.177 100.626 726.177 100.182C726.177 99.741 726.116 99.3532 725.993 99.0185C725.87 98.6837 725.69 98.4219 725.451 98.233C725.212 98.044 724.919 97.9496 724.571 97.9496C724.226 97.9496 723.935 98.0407 723.696 98.223C723.461 98.4053 723.28 98.6638 723.154 98.9986C723.028 99.3333 722.965 99.7277 722.965 100.182ZM733.813 96.3636V97.9545H729.214V96.3636H733.813ZM730.259 94.5341H732.376V101.653C732.376 101.849 732.406 102.001 732.466 102.111C732.526 102.217 732.608 102.291 732.714 102.335C732.824 102.378 732.95 102.399 733.092 102.399C733.192 102.399 733.291 102.391 733.391 102.374C733.49 102.354 733.566 102.339 733.619 102.33L733.952 103.906C733.846 103.939 733.697 103.977 733.505 104.02C733.313 104.066 733.079 104.094 732.804 104.104C732.294 104.124 731.846 104.056 731.462 103.901C731.08 103.745 730.784 103.503 730.572 103.175C730.36 102.847 730.255 102.432 730.259 101.932V94.5341ZM735.193 104V96.3636H737.246V97.696H737.326C737.465 97.2221 737.699 96.8641 738.027 96.6222C738.355 96.3769 738.733 96.2543 739.16 96.2543C739.266 96.2543 739.381 96.2609 739.503 96.2741C739.626 96.2874 739.734 96.3056 739.826 96.3288V98.2081C739.727 98.1783 739.589 98.1518 739.414 98.1286C739.238 98.1054 739.077 98.0938 738.931 98.0938C738.62 98.0938 738.342 98.1617 738.096 98.2976C737.854 98.4302 737.662 98.6158 737.52 98.8544C737.38 99.093 737.311 99.3681 737.311 99.6797V104H735.193Z" fill="#0D1117"/>
<rect y="81" width="64" height="37" fill="#FCCE2E"/>
<path d="M11.9631 99.5852V104H9.84517V96.3636H11.8636V97.7109H11.9531C12.1222 97.2668 12.4055 96.9155 12.8033 96.657C13.201 96.3951 13.6832 96.2642 14.25 96.2642C14.7803 96.2642 15.2427 96.3802 15.6371 96.6122C16.0315 96.8442 16.3381 97.1757 16.5568 97.6065C16.7756 98.0341 16.8849 98.5445 16.8849 99.1378V104H14.767V99.5156C14.7704 99.0483 14.651 98.6837 14.4091 98.4219C14.1671 98.1567 13.834 98.0241 13.4098 98.0241C13.1248 98.0241 12.8729 98.0855 12.6541 98.2081C12.4387 98.3307 12.2696 98.5097 12.147 98.745C12.0277 98.977 11.9664 99.2571 11.9631 99.5852ZM23.4512 100.749V96.3636H25.5691V104H23.5357V102.613H23.4561C23.2838 103.06 22.9971 103.42 22.5961 103.692C22.1983 103.964 21.7128 104.099 21.1394 104.099C20.629 104.099 20.1799 103.983 19.7921 103.751C19.4043 103.519 19.101 103.19 18.8823 102.762C18.6668 102.335 18.5575 101.822 18.5542 101.226V96.3636H20.6721V100.848C20.6754 101.299 20.7963 101.655 21.035 101.917C21.2736 102.179 21.5935 102.31 21.9945 102.31C22.2497 102.31 22.4883 102.252 22.7104 102.136C22.9325 102.016 23.1114 101.841 23.2473 101.609C23.3865 101.377 23.4545 101.09 23.4512 100.749ZM29.381 93.8182V104H27.2631V93.8182H29.381ZM33.1955 93.8182V104H31.0776V93.8182H33.1955ZM34.892 106.864V96.3636H36.9801V97.6463H37.0746C37.1674 97.4408 37.3016 97.232 37.4773 97.0199C37.6563 96.8045 37.8883 96.6255 38.1733 96.483C38.4616 96.3371 38.8196 96.2642 39.2472 96.2642C39.804 96.2642 40.3177 96.41 40.7884 96.7017C41.259 96.9901 41.6352 97.4259 41.9169 98.0092C42.1986 98.5893 42.3395 99.3168 42.3395 100.192C42.3395 101.044 42.2019 101.763 41.9268 102.349C41.6551 102.933 41.2839 103.375 40.8132 103.677C40.3459 103.975 39.8222 104.124 39.2422 104.124C38.8312 104.124 38.4815 104.056 38.1932 103.92C37.9081 103.785 37.6745 103.614 37.4922 103.408C37.3099 103.2 37.1707 102.989 37.0746 102.777H37.0099V106.864H34.892ZM36.9652 100.182C36.9652 100.636 37.0282 101.032 37.1541 101.37C37.2801 101.708 37.4624 101.972 37.701 102.161C37.9396 102.346 38.2296 102.439 38.571 102.439C38.9157 102.439 39.2074 102.344 39.446 102.156C39.6847 101.963 39.8653 101.698 39.9879 101.36C40.1139 101.019 40.1768 100.626 40.1768 100.182C40.1768 99.741 40.1155 99.3532 39.9929 99.0185C39.8703 98.6837 39.6896 98.4219 39.451 98.233C39.2124 98.044 38.919 97.9496 38.571 97.9496C38.2263 97.9496 37.9347 98.0407 37.696 98.223C37.4607 98.4053 37.2801 98.6638 37.1541 98.9986C37.0282 99.3333 36.9652 99.7277 36.9652 100.182ZM47.8132 96.3636V97.9545H43.2145V96.3636H47.8132ZM44.2585 94.5341H46.3764V101.653C46.3764 101.849 46.4063 102.001 46.4659 102.111C46.5256 102.217 46.6084 102.291 46.7145 102.335C46.8239 102.378 46.9498 102.399 47.0923 102.399C47.1918 102.399 47.2912 102.391 47.3906 102.374C47.4901 102.354 47.5663 102.339 47.6193 102.33L47.9524 103.906C47.8464 103.939 47.6972 103.977 47.505 104.02C47.3127 104.066 47.0791 104.094 46.804 104.104C46.2936 104.124 45.8461 104.056 45.4616 103.901C45.0805 103.745 44.7839 103.503 44.5717 103.175C44.3596 102.847 44.2552 102.432 44.2585 101.932V94.5341ZM49.1928 104V96.3636H51.2461V97.696H51.3256C51.4648 97.2221 51.6985 96.8641 52.0266 96.6222C52.3548 96.3769 52.7326 96.2543 53.1602 96.2543C53.2662 96.2543 53.3806 96.2609 53.5032 96.2741C53.6258 96.2874 53.7335 96.3056 53.8263 96.3288V98.2081C53.7269 98.1783 53.5894 98.1518 53.4137 98.1286C53.238 98.1054 53.0773 98.0938 52.9315 98.0938C52.6199 98.0938 52.3415 98.1617 52.0962 98.2976C51.8543 98.4302 51.6621 98.6158 51.5195 98.8544C51.3803 99.093 51.3107 99.3681 51.3107 99.6797V104H49.1928Z" fill="#0D1117"/>
<path d="M154.183 130.023L153.936 129.814L153.936 130.137L153.936 160.081C153.936 160.483 153.542 160.85 153 160.85C152.458 160.85 152.064 160.483 152.064 160.081L152.064 130.137L152.064 129.814L151.817 130.023L146.758 134.302C146.389 134.614 145.783 134.614 145.415 134.302C145.062 134.003 145.062 133.531 145.415 133.232L152.329 127.384C152.697 127.072 153.303 127.072 153.671 127.384L160.585 133.232C160.938 133.531 160.938 134.003 160.585 134.302C160.217 134.614 159.611 134.614 159.242 134.302L154.183 130.023Z" fill="#FCCE2E" stroke="black" stroke-width="0.3"/>
<path d="M595.817 68.9771L596.064 69.186L596.064 68.8626L596.064 38.9189C596.064 38.5168 596.458 38.15 597 38.15C597.542 38.15 597.936 38.5168 597.936 38.9189L597.936 68.8626L597.936 69.186L598.183 68.9771L603.242 64.6979C603.611 64.3863 604.217 64.3863 604.585 64.6979C604.938 64.9968 604.938 65.4694 604.585 65.7684L597.671 71.6163C597.303 71.9279 596.697 71.9279 596.329 71.6163L589.415 65.7684C589.062 65.4694 589.062 64.9968 589.415 64.6979C589.783 64.3863 590.389 64.3863 590.758 64.6979L595.817 68.9771Z" fill="#FCCE2E" stroke="black" stroke-width="0.3"/>
<rect x="124" y="170" width="58" height="29" rx="5" fill="#FCCE2E"/>
<rect x="568" width="58" height="29" rx="5" fill="#FCCE2E"/>
<path d="M134.011 190V178.364H136.472V183.165H141.466V178.364H143.92V190H141.466V185.193H136.472V190H134.011ZM149.881 190.17C148.983 190.17 148.21 189.989 147.562 189.625C146.919 189.258 146.422 188.739 146.074 188.068C145.725 187.394 145.551 186.597 145.551 185.676C145.551 184.778 145.725 183.991 146.074 183.312C146.422 182.634 146.913 182.106 147.545 181.727C148.182 181.348 148.928 181.159 149.784 181.159C150.36 181.159 150.896 181.252 151.392 181.438C151.892 181.619 152.328 181.894 152.699 182.261C153.074 182.629 153.366 183.091 153.574 183.648C153.782 184.201 153.886 184.848 153.886 185.591V186.256H146.517V184.756H151.608C151.608 184.407 151.532 184.098 151.381 183.83C151.229 183.561 151.019 183.35 150.75 183.199C150.485 183.044 150.176 182.966 149.824 182.966C149.456 182.966 149.131 183.051 148.847 183.222C148.566 183.388 148.347 183.614 148.188 183.898C148.028 184.178 147.947 184.491 147.943 184.835V186.261C147.943 186.693 148.023 187.066 148.182 187.381C148.345 187.695 148.574 187.938 148.869 188.108C149.165 188.278 149.515 188.364 149.92 188.364C150.189 188.364 150.436 188.326 150.659 188.25C150.883 188.174 151.074 188.061 151.233 187.909C151.392 187.758 151.513 187.572 151.597 187.352L153.835 187.5C153.722 188.038 153.489 188.508 153.136 188.909C152.788 189.307 152.337 189.617 151.784 189.841C151.235 190.061 150.6 190.17 149.881 190.17ZM157.955 190.165C157.398 190.165 156.902 190.068 156.466 189.875C156.03 189.678 155.686 189.388 155.432 189.006C155.182 188.619 155.057 188.138 155.057 187.562C155.057 187.078 155.146 186.67 155.324 186.341C155.502 186.011 155.744 185.746 156.051 185.545C156.358 185.345 156.706 185.193 157.097 185.091C157.491 184.989 157.903 184.917 158.335 184.875C158.843 184.822 159.252 184.773 159.562 184.727C159.873 184.678 160.098 184.606 160.239 184.511C160.379 184.417 160.449 184.277 160.449 184.091V184.057C160.449 183.697 160.335 183.419 160.108 183.222C159.884 183.025 159.566 182.926 159.153 182.926C158.718 182.926 158.371 183.023 158.114 183.216C157.856 183.405 157.686 183.644 157.602 183.932L155.364 183.75C155.477 183.22 155.701 182.761 156.034 182.375C156.367 181.985 156.797 181.686 157.324 181.477C157.854 181.265 158.468 181.159 159.165 181.159C159.65 181.159 160.114 181.216 160.557 181.33C161.004 181.443 161.4 181.619 161.744 181.858C162.093 182.097 162.367 182.403 162.568 182.778C162.769 183.15 162.869 183.595 162.869 184.114V190H160.574V188.79H160.506C160.366 189.062 160.178 189.303 159.943 189.511C159.708 189.716 159.426 189.877 159.097 189.994C158.767 190.108 158.386 190.165 157.955 190.165ZM158.648 188.494C159.004 188.494 159.318 188.424 159.591 188.284C159.864 188.14 160.078 187.947 160.233 187.705C160.388 187.462 160.466 187.187 160.466 186.881V185.955C160.39 186.004 160.286 186.049 160.153 186.091C160.025 186.129 159.879 186.165 159.716 186.199C159.553 186.229 159.39 186.258 159.227 186.284C159.064 186.307 158.917 186.328 158.784 186.347C158.5 186.388 158.252 186.455 158.04 186.545C157.828 186.636 157.663 186.759 157.545 186.915C157.428 187.066 157.369 187.256 157.369 187.483C157.369 187.812 157.489 188.064 157.727 188.239C157.97 188.409 158.277 188.494 158.648 188.494ZM167.963 190.142C167.3 190.142 166.7 189.972 166.162 189.631C165.628 189.286 165.204 188.78 164.889 188.114C164.579 187.443 164.423 186.621 164.423 185.648C164.423 184.648 164.584 183.816 164.906 183.153C165.228 182.487 165.656 181.989 166.19 181.659C166.728 181.326 167.317 181.159 167.957 181.159C168.446 181.159 168.853 181.242 169.179 181.409C169.509 181.572 169.774 181.777 169.974 182.023C170.179 182.265 170.334 182.504 170.44 182.739H170.514V178.364H172.929V190H170.543V188.602H170.44C170.327 188.845 170.166 189.085 169.957 189.324C169.753 189.559 169.486 189.754 169.156 189.909C168.83 190.064 168.433 190.142 167.963 190.142ZM168.73 188.216C169.12 188.216 169.45 188.11 169.719 187.898C169.991 187.682 170.2 187.381 170.344 186.994C170.491 186.608 170.565 186.155 170.565 185.636C170.565 185.117 170.493 184.667 170.349 184.284C170.205 183.902 169.997 183.606 169.724 183.398C169.452 183.189 169.12 183.085 168.73 183.085C168.332 183.085 167.997 183.193 167.724 183.409C167.452 183.625 167.245 183.924 167.105 184.307C166.965 184.689 166.895 185.133 166.895 185.636C166.895 186.144 166.965 186.593 167.105 186.983C167.249 187.369 167.455 187.672 167.724 187.892C167.997 188.108 168.332 188.216 168.73 188.216Z" fill="#0D1117"/>
<path d="M583.568 10.392V8.36364H593.125V10.392H589.562V20H587.131V10.392H583.568ZM595.955 20.1648C595.398 20.1648 594.902 20.0682 594.466 19.875C594.03 19.678 593.686 19.3883 593.432 19.0057C593.182 18.6193 593.057 18.1383 593.057 17.5625C593.057 17.0777 593.146 16.6705 593.324 16.3409C593.502 16.0114 593.744 15.7462 594.051 15.5455C594.358 15.3447 594.706 15.1932 595.097 15.0909C595.491 14.9886 595.903 14.9167 596.335 14.875C596.843 14.822 597.252 14.7727 597.562 14.7273C597.873 14.678 598.098 14.6061 598.239 14.5114C598.379 14.4167 598.449 14.2765 598.449 14.0909V14.0568C598.449 13.697 598.335 13.4186 598.108 13.2216C597.884 13.0246 597.566 12.9261 597.153 12.9261C596.718 12.9261 596.371 13.0227 596.114 13.2159C595.856 13.4053 595.686 13.6439 595.602 13.9318L593.364 13.75C593.477 13.2197 593.701 12.7614 594.034 12.375C594.367 11.9848 594.797 11.6856 595.324 11.4773C595.854 11.2652 596.468 11.1591 597.165 11.1591C597.65 11.1591 598.114 11.2159 598.557 11.3295C599.004 11.4432 599.4 11.6193 599.744 11.858C600.093 12.0966 600.367 12.4034 600.568 12.7784C600.769 13.1496 600.869 13.5947 600.869 14.1136V20H598.574V18.7898H598.506C598.366 19.0625 598.178 19.303 597.943 19.5114C597.708 19.7159 597.426 19.8769 597.097 19.9943C596.767 20.108 596.386 20.1648 595.955 20.1648ZM596.648 18.4943C597.004 18.4943 597.318 18.4242 597.591 18.2841C597.864 18.1402 598.078 17.947 598.233 17.7045C598.388 17.4621 598.466 17.1875 598.466 16.8807V15.9545C598.39 16.0038 598.286 16.0492 598.153 16.0909C598.025 16.1288 597.879 16.1648 597.716 16.1989C597.553 16.2292 597.39 16.2576 597.227 16.2841C597.064 16.3068 596.917 16.3277 596.784 16.3466C596.5 16.3883 596.252 16.4545 596.04 16.5455C595.828 16.6364 595.663 16.7595 595.545 16.9148C595.428 17.0663 595.369 17.2557 595.369 17.483C595.369 17.8125 595.489 18.0644 595.727 18.2386C595.97 18.4091 596.277 18.4943 596.648 18.4943ZM602.747 20V11.2727H605.168V20H602.747ZM603.963 10.1477C603.603 10.1477 603.295 10.0284 603.037 9.78977C602.783 9.54735 602.656 9.25758 602.656 8.92045C602.656 8.58712 602.783 8.30114 603.037 8.0625C603.295 7.82008 603.603 7.69886 603.963 7.69886C604.323 7.69886 604.63 7.82008 604.884 8.0625C605.141 8.30114 605.27 8.58712 605.27 8.92045C605.27 9.25758 605.141 9.54735 604.884 9.78977C604.63 10.0284 604.323 10.1477 603.963 10.1477ZM609.527 8.36364V20H607.107V8.36364H609.527Z" fill="#0D1117"/>
<path fill-rule="evenodd" clip-rule="evenodd" d="M201.443 93.9556L202.8 87.3883C202.911 86.8474 202.563 86.3184 202.023 86.2067C201.482 86.095 200.953 86.4429 200.841 86.9837L199.021 95.7977C198.909 96.3386 199.257 96.8676 199.798 96.9793L208.612 98.7996C209.153 98.9113 209.682 98.5634 209.793 98.0226C209.905 97.4817 209.557 96.9527 209.016 96.841L202.711 95.5388C208.528 92.3361 217.281 89.5086 226.183 88.4462C236.311 87.2373 246.297 88.3513 252.358 93.4245C252.782 93.779 253.412 93.723 253.767 93.2995C254.121 92.876 254.065 92.2453 253.642 91.8909C246.925 86.2686 236.22 85.234 225.946 86.4603C216.703 87.5635 207.542 90.5274 201.443 93.9556Z" fill="#FCCE2E" stroke="black" stroke-width="0.3" stroke-linecap="round"/>
<path fill-rule="evenodd" clip-rule="evenodd" d="M251.557 101.044L250.2 107.612C250.089 108.153 250.437 108.682 250.977 108.793C251.518 108.905 252.047 108.557 252.159 108.016L253.979 99.2023C254.091 98.6614 253.743 98.1324 253.202 98.0207L244.388 96.2004C243.847 96.0887 243.318 96.4366 243.207 96.9774C243.095 97.5183 243.443 98.0473 243.984 98.159L250.289 99.4612C244.472 102.664 235.719 105.491 226.817 106.554C216.69 107.763 206.703 106.649 200.642 101.575C200.218 101.221 199.588 101.277 199.233 101.7C198.879 102.124 198.935 102.755 199.358 103.109C206.075 108.731 216.78 109.766 227.054 108.54C236.297 107.437 245.458 104.473 251.557 101.044Z" fill="#FCCE2E" stroke="black" stroke-width="0.3"/>
<path fill-rule="evenodd" clip-rule="evenodd" d="M350.444 93.9555L351.8 87.3881C351.912 86.8472 351.564 86.3182 351.023 86.2065C350.482 86.0948 349.953 86.4427 349.841 86.9836L348.021 95.7976C347.909 96.3384 348.257 96.8675 348.798 96.9792L357.612 98.7995C358.153 98.9112 358.682 98.5633 358.794 98.0224C358.905 97.4815 358.557 96.9525 358.016 96.8408L351.711 95.5386C357.528 92.3359 366.282 89.5085 375.183 88.446C385.311 87.2372 395.297 88.3512 401.358 93.4243C401.782 93.7788 402.413 93.7229 402.767 93.2994C403.122 92.8758 403.066 92.2452 402.642 91.8907C395.925 86.2684 385.22 85.2338 374.946 86.4601C365.703 87.5633 356.542 90.5272 350.444 93.9555Z" fill="#FCCE2E" stroke="black" stroke-width="0.3" stroke-linecap="round"/>
<path fill-rule="evenodd" clip-rule="evenodd" d="M400.557 101.044L399.201 107.612C399.089 108.152 399.437 108.681 399.978 108.793C400.519 108.905 401.048 108.557 401.159 108.016L402.98 99.2021C403.091 98.6612 402.743 98.1322 402.202 98.0205L393.388 96.2002C392.848 96.0885 392.319 96.4364 392.207 96.9773C392.095 97.5181 392.443 98.0471 392.984 98.1588L399.289 99.461C393.473 102.664 384.719 105.491 375.817 106.554C365.69 107.762 355.703 106.648 349.642 101.575C349.219 101.221 348.588 101.277 348.233 101.7C347.879 102.124 347.935 102.754 348.358 103.109C355.075 108.731 365.781 109.766 376.054 108.54C385.297 107.436 394.459 104.472 400.557 101.044Z" fill="#FCCE2E" stroke="black" stroke-width="0.3"/>
<path fill-rule="evenodd" clip-rule="evenodd" d="M499.444 93.9555L500.8 87.3881C500.912 86.8472 500.564 86.3182 500.023 86.2065C499.482 86.0948 498.953 86.4427 498.841 86.9836L497.021 95.7976C496.909 96.3384 497.257 96.8675 497.798 96.9792L506.612 98.7995C507.153 98.9112 507.682 98.5633 507.794 98.0224C507.905 97.4815 507.557 96.9525 507.016 96.8408L500.711 95.5386C506.528 92.3359 515.282 89.5085 524.183 88.446C534.311 87.2372 544.297 88.3512 550.358 93.4243C550.782 93.7788 551.413 93.7229 551.767 93.2994C552.122 92.8758 552.066 92.2452 551.642 91.8907C544.925 86.2684 534.22 85.2338 523.946 86.4601C514.703 87.5633 505.542 90.5272 499.444 93.9555Z" fill="#FCCE2E" stroke="black" stroke-width="0.3" stroke-linecap="round"/>
<path fill-rule="evenodd" clip-rule="evenodd" d="M549.557 101.044L548.201 107.612C548.089 108.152 548.437 108.681 548.978 108.793C549.519 108.905 550.048 108.557 550.159 108.016L551.98 99.2021C552.091 98.6612 551.743 98.1322 551.202 98.0205L542.388 96.2002C541.848 96.0885 541.319 96.4364 541.207 96.9773C541.095 97.5181 541.443 98.0471 541.984 98.1588L548.289 99.461C542.473 102.664 533.719 105.491 524.817 106.554C514.69 107.762 504.703 106.648 498.642 101.575C498.219 101.221 497.588 101.277 497.233 101.7C496.879 102.124 496.935 102.754 497.358 103.109C504.075 108.731 514.781 109.766 525.054 108.54C534.297 107.436 543.459 104.472 549.557 101.044Z" fill="#FCCE2E" stroke="black" stroke-width="0.3"/>
<path d="M677.692 100.47L677.948 100.214H677.586H645C644.531 100.214 644.15 99.8334 644.15 99.364C644.15 98.8945 644.531 98.514 645 98.514H677.586H677.948L677.692 98.2579L673.035 93.601C672.703 93.2691 672.703 92.7309 673.035 92.399C673.367 92.067 673.905 92.067 674.237 92.399L680.601 98.7629C680.933 99.0949 680.933 99.6331 680.601 99.965L674.237 106.329C673.905 106.661 673.367 106.661 673.035 106.329C672.703 105.997 672.703 105.459 673.035 105.127L677.692 100.47Z" fill="#FCCE2E" stroke="black" stroke-width="0.3"/>
<path d="M72.3081 98.2579L72.0521 98.514L72.4142 98.514L105 98.514C105.469 98.514 105.85 98.8945 105.85 99.364C105.85 99.8334 105.469 100.214 105 100.214L72.4142 100.214L72.0521 100.214L72.3081 100.47L76.965 105.127C77.2969 105.459 77.2969 105.997 76.965 106.329C76.6331 106.661 76.0949 106.661 75.7629 106.329L69.399 99.965C69.067 99.6331 69.067 99.0949 69.399 98.7629L75.7629 92.399C76.0949 92.067 76.6331 92.067 76.965 92.399C77.2969 92.7309 77.2969 93.2691 76.965 93.601L72.3081 98.2579Z" fill="#FCCE2E" stroke="black" stroke-width="0.3"/>
</svg>
